<svg width="203" height="203" xmlns="http://www.w3.org/2000/svg" xmlns:xlink="http://www.w3.org/1999/xlink" overflow="hidden"><defs><clipPath id="clip0"><rect x="232" y="343" width="203" height="203"/></clipPath></defs><g clip-path="url(#clip0)" transform="translate(-232 -343)"><path d="M333.5 495.25C337.083 495.169 339.923 492.2 339.844 488.617L339.844 469.875C339.844 466.371 337.004 463.531 333.5 463.531 329.996 463.531 327.156 466.371 327.156 469.875L327.156 488.617C327.077 492.2 329.917 495.169 333.5 495.25Z"/><path d="M282.327 415.452C283.746 426.775 284.553 438.165 284.744 449.575 284.744 458.879 284.321 467.646 283.706 475.508 281.558 501.669 301.025 524.617 327.186 526.765 327.8 526.815 328.416 526.853 329.032 526.88 330.543 526.939 332.083 526.969 333.652 526.969 335.221 526.969 336.761 526.939 338.273 526.88 364.497 525.752 384.842 503.578 383.714 477.354 383.687 476.74 383.649 476.127 383.599 475.515 382.981 467.653 382.558 458.879 382.558 449.575 382.752 438.163 383.561 426.77 384.984 415.446 388.223 388.224 368.78 363.53 341.558 360.291 340.314 360.143 339.064 360.042 337.812 359.989 336.45 359.942 335.063 359.918 333.652 359.917 332.241 359.915 330.853 359.939 329.489 359.989 302.101 361.162 280.85 384.316 282.024 411.704 282.078 412.957 282.179 414.207 282.327 415.452ZM318.698 469.875C318.668 463.258 322.956 457.394 329.271 455.418L329.271 423.354C329.271 421.018 331.164 419.125 333.5 419.125 335.836 419.125 337.729 421.018 337.729 423.354L337.729 455.418C344.043 457.396 348.331 463.258 348.302 469.875L348.302 488.614C348.333 495.232 344.045 501.097 337.729 503.074L337.729 514.281C337.729 516.617 335.836 518.51 333.5 518.51 331.164 518.51 329.271 516.617 329.271 514.281L329.271 503.074C322.956 501.096 318.668 495.232 318.698 488.614Z"/></g></svg>