<svg width="399" height="374" xmlns="http://www.w3.org/2000/svg" xmlns:xlink="http://www.w3.org/1999/xlink" overflow="hidden"><defs><clipPath id="clip0"><rect x="427" y="147" width="399" height="374"/></clipPath></defs><g clip-path="url(#clip0)" transform="translate(-427 -147)"><path d="M345.56 170.637C344.781 169.858 343.612 169.079 342.833 168.3L342.833 93.5C342.833 84.9292 335.821 77.9167 327.25 77.9167L46.75 77.9167C38.1792 77.9167 31.1667 84.9292 31.1667 93.5L31.1667 280.5C31.1667 289.071 38.1792 296.083 46.75 296.083L327.25 296.083C335.821 296.083 342.833 289.071 342.833 280.5L342.833 206.479 345.56 203.752C349.846 199.467 352.573 193.623 352.573 187.39 352.573 180.767 350.235 174.923 345.56 170.637ZM319.458 272.708 54.5417 272.708 54.5417 101.292 319.458 101.292 319.458 165.573C317.121 166.742 314.783 168.3 312.446 170.248L303.875 179.208 303.875 116.875 70.125 116.875 70.125 257.125 303.875 257.125 303.875 241.931C306.992 240.762 310.108 238.815 312.446 236.477L319.458 229.854 319.458 272.708ZM195.571 194.402C197.908 204.921 199.077 211.154 193.623 215.05 188.169 218.946 181.935 215.05 178.819 212.712 155.833 197.908 122.329 164.404 121.16 163.235 118.044 160.119 118.044 155.444 121.16 152.327 124.277 149.21 128.952 149.21 132.069 152.327 132.458 152.717 158.95 178.819 179.598 194.792 178.04 188.169 176.481 179.598 175.312 168.69 173.754 155.833 179.598 151.938 183.104 150.379 189.337 148.042 199.467 149.6 225.569 174.923 238.815 187.779 253.229 204.142 257.515 211.544 259.852 215.05 258.683 220.115 254.788 222.062 253.619 222.842 252.06 223.231 250.892 223.231 248.165 223.231 245.827 222.062 244.269 219.335 233.75 202.194 202.194 173.365 190.896 166.742 192.065 178.429 194.012 187.779 195.571 194.402ZM334.652 192.454 301.538 225.569C298.421 228.685 293.746 228.685 290.629 225.569 287.513 222.452 287.513 217.777 290.629 214.66L323.744 181.546C326.86 178.429 331.535 178.429 334.652 181.546 337.769 184.663 337.769 189.337 334.652 192.454Z" fill="#BF9000" transform="matrix(1.06684 0 0 1 427 147)"/></g></svg>