<svg width="4821" height="4707" xmlns="http://www.w3.org/2000/svg" xmlns:xlink="http://www.w3.org/1999/xlink" overflow="hidden"><defs><clipPath id="clip0"><rect x="-206" y="-964" width="4821" height="4707"/></clipPath><clipPath id="clip1"><path d="M1684.08-963.829 4614.5 1390.41 2725.17 3742.13-205.25 1387.89Z" fill-rule="evenodd" clip-rule="evenodd"/></clipPath><clipPath id="clip2"><path d="M1684.08-963.829 4614.5 1390.41 2725.17 3742.13-205.25 1387.89Z" fill-rule="evenodd" clip-rule="evenodd"/></clipPath><clipPath id="clip3"><path d="M1684.08-963.829 4614.5 1390.41 2725.17 3742.13-205.25 1387.89Z" fill-rule="evenodd" clip-rule="evenodd"/></clipPath></defs><g clip-path="url(#clip0)" transform="translate(206 964)"><g clip-path="url(#clip1)"><g clip-path="url(#clip2)"><g clip-path="url(#clip3)"><path d="M2450.08 1554.58C2433.82 1409.24 2221.03 1411.73 2034.42 1211.25 1791.64 950.419 1914.95 691.716 1738.69 589.942 1529.79 469.314 1045.71 653.248 941.991 1015.01 835.711 1385.71 1198.36 1700.56 1397.54 1816.31 1634.59 1954.08 1981.46 2008.23 2234.13 1849.22 2259.41 1833.31 2466.67 1702.88 2450.08 1554.58Z" fill="#7F7F7F" transform="matrix(0.971417 0.780419 -0.626301 0.779581 1684.08 -963.829)"/><path d="M1228.21 872.966C1097.79 939.112 1174.71 1137.55 1052.35 1382.57 893.153 1701.35 607.64 1676.47 574.099 1877.22 534.342 2115.15 876.278 2504.15 1251.45 2474.57 1635.89 2444.26 1803.67 1994.29 1842.27 1767.17 1888.21 1496.88 1817.35 1153.01 1579.86 972.032 1556.1 953.919 1361.3 805.469 1228.21 872.966Z" fill="#7F7F7F" transform="matrix(0.971417 0.780419 -0.626301 0.779581 1684.08 -963.829)"/></g></g></g><path d="M1233 911 1233 2054 3025 2054 3025 911 1233 911ZM3022.02 1053.58 2846.1 1053.58 2846.1 913.376 3022.02 913.376 3022.02 1053.58ZM2127.51 1623.89 1951.59 1623.89 1951.59 1483.69 2127.51 1483.69 2127.51 1623.89ZM1951.59 1341.11 2127.51 1341.11 2127.51 1481.31 1951.59 1481.31 1951.59 1341.11ZM2130.49 1483.69 2306.41 1483.69 2306.41 1623.89 2130.49 1623.89 2130.49 1483.69ZM2130.49 1341.11 2306.41 1341.11 2306.41 1481.31 2130.49 1481.31 2130.49 1341.11ZM2309.39 1341.11 2485.31 1341.11 2485.31 1481.31 2309.39 1481.31 2309.39 1341.11ZM2309.39 1198.53 2485.31 1198.53 2485.31 1338.73 2309.39 1338.73 2309.39 1198.53ZM2306.41 1338.73 2130.49 1338.73 2130.49 1198.53 2306.41 1198.53 2306.41 1338.73ZM2127.51 1338.73 1951.59 1338.73 1951.59 1198.53 2127.51 1198.53 2127.51 1338.73ZM1948.61 1338.73 1772.69 1338.73 1772.69 1198.53 1948.61 1198.53 1948.61 1338.73ZM1948.61 1481.31 1772.69 1481.31 1772.69 1341.11 1948.61 1341.11 1948.61 1481.31ZM1948.61 1623.89 1772.69 1623.89 1772.69 1483.69 1948.61 1483.69 1948.61 1623.89ZM1948.61 1766.47 1772.69 1766.47 1772.69 1626.27 1948.61 1626.27 1948.61 1766.47ZM1951.59 1626.27 2127.51 1626.27 2127.51 1766.47 1951.59 1766.47 1951.59 1626.27ZM2130.49 1626.27 2306.41 1626.27 2306.41 1766.47 2130.49 1766.47 2130.49 1626.27ZM2309.39 1626.27 2485.31 1626.27 2485.31 1766.47 2309.39 1766.47 2309.39 1626.27ZM2309.39 1483.69 2485.31 1483.69 2485.31 1623.89 2309.39 1623.89 2309.39 1483.69ZM2488.29 1483.69 2664.21 1483.69 2664.21 1623.89 2488.29 1623.89 2488.29 1483.69ZM2488.29 1341.11 2664.21 1341.11 2664.21 1481.31 2488.29 1481.31 2488.29 1341.11ZM2488.29 1198.53 2664.21 1198.53 2664.21 1338.73 2488.29 1338.73 2488.29 1198.53ZM2488.29 1055.95 2664.21 1055.95 2664.21 1196.16 2488.29 1196.16 2488.29 1055.95ZM2485.31 1196.16 2309.39 1196.16 2309.39 1055.95 2485.31 1055.95 2485.31 1196.16ZM2306.41 1196.16 2130.49 1196.16 2130.49 1055.95 2306.41 1055.95 2306.41 1196.16ZM2127.51 1196.16 1951.59 1196.16 1951.59 1055.95 2127.51 1055.95 2127.51 1196.16ZM1948.61 1196.16 1772.69 1196.16 1772.69 1055.95 1948.61 1055.95 1948.61 1196.16ZM1769.71 1196.16 1593.79 1196.16 1593.79 1055.95 1769.71 1055.95 1769.71 1196.16ZM1769.71 1338.73 1593.79 1338.73 1593.79 1198.53 1769.71 1198.53 1769.71 1338.73ZM1769.71 1481.31 1593.79 1481.31 1593.79 1341.11 1769.71 1341.11 1769.71 1481.31ZM1769.71 1623.89 1593.79 1623.89 1593.79 1483.69 1769.71 1483.69 1769.71 1623.89ZM1769.71 1766.47 1593.79 1766.47 1593.79 1626.27 1769.71 1626.27 1769.71 1766.47ZM1769.71 1909.05 1593.79 1909.05 1593.79 1768.84 1769.71 1768.84 1769.71 1909.05ZM1772.69 1768.84 1948.61 1768.84 1948.61 1909.05 1772.69 1909.05 1772.69 1768.84ZM1951.59 1768.84 2127.51 1768.84 2127.51 1909.05 1951.59 1909.05 1951.59 1768.84ZM2130.49 1768.84 2306.41 1768.84 2306.41 1909.05 2130.49 1909.05 2130.49 1768.84ZM2309.39 1768.84 2485.31 1768.84 2485.31 1909.05 2309.39 1909.05 2309.39 1768.84ZM2488.29 1768.84 2664.21 1768.84 2664.21 1909.05 2488.29 1909.05 2488.29 1768.84ZM2488.29 1626.27 2664.21 1626.27 2664.21 1766.47 2488.29 1766.47 2488.29 1626.27ZM2667.2 1626.27 2843.12 1626.27 2843.12 1766.47 2667.2 1766.47 2667.2 1626.27ZM2667.2 1483.69 2843.12 1483.69 2843.12 1623.89 2667.2 1623.89 2667.2 1483.69ZM2667.2 1341.11 2843.12 1341.11 2843.12 1481.31 2667.2 1481.31 2667.2 1341.11ZM2667.2 1198.53 2843.12 1198.53 2843.12 1338.73 2667.2 1338.73 2667.2 1198.53ZM2667.2 1055.95 2843.12 1055.95 2843.12 1196.16 2667.2 1196.16 2667.2 1055.95ZM2667.2 913.376 2843.12 913.376 2843.12 1053.58 2667.2 1053.58 2667.2 913.376ZM2664.21 1053.58 2488.29 1053.58 2488.29 913.376 2664.21 913.376 2664.21 1053.58ZM2485.31 1053.58 2309.39 1053.58 2309.39 913.376 2485.31 913.376 2485.31 1053.58ZM2306.41 1053.58 2130.49 1053.58 2130.49 913.376 2306.41 913.376 2306.41 1053.58ZM2127.51 1053.58 1951.59 1053.58 1951.59 913.376 2127.51 913.376 2127.51 1053.58ZM1948.61 1053.58 1772.69 1053.58 1772.69 913.376 1948.61 913.376 1948.61 1053.58ZM1769.71 1053.58 1593.79 1053.58 1593.79 913.376 1769.71 913.376 1769.71 1053.58ZM1590.8 1053.58 1414.88 1053.58 1414.88 913.376 1590.8 913.376 1590.8 1053.58ZM1590.8 1196.16 1414.88 1196.16 1414.88 1055.95 1590.8 1055.95 1590.8 1196.16ZM1590.8 1338.73 1414.88 1338.73 1414.88 1198.53 1590.8 1198.53 1590.8 1338.73ZM1590.8 1481.31 1414.88 1481.31 1414.88 1341.11 1590.8 1341.11 1590.8 1481.31ZM1590.8 1623.89 1414.88 1623.89 1414.88 1483.69 1590.8 1483.69 1590.8 1623.89ZM1590.8 1766.47 1414.88 1766.47 1414.88 1626.27 1590.8 1626.27 1590.8 1766.47ZM1590.8 1909.05 1414.88 1909.05 1414.88 1768.84 1590.8 1768.84 1590.8 1909.05ZM1590.8 2051.62 1414.88 2051.62 1414.88 1911.42 1590.8 1911.42 1590.8 2051.62ZM1593.79 1911.42 1769.71 1911.42 1769.71 2051.62 1593.79 2051.62 1593.79 1911.42ZM1772.69 1911.42 1948.61 1911.42 1948.61 2051.62 1772.69 2051.62 1772.69 1911.42ZM1951.59 1911.42 2127.51 1911.42 2127.51 2051.62 1951.59 2051.62 1951.59 1911.42ZM2130.49 1911.42 2306.41 1911.42 2306.41 2051.62 2130.49 2051.62 2130.49 1911.42ZM2309.39 1911.42 2485.31 1911.42 2485.31 2051.62 2309.39 2051.62 2309.39 1911.42ZM2488.29 1911.42 2664.21 1911.42 2664.21 2051.62 2488.29 2051.62 2488.29 1911.42ZM2667.2 1911.42 2843.12 1911.42 2843.12 2051.62 2667.2 2051.62 2667.2 1911.42ZM2667.2 1768.84 2843.12 1768.84 2843.12 1909.05 2667.2 1909.05 2667.2 1768.84ZM2846.1 1768.84 3022.02 1768.84 3022.02 1909.05 2846.1 1909.05 2846.1 1768.84ZM2846.1 1626.27 3022.02 1626.27 3022.02 1766.47 2846.1 1766.47 2846.1 1626.27ZM2846.1 1483.69 3022.02 1483.69 3022.02 1623.89 2846.1 1623.89 2846.1 1483.69ZM2846.1 1341.11 3022.02 1341.11 3022.02 1481.31 2846.1 1481.31 2846.1 1341.11ZM2846.1 1198.53 3022.02 1198.53 3022.02 1338.73 2846.1 1338.73 2846.1 1198.53ZM2846.1 1055.95 3022.02 1055.95 3022.02 1196.16 2846.1 1196.16 2846.1 1055.95ZM1235.98 913.376 1411.9 913.376 1411.9 1053.58 1235.98 1053.58 1235.98 913.376ZM1235.98 1055.95 1411.9 1055.95 1411.9 1196.16 1235.98 1196.16 1235.98 1055.95ZM1235.98 1198.53 1411.9 1198.53 1411.9 1338.73 1235.98 1338.73 1235.98 1198.53ZM1235.98 1341.11 1411.9 1341.11 1411.9 1481.31 1235.98 1481.31 1235.98 1341.11ZM1235.98 1483.69 1411.9 1483.69 1411.9 1623.89 1235.98 1623.89 1235.98 1483.69ZM1235.98 1626.27 1411.9 1626.27 1411.9 1766.47 1235.98 1766.47 1235.98 1626.27ZM1235.98 1768.84 1411.9 1768.84 1411.9 1909.05 1235.98 1909.05 1235.98 1768.84ZM1235.98 1911.42 1411.9 1911.42 1411.9 2051.62 1235.98 2051.62 1235.98 1911.42ZM2846.1 1911.42 3022.02 1911.42 3022.02 2051.62 2846.1 2051.62 2846.1 1911.42Z" fill="#E6E6E6" fill-rule="evenodd"/><path d="M1693.27 1502.71 2199.33 996.651 2744.48 1541.8 2238.42 2047.86Z" fill="#FFD966" fill-rule="evenodd"/><path d="M2313 1147 3023 1147 3023 2002 2313 2002Z" fill="#737373" fill-rule="evenodd"/><path d="M3023 1994 2388.44 1994 2308 1994 2308 1138 3023 1138Z" fill="#FFFFFF" fill-rule="evenodd"/><path d="M2308 1138 3023 1138 3023 1196 2308 1196Z" fill="#FFD966" fill-rule="evenodd"/><path d="M2366 1280 2366 1910 2977 1910 2977 1280 2366 1280ZM2655.54 1679.4 2655.54 1653.25 2688.33 1653.25 2688.33 1679.4 2655.54 1679.4ZM2688.33 1681.78 2688.33 1707.93 2655.54 1707.93 2655.54 1681.78 2688.33 1681.78ZM2688.33 1510.61 2688.33 1536.76 2655.54 1536.76 2655.54 1510.61 2688.33 1510.61ZM2655.54 1508.23 2655.54 1482.08 2688.33 1482.08 2688.33 1508.23 2655.54 1508.23ZM2655.54 1622.34 2655.54 1596.19 2688.33 1596.19 2688.33 1622.34 2655.54 1622.34ZM2688.33 1624.72 2688.33 1650.87 2655.54 1650.87 2655.54 1624.72 2688.33 1624.72ZM2655.54 1593.81 2655.54 1567.66 2688.33 1567.66 2688.33 1593.81 2655.54 1593.81ZM2655.54 1565.29 2655.54 1539.13 2688.33 1539.13 2688.33 1565.29 2655.54 1565.29ZM2652.56 1536.76 2619.78 1536.76 2619.78 1510.61 2652.56 1510.61 2652.56 1536.76ZM2652.56 1539.13 2652.56 1565.29 2619.78 1565.29 2619.78 1539.13 2652.56 1539.13ZM2652.56 1567.66 2652.56 1593.81 2619.78 1593.81 2619.78 1567.66 2652.56 1567.66ZM2652.56 1596.19 2652.56 1622.34 2619.78 1622.34 2619.78 1596.19 2652.56 1596.19ZM2652.56 1624.72 2652.56 1650.87 2619.78 1650.87 2619.78 1624.72 2652.56 1624.72ZM2652.56 1653.25 2652.56 1679.4 2619.78 1679.4 2619.78 1653.25 2652.56 1653.25ZM2691.31 1653.25 2724.09 1653.25 2724.09 1679.4 2691.31 1679.4 2691.31 1653.25ZM2691.31 1650.87 2691.31 1624.72 2724.09 1624.72 2724.09 1650.87 2691.31 1650.87ZM2691.31 1622.34 2691.31 1596.19 2724.09 1596.19 2724.09 1622.34 2691.31 1622.34ZM2691.31 1593.81 2691.31 1567.66 2724.09 1567.66 2724.09 1593.81 2691.31 1593.81ZM2691.31 1565.29 2691.31 1539.13 2724.09 1539.13 2724.09 1565.29 2691.31 1565.29ZM2691.31 1536.76 2691.31 1510.61 2724.09 1510.61 2724.09 1536.76 2691.31 1536.76ZM2691.31 1508.23 2691.31 1482.08 2724.09 1482.08 2724.09 1508.23 2691.31 1508.23ZM2691.31 1479.7 2691.31 1453.55 2724.09 1453.55 2724.09 1479.7 2691.31 1479.7ZM2688.33 1479.7 2655.54 1479.7 2655.54 1453.55 2688.33 1453.55 2688.33 1479.7ZM2652.56 1479.7 2619.78 1479.7 2619.78 1453.55 2652.56 1453.55 2652.56 1479.7ZM2652.56 1482.08 2652.56 1508.23 2619.78 1508.23 2619.78 1482.08 2652.56 1482.08ZM2616.8 1508.23 2584.01 1508.23 2584.01 1482.08 2616.8 1482.08 2616.8 1508.23ZM2616.8 1510.61 2616.8 1536.76 2584.01 1536.76 2584.01 1510.61 2616.8 1510.61ZM2616.8 1539.13 2616.8 1565.29 2584.01 1565.29 2584.01 1539.13 2616.8 1539.13ZM2616.8 1567.66 2616.8 1593.81 2584.01 1593.81 2584.01 1567.66 2616.8 1567.66ZM2616.8 1596.19 2616.8 1622.34 2584.01 1622.34 2584.01 1596.19 2616.8 1596.19ZM2616.8 1624.72 2616.8 1650.87 2584.01 1650.87 2584.01 1624.72 2616.8 1624.72ZM2616.8 1653.25 2616.8 1679.4 2584.01 1679.4 2584.01 1653.25 2616.8 1653.25ZM2616.8 1681.78 2616.8 1707.93 2584.01 1707.93 2584.01 1681.78 2616.8 1681.78ZM2619.78 1681.78 2652.56 1681.78 2652.56 1707.93 2619.78 1707.93 2619.78 1681.78ZM2652.56 1710.3 2652.56 1736.46 2619.78 1736.46 2619.78 1710.3 2652.56 1710.3ZM2655.54 1710.3 2688.33 1710.3 2688.33 1736.46 2655.54 1736.46 2655.54 1710.3ZM2691.31 1710.3 2724.09 1710.3 2724.09 1736.46 2691.31 1736.46 2691.31 1710.3ZM2691.31 1707.93 2691.31 1681.78 2724.09 1681.78 2724.09 1707.93 2691.31 1707.93ZM2727.07 1681.78 2759.86 1681.78 2759.86 1707.93 2727.07 1707.93 2727.07 1681.78ZM2727.07 1679.4 2727.07 1653.25 2759.86 1653.25 2759.86 1679.4 2727.07 1679.4ZM2727.07 1650.87 2727.07 1624.72 2759.86 1624.72 2759.86 1650.87 2727.07 1650.87ZM2727.07 1622.34 2727.07 1596.19 2759.86 1596.19 2759.86 1622.34 2727.07 1622.34ZM2727.07 1593.81 2727.07 1567.66 2759.86 1567.66 2759.86 1593.81 2727.07 1593.81ZM2727.07 1565.29 2727.07 1539.13 2759.86 1539.13 2759.86 1565.29 2727.07 1565.29ZM2727.07 1536.76 2727.07 1510.61 2759.86 1510.61 2759.86 1536.76 2727.07 1536.76ZM2727.07 1508.23 2727.07 1482.08 2759.86 1482.08 2759.86 1508.23 2727.07 1508.23ZM2727.07 1479.7 2727.07 1453.55 2759.86 1453.55 2759.86 1479.7 2727.07 1479.7ZM2727.07 1451.17 2727.07 1425.02 2759.86 1425.02 2759.86 1451.17 2727.07 1451.17ZM2724.09 1451.17 2691.31 1451.17 2691.31 1425.02 2724.09 1425.02 2724.09 1451.17ZM2688.33 1451.17 2655.54 1451.17 2655.54 1425.02 2688.33 1425.02 2688.33 1451.17ZM2652.56 1451.17 2619.78 1451.17 2619.78 1425.02 2652.56 1425.02 2652.56 1451.17ZM2616.8 1451.17 2584.01 1451.17 2584.01 1425.02 2616.8 1425.02 2616.8 1451.17ZM2616.8 1453.55 2616.8 1479.7 2584.01 1479.7 2584.01 1453.55 2616.8 1453.55ZM2581.03 1479.7 2548.24 1479.7 2548.24 1453.55 2581.03 1453.55 2581.03 1479.7ZM2581.03 1482.08 2581.03 1508.23 2548.24 1508.23 2548.24 1482.08 2581.03 1482.08ZM2581.03 1510.61 2581.03 1536.76 2548.24 1536.76 2548.24 1510.61 2581.03 1510.61ZM2581.03 1539.13 2581.03 1565.29 2548.24 1565.29 2548.24 1539.13 2581.03 1539.13ZM2581.03 1567.66 2581.03 1593.81 2548.24 1593.81 2548.24 1567.66 2581.03 1567.66ZM2581.03 1596.19 2581.03 1622.34 2548.24 1622.34 2548.24 1596.19 2581.03 1596.19ZM2581.03 1624.72 2581.03 1650.87 2548.24 1650.87 2548.24 1624.72 2581.03 1624.72ZM2581.03 1653.25 2581.03 1679.4 2548.24 1679.4 2548.24 1653.25 2581.03 1653.25ZM2581.03 1681.78 2581.03 1707.93 2548.24 1707.93 2548.24 1681.78 2581.03 1681.78ZM2581.03 1710.3 2581.03 1736.46 2548.24 1736.46 2548.24 1710.3 2581.03 1710.3ZM2584.01 1710.3 2616.8 1710.3 2616.8 1736.46 2584.01 1736.46 2584.01 1710.3ZM2616.8 1738.83 2616.8 1764.98 2584.01 1764.98 2584.01 1738.83 2616.8 1738.83ZM2619.78 1738.83 2652.56 1738.83 2652.56 1764.98 2619.78 1764.98 2619.78 1738.83ZM2655.54 1738.83 2688.33 1738.83 2688.33 1764.98 2655.54 1764.98 2655.54 1738.83ZM2691.31 1738.83 2724.09 1738.83 2724.09 1764.98 2691.31 1764.98 2691.31 1738.83ZM2727.07 1738.83 2759.86 1738.83 2759.86 1764.98 2727.07 1764.98 2727.07 1738.83ZM2727.07 1736.46 2727.07 1710.3 2759.86 1710.3 2759.86 1736.46 2727.07 1736.46ZM2762.84 1710.3 2795.63 1710.3 2795.63 1736.46 2762.84 1736.46 2762.84 1710.3ZM2762.84 1707.93 2762.84 1681.78 2795.63 1681.78 2795.63 1707.93 2762.84 1707.93ZM2762.84 1679.4 2762.84 1653.25 2795.63 1653.25 2795.63 1679.4 2762.84 1679.4ZM2762.84 1650.87 2762.84 1624.72 2795.63 1624.72 2795.63 1650.87 2762.84 1650.87ZM2762.84 1622.34 2762.84 1596.19 2795.63 1596.19 2795.63 1622.34 2762.84 1622.34ZM2762.84 1593.81 2762.84 1567.66 2795.63 1567.66 2795.63 1593.81 2762.84 1593.81ZM2762.84 1565.29 2762.84 1539.13 2795.63 1539.13 2795.63 1565.29 2762.84 1565.29ZM2762.84 1536.76 2762.84 1510.61 2795.63 1510.61 2795.63 1536.76 2762.84 1536.76ZM2762.84 1508.23 2762.84 1482.08 2795.63 1482.08 2795.63 1508.23 2762.84 1508.23ZM2762.84 1479.7 2762.84 1453.55 2795.63 1453.55 2795.63 1479.7 2762.84 1479.7ZM2762.84 1451.17 2762.84 1425.02 2795.63 1425.02 2795.63 1451.17 2762.84 1451.17ZM2762.84 1422.64 2762.84 1396.49 2795.63 1396.49 2795.63 1422.64 2762.84 1422.64ZM2759.86 1422.64 2727.07 1422.64 2727.07 1396.49 2759.86 1396.49 2759.86 1422.64ZM2724.09 1422.64 2691.31 1422.64 2691.31 1396.49 2724.09 1396.49 2724.09 1422.64ZM2688.33 1422.64 2655.54 1422.64 2655.54 1396.49 2688.33 1396.49 2688.33 1422.64ZM2652.56 1422.64 2619.78 1422.64 2619.78 1396.49 2652.56 1396.49 2652.56 1422.64ZM2616.8 1422.64 2584.01 1422.64 2584.01 1396.49 2616.8 1396.49 2616.8 1422.64ZM2581.03 1422.64 2548.24 1422.64 2548.24 1396.49 2581.03 1396.49 2581.03 1422.64ZM2581.03 1425.02 2581.03 1451.17 2548.24 1451.17 2548.24 1425.02 2581.03 1425.02ZM2545.26 1451.17 2512.48 1451.17 2512.48 1425.02 2545.26 1425.02 2545.26 1451.17ZM2545.26 1453.55 2545.26 1479.7 2512.48 1479.7 2512.48 1453.55 2545.26 1453.55ZM2545.26 1482.08 2545.26 1508.23 2512.48 1508.23 2512.48 1482.08 2545.26 1482.08ZM2545.26 1510.61 2545.26 1536.76 2512.48 1536.76 2512.48 1510.61 2545.26 1510.61ZM2545.26 1539.13 2545.26 1565.29 2512.48 1565.29 2512.48 1539.13 2545.26 1539.13ZM2545.26 1567.66 2545.26 1593.81 2512.48 1593.81 2512.48 1567.66 2545.26 1567.66ZM2545.26 1596.19 2545.26 1622.34 2512.48 1622.34 2512.48 1596.19 2545.26 1596.19ZM2545.26 1624.72 2545.26 1650.87 2512.48 1650.87 2512.48 1624.72 2545.26 1624.72ZM2545.26 1653.25 2545.26 1679.4 2512.48 1679.4 2512.48 1653.25 2545.26 1653.25ZM2545.26 1681.78 2545.26 1707.93 2512.48 1707.93 2512.48 1681.78 2545.26 1681.78ZM2545.26 1710.3 2545.26 1736.46 2512.48 1736.46 2512.48 1710.3 2545.26 1710.3ZM2545.26 1738.83 2545.26 1764.98 2512.48 1764.98 2512.48 1738.83 2545.26 1738.83ZM2548.24 1738.83 2581.03 1738.83 2581.03 1764.98 2548.24 1764.98 2548.24 1738.83ZM2581.03 1767.36 2581.03 1793.51 2548.24 1793.51 2548.24 1767.36 2581.03 1767.36ZM2584.01 1767.36 2616.8 1767.36 2616.8 1793.51 2584.01 1793.51 2584.01 1767.36ZM2619.78 1767.36 2652.56 1767.36 2652.56 1793.51 2619.78 1793.51 2619.78 1767.36ZM2655.54 1767.36 2688.33 1767.36 2688.33 1793.51 2655.54 1793.51 2655.54 1767.36ZM2691.31 1767.36 2724.09 1767.36 2724.09 1793.51 2691.31 1793.51 2691.31 1767.36ZM2727.07 1767.36 2759.86 1767.36 2759.86 1793.51 2727.07 1793.51 2727.07 1767.36ZM2762.84 1767.36 2795.63 1767.36 2795.63 1793.51 2762.84 1793.51 2762.84 1767.36ZM2762.84 1764.98 2762.84 1738.83 2795.63 1738.83 2795.63 1764.98 2762.84 1764.98ZM2798.61 1738.83 2831.39 1738.83 2831.39 1764.98 2798.61 1764.98 2798.61 1738.83ZM2798.61 1736.46 2798.61 1710.3 2831.39 1710.3 2831.39 1736.46 2798.61 1736.46ZM2798.61 1707.93 2798.61 1681.78 2831.39 1681.78 2831.39 1707.93 2798.61 1707.93ZM2798.61 1679.4 2798.61 1653.25 2831.39 1653.25 2831.39 1679.4 2798.61 1679.4ZM2798.61 1650.87 2798.61 1624.72 2831.39 1624.72 2831.39 1650.87 2798.61 1650.87ZM2798.61 1622.34 2798.61 1596.19 2831.39 1596.19 2831.39 1622.34 2798.61 1622.34ZM2798.61 1593.81 2798.61 1567.66 2831.39 1567.66 2831.39 1593.81 2798.61 1593.81ZM2798.61 1565.29 2798.61 1539.13 2831.39 1539.13 2831.39 1565.29 2798.61 1565.29ZM2798.61 1536.76 2798.61 1510.61 2831.39 1510.61 2831.39 1536.76 2798.61 1536.76ZM2798.61 1508.23 2798.61 1482.08 2831.39 1482.08 2831.39 1508.23 2798.61 1508.23ZM2798.61 1479.7 2798.61 1453.55 2831.39 1453.55 2831.39 1479.7 2798.61 1479.7ZM2798.61 1451.17 2798.61 1425.02 2831.39 1425.02 2831.39 1451.17 2798.61 1451.17ZM2798.61 1422.64 2798.61 1396.49 2831.39 1396.49 2831.39 1422.64 2798.61 1422.64ZM2798.61 1394.11 2798.61 1367.96 2831.39 1367.96 2831.39 1394.11 2798.61 1394.11ZM2795.63 1394.11 2762.84 1394.11 2762.84 1367.96 2795.63 1367.96 2795.63 1394.11ZM2759.86 1394.11 2727.07 1394.11 2727.07 1367.96 2759.86 1367.96 2759.86 1394.11ZM2724.09 1394.11 2691.31 1394.11 2691.31 1367.96 2724.09 1367.96 2724.09 1394.11ZM2688.33 1394.11 2655.54 1394.11 2655.54 1367.96 2688.33 1367.96 2688.33 1394.11ZM2652.56 1394.11 2619.78 1394.11 2619.78 1367.96 2652.56 1367.96 2652.56 1394.11ZM2616.8 1394.11 2584.01 1394.11 2584.01 1367.96 2616.8 1367.96 2616.8 1394.11ZM2581.03 1394.11 2548.24 1394.11 2548.24 1367.96 2581.03 1367.96 2581.03 1394.11ZM2545.26 1394.11 2512.48 1394.11 2512.48 1367.96 2545.26 1367.96 2545.26 1394.11ZM2545.26 1396.49 2545.26 1422.64 2512.48 1422.64 2512.48 1396.49 2545.26 1396.49ZM2509.5 1422.64 2476.71 1422.64 2476.71 1396.49 2509.5 1396.49 2509.5 1422.64ZM2509.5 1425.02 2509.5 1451.17 2476.71 1451.17 2476.71 1425.02 2509.5 1425.02ZM2509.5 1453.55 2509.5 1479.7 2476.71 1479.7 2476.71 1453.55 2509.5 1453.55ZM2509.5 1482.08 2509.5 1508.23 2476.71 1508.23 2476.71 1482.08 2509.5 1482.08ZM2509.5 1510.61 2509.5 1536.76 2476.71 1536.76 2476.71 1510.61 2509.5 1510.61ZM2509.5 1539.13 2509.5 1565.29 2476.71 1565.29 2476.71 1539.13 2509.5 1539.13ZM2509.5 1567.66 2509.5 1593.81 2476.71 1593.81 2476.71 1567.66 2509.5 1567.66ZM2509.5 1596.19 2509.5 1622.34 2476.71 1622.34 2476.71 1596.19 2509.5 1596.19ZM2509.5 1624.72 2509.5 1650.87 2476.71 1650.87 2476.71 1624.72 2509.5 1624.72ZM2509.5 1653.25 2509.5 1679.4 2476.71 1679.4 2476.71 1653.25 2509.5 1653.25ZM2509.5 1681.78 2509.5 1707.93 2476.71 1707.93 2476.71 1681.78 2509.5 1681.78ZM2509.5 1710.3 2509.5 1736.46 2476.71 1736.46 2476.71 1710.3 2509.5 1710.3ZM2509.5 1738.83 2509.5 1764.98 2476.71 1764.98 2476.71 1738.83 2509.5 1738.83ZM2509.5 1767.36 2509.5 1793.51 2476.71 1793.51 2476.71 1767.36 2509.5 1767.36ZM2512.48 1767.36 2545.26 1767.36 2545.26 1793.51 2512.48 1793.51 2512.48 1767.36ZM2545.26 1795.89 2545.26 1822.04 2512.48 1822.04 2512.48 1795.89 2545.26 1795.89ZM2548.24 1795.89 2581.03 1795.89 2581.03 1822.04 2548.24 1822.04 2548.24 1795.89ZM2584.01 1795.89 2616.8 1795.89 2616.8 1822.04 2584.01 1822.04 2584.01 1795.89ZM2619.78 1795.89 2652.56 1795.89 2652.56 1822.04 2619.78 1822.04 2619.78 1795.89ZM2655.54 1795.89 2688.33 1795.89 2688.33 1822.04 2655.54 1822.04 2655.54 1795.89ZM2691.31 1795.89 2724.09 1795.89 2724.09 1822.04 2691.31 1822.04 2691.31 1795.89ZM2727.07 1795.89 2759.86 1795.89 2759.86 1822.04 2727.07 1822.04 2727.07 1795.89ZM2762.84 1795.89 2795.63 1795.89 2795.63 1822.04 2762.84 1822.04 2762.84 1795.89ZM2798.61 1795.89 2831.39 1795.89 2831.39 1822.04 2798.61 1822.04 2798.61 1795.89ZM2798.61 1793.51 2798.61 1767.36 2831.39 1767.36 2831.39 1793.51 2798.61 1793.51ZM2834.37 1767.36 2867.16 1767.36 2867.16 1793.51 2834.37 1793.51 2834.37 1767.36ZM2834.37 1764.98 2834.37 1738.83 2867.16 1738.83 2867.16 1764.98 2834.37 1764.98ZM2834.37 1736.46 2834.37 1710.3 2867.16 1710.3 2867.16 1736.46 2834.37 1736.46ZM2834.37 1707.93 2834.37 1681.78 2867.16 1681.78 2867.16 1707.93 2834.37 1707.93ZM2834.37 1679.4 2834.37 1653.25 2867.16 1653.25 2867.16 1679.4 2834.37 1679.4ZM2834.37 1650.87 2834.37 1624.72 2867.16 1624.72 2867.16 1650.87 2834.37 1650.87ZM2834.37 1622.34 2834.37 1596.19 2867.16 1596.19 2867.16 1622.34 2834.37 1622.34ZM2834.37 1593.81 2834.37 1567.66 2867.16 1567.66 2867.16 1593.81 2834.37 1593.81ZM2834.37 1565.29 2834.37 1539.13 2867.16 1539.13 2867.16 1565.29 2834.37 1565.29ZM2834.37 1536.76 2834.37 1510.61 2867.16 1510.61 2867.16 1536.76 2834.37 1536.76ZM2834.37 1508.23 2834.37 1482.08 2867.16 1482.08 2867.16 1508.23 2834.37 1508.23ZM2834.37 1479.7 2834.37 1453.55 2867.16 1453.55 2867.16 1479.7 2834.37 1479.7ZM2834.37 1451.17 2834.37 1425.02 2867.16 1425.02 2867.16 1451.17 2834.37 1451.17ZM2834.37 1422.64 2834.37 1396.49 2867.16 1396.49 2867.16 1422.64 2834.37 1422.64ZM2834.37 1394.11 2834.37 1367.96 2867.16 1367.96 2867.16 1394.11 2834.37 1394.11ZM2834.37 1365.58 2834.37 1339.43 2867.16 1339.43 2867.16 1365.58 2834.37 1365.58ZM2831.39 1365.58 2798.61 1365.58 2798.61 1339.43 2831.39 1339.43 2831.39 1365.58ZM2795.63 1365.58 2762.84 1365.58 2762.84 1339.43 2795.63 1339.43 2795.63 1365.58ZM2759.86 1365.58 2727.07 1365.58 2727.07 1339.43 2759.86 1339.43 2759.86 1365.58ZM2724.09 1365.58 2691.31 1365.58 2691.31 1339.43 2724.09 1339.43 2724.09 1365.58ZM2688.33 1365.58 2655.54 1365.58 2655.54 1339.43 2688.33 1339.43 2688.33 1365.58ZM2652.56 1365.58 2619.78 1365.58 2619.78 1339.43 2652.56 1339.43 2652.56 1365.58ZM2616.8 1365.58 2584.01 1365.58 2584.01 1339.43 2616.8 1339.43 2616.8 1365.58ZM2581.03 1365.58 2548.24 1365.58 2548.24 1339.43 2581.03 1339.43 2581.03 1365.58ZM2545.26 1365.58 2512.48 1365.58 2512.48 1339.43 2545.26 1339.43 2545.26 1365.58ZM2509.5 1365.58 2476.71 1365.58 2476.71 1339.43 2509.5 1339.43 2509.5 1365.58ZM2509.5 1367.96 2509.5 1394.11 2476.71 1394.11 2476.71 1367.96 2509.5 1367.96ZM2473.73 1394.11 2440.95 1394.11 2440.95 1367.96 2473.73 1367.96 2473.73 1394.11ZM2473.73 1396.49 2473.73 1422.64 2440.95 1422.64 2440.95 1396.49 2473.73 1396.49ZM2473.73 1425.02 2473.73 1451.17 2440.95 1451.17 2440.95 1425.02 2473.73 1425.02ZM2473.73 1453.55 2473.73 1479.7 2440.95 1479.7 2440.95 1453.55 2473.73 1453.55ZM2473.73 1482.08 2473.73 1508.23 2440.95 1508.23 2440.95 1482.08 2473.73 1482.08ZM2473.73 1510.61 2473.73 1536.76 2440.95 1536.76 2440.95 1510.61 2473.73 1510.61ZM2473.73 1539.13 2473.73 1565.29 2440.95 1565.29 2440.95 1539.13 2473.73 1539.13ZM2473.73 1567.66 2473.73 1593.81 2440.95 1593.81 2440.95 1567.66 2473.73 1567.66ZM2473.73 1596.19 2473.73 1622.34 2440.95 1622.34 2440.95 1596.19 2473.73 1596.19ZM2473.73 1624.72 2473.73 1650.87 2440.95 1650.87 2440.95 1624.72 2473.73 1624.72ZM2473.73 1653.25 2473.73 1679.4 2440.95 1679.4 2440.95 1653.25 2473.73 1653.25ZM2473.73 1681.78 2473.73 1707.93 2440.95 1707.93 2440.95 1681.78 2473.73 1681.78ZM2473.73 1710.3 2473.73 1736.46 2440.95 1736.46 2440.95 1710.3 2473.73 1710.3ZM2473.73 1738.83 2473.73 1764.98 2440.95 1764.98 2440.95 1738.83 2473.73 1738.83ZM2473.73 1767.36 2473.73 1793.51 2440.95 1793.51 2440.95 1767.36 2473.73 1767.36ZM2473.73 1795.89 2473.73 1822.04 2440.95 1822.04 2440.95 1795.89 2473.73 1795.89ZM2476.71 1795.89 2509.5 1795.89 2509.5 1822.04 2476.71 1822.04 2476.71 1795.89ZM2509.5 1824.42 2509.5 1850.57 2476.71 1850.57 2476.71 1824.42 2509.5 1824.42ZM2512.48 1824.42 2545.26 1824.42 2545.26 1850.57 2512.48 1850.57 2512.48 1824.42ZM2548.24 1824.42 2581.03 1824.42 2581.03 1850.57 2548.24 1850.57 2548.24 1824.42ZM2584.01 1824.42 2616.8 1824.42 2616.8 1850.57 2584.01 1850.57 2584.01 1824.42ZM2619.78 1824.42 2652.56 1824.42 2652.56 1850.57 2619.78 1850.57 2619.78 1824.42ZM2655.54 1824.42 2688.33 1824.42 2688.33 1850.57 2655.54 1850.57 2655.54 1824.42ZM2691.31 1824.42 2724.09 1824.42 2724.09 1850.57 2691.31 1850.57 2691.31 1824.42ZM2727.07 1824.42 2759.86 1824.42 2759.86 1850.57 2727.07 1850.57 2727.07 1824.42ZM2762.84 1824.42 2795.63 1824.42 2795.63 1850.57 2762.84 1850.57 2762.84 1824.42ZM2798.61 1824.42 2831.39 1824.42 2831.39 1850.57 2798.61 1850.57 2798.61 1824.42ZM2834.37 1824.42 2867.16 1824.42 2867.16 1850.57 2834.37 1850.57 2834.37 1824.42ZM2834.37 1822.04 2834.37 1795.89 2867.16 1795.89 2867.16 1822.04 2834.37 1822.04ZM2870.14 1795.89 2902.92 1795.89 2902.92 1822.04 2870.14 1822.04 2870.14 1795.89ZM2870.14 1793.51 2870.14 1767.36 2902.92 1767.36 2902.92 1793.51 2870.14 1793.51ZM2870.14 1764.98 2870.14 1738.83 2902.92 1738.83 2902.92 1764.98 2870.14 1764.98ZM2870.14 1736.46 2870.14 1710.3 2902.92 1710.3 2902.92 1736.46 2870.14 1736.46ZM2870.14 1707.93 2870.14 1681.78 2902.92 1681.78 2902.92 1707.93 2870.14 1707.93ZM2870.14 1679.4 2870.14 1653.25 2902.92 1653.25 2902.92 1679.4 2870.14 1679.4ZM2870.14 1650.87 2870.14 1624.72 2902.92 1624.72 2902.92 1650.87 2870.14 1650.87ZM2870.14 1622.34 2870.14 1596.19 2902.92 1596.19 2902.92 1622.34 2870.14 1622.34ZM2870.14 1593.81 2870.14 1567.66 2902.92 1567.66 2902.92 1593.81 2870.14 1593.81ZM2870.14 1565.29 2870.14 1539.13 2902.92 1539.13 2902.92 1565.29 2870.14 1565.29ZM2870.14 1536.76 2870.14 1510.61 2902.92 1510.61 2902.92 1536.76 2870.14 1536.76ZM2870.14 1508.23 2870.14 1482.08 2902.92 1482.08 2902.92 1508.23 2870.14 1508.23ZM2870.14 1479.7 2870.14 1453.55 2902.92 1453.55 2902.92 1479.7 2870.14 1479.7ZM2870.14 1451.17 2870.14 1425.02 2902.92 1425.02 2902.92 1451.17 2870.14 1451.17ZM2870.14 1422.64 2870.14 1396.49 2902.92 1396.49 2902.92 1422.64 2870.14 1422.64ZM2870.14 1394.11 2870.14 1367.96 2902.92 1367.96 2902.92 1394.11 2870.14 1394.11ZM2870.14 1365.58 2870.14 1339.43 2902.92 1339.43 2902.92 1365.58 2870.14 1365.58ZM2870.14 1337.06 2870.14 1310.91 2902.92 1310.91 2902.92 1337.06 2870.14 1337.06ZM2867.16 1337.06 2834.37 1337.06 2834.37 1310.91 2867.16 1310.91 2867.16 1337.06ZM2831.39 1337.06 2798.61 1337.06 2798.61 1310.91 2831.39 1310.91 2831.39 1337.06ZM2795.63 1337.06 2762.84 1337.06 2762.84 1310.91 2795.63 1310.91 2795.63 1337.06ZM2759.86 1337.06 2727.07 1337.06 2727.07 1310.91 2759.86 1310.91 2759.86 1337.06ZM2724.09 1337.06 2691.31 1337.06 2691.31 1310.91 2724.09 1310.91 2724.09 1337.06ZM2688.33 1337.06 2655.54 1337.06 2655.54 1310.91 2688.33 1310.91 2688.33 1337.06ZM2652.56 1337.06 2619.78 1337.06 2619.78 1310.91 2652.56 1310.91 2652.56 1337.06ZM2616.8 1337.06 2584.01 1337.06 2584.01 1310.91 2616.8 1310.91 2616.8 1337.06ZM2581.03 1337.06 2548.24 1337.06 2548.24 1310.91 2581.03 1310.91 2581.03 1337.06ZM2545.26 1337.06 2512.48 1337.06 2512.48 1310.91 2545.26 1310.91 2545.26 1337.06ZM2509.5 1337.06 2476.71 1337.06 2476.71 1310.91 2509.5 1310.91 2509.5 1337.06ZM2473.73 1337.06 2440.95 1337.06 2440.95 1310.91 2473.73 1310.91 2473.73 1337.06ZM2473.73 1339.43 2473.73 1365.58 2440.95 1365.58 2440.95 1339.43 2473.73 1339.43ZM2437.97 1365.58 2405.18 1365.58 2405.18 1339.43 2437.97 1339.43 2437.97 1365.58ZM2437.97 1367.96 2437.97 1394.11 2405.18 1394.11 2405.18 1367.96 2437.97 1367.96ZM2437.97 1396.49 2437.97 1422.64 2405.18 1422.64 2405.18 1396.49 2437.97 1396.49ZM2437.97 1425.02 2437.97 1451.17 2405.18 1451.17 2405.18 1425.02 2437.97 1425.02ZM2437.97 1453.55 2437.97 1479.7 2405.18 1479.7 2405.18 1453.55 2437.97 1453.55ZM2437.97 1482.08 2437.97 1508.23 2405.18 1508.23 2405.18 1482.08 2437.97 1482.08ZM2437.97 1510.61 2437.97 1536.76 2405.18 1536.76 2405.18 1510.61 2437.97 1510.61ZM2437.97 1539.13 2437.97 1565.29 2405.18 1565.29 2405.18 1539.13 2437.97 1539.13ZM2437.97 1567.66 2437.97 1593.81 2405.18 1593.81 2405.18 1567.66 2437.97 1567.66ZM2437.97 1596.19 2437.97 1622.34 2405.18 1622.34 2405.18 1596.19 2437.97 1596.19ZM2437.97 1624.72 2437.97 1650.87 2405.18 1650.87 2405.18 1624.72 2437.97 1624.72ZM2437.97 1653.25 2437.97 1679.4 2405.18 1679.4 2405.18 1653.25 2437.97 1653.25ZM2437.97 1681.78 2437.97 1707.93 2405.18 1707.93 2405.18 1681.78 2437.97 1681.78ZM2437.97 1710.3 2437.97 1736.46 2405.18 1736.46 2405.18 1710.3 2437.97 1710.3ZM2437.97 1738.83 2437.97 1764.98 2405.18 1764.98 2405.18 1738.83 2437.97 1738.83ZM2437.97 1767.36 2437.97 1793.51 2405.18 1793.51 2405.18 1767.36 2437.97 1767.36ZM2437.97 1795.89 2437.97 1822.04 2405.18 1822.04 2405.18 1795.89 2437.97 1795.89ZM2437.97 1824.42 2437.97 1850.57 2405.18 1850.57 2405.18 1824.42 2437.97 1824.42ZM2440.95 1824.42 2473.73 1824.42 2473.73 1850.57 2440.95 1850.57 2440.95 1824.42ZM2473.73 1852.95 2473.73 1879.1 2440.95 1879.1 2440.95 1852.95 2473.73 1852.95ZM2476.71 1852.95 2509.5 1852.95 2509.5 1879.1 2476.71 1879.1 2476.71 1852.95ZM2512.48 1852.95 2545.26 1852.95 2545.26 1879.1 2512.48 1879.1 2512.48 1852.95ZM2548.24 1852.95 2581.03 1852.95 2581.03 1879.1 2548.24 1879.1 2548.24 1852.95ZM2584.01 1852.95 2616.8 1852.95 2616.8 1879.1 2584.01 1879.1 2584.01 1852.95ZM2619.78 1852.95 2652.56 1852.95 2652.56 1879.1 2619.78 1879.1 2619.78 1852.95ZM2655.54 1852.95 2688.33 1852.95 2688.33 1879.1 2655.54 1879.1 2655.54 1852.95ZM2691.31 1852.95 2724.09 1852.95 2724.09 1879.1 2691.31 1879.1 2691.31 1852.95ZM2727.07 1852.95 2759.86 1852.95 2759.86 1879.1 2727.07 1879.1 2727.07 1852.95ZM2762.84 1852.95 2795.63 1852.95 2795.63 1879.1 2762.84 1879.1 2762.84 1852.95ZM2798.61 1852.95 2831.39 1852.95 2831.39 1879.1 2798.61 1879.1 2798.61 1852.95ZM2834.37 1852.95 2867.16 1852.95 2867.16 1879.1 2834.37 1879.1 2834.37 1852.95ZM2870.14 1852.95 2902.92 1852.95 2902.92 1879.1 2870.14 1879.1 2870.14 1852.95ZM2870.14 1850.57 2870.14 1824.42 2902.92 1824.42 2902.92 1850.57 2870.14 1850.57ZM2905.9 1824.42 2938.69 1824.42 2938.69 1850.57 2905.9 1850.57 2905.9 1824.42ZM2905.9 1822.04 2905.9 1795.89 2938.69 1795.89 2938.69 1822.04 2905.9 1822.04ZM2905.9 1793.51 2905.9 1767.36 2938.69 1767.36 2938.69 1793.51 2905.9 1793.51ZM2905.9 1764.98 2905.9 1738.83 2938.69 1738.83 2938.69 1764.98 2905.9 1764.98ZM2905.9 1736.46 2905.9 1710.3 2938.69 1710.3 2938.69 1736.46 2905.9 1736.46ZM2905.9 1707.93 2905.9 1681.78 2938.69 1681.78 2938.69 1707.93 2905.9 1707.93ZM2905.9 1679.4 2905.9 1653.25 2938.69 1653.25 2938.69 1679.4 2905.9 1679.4ZM2905.9 1650.87 2905.9 1624.72 2938.69 1624.72 2938.69 1650.87 2905.9 1650.87ZM2905.9 1622.34 2905.9 1596.19 2938.69 1596.19 2938.69 1622.34 2905.9 1622.34ZM2905.9 1593.81 2905.9 1567.66 2938.69 1567.66 2938.69 1593.81 2905.9 1593.81ZM2905.9 1565.29 2905.9 1539.13 2938.69 1539.13 2938.69 1565.29 2905.9 1565.29ZM2905.9 1536.76 2905.9 1510.61 2938.69 1510.61 2938.69 1536.76 2905.9 1536.76ZM2905.9 1508.23 2905.9 1482.08 2938.69 1482.08 2938.69 1508.23 2905.9 1508.23ZM2905.9 1479.7 2905.9 1453.55 2938.69 1453.55 2938.69 1479.7 2905.9 1479.7ZM2905.9 1451.17 2905.9 1425.02 2938.69 1425.02 2938.69 1451.17 2905.9 1451.17ZM2905.9 1422.64 2905.9 1396.49 2938.69 1396.49 2938.69 1422.64 2905.9 1422.64ZM2905.9 1394.11 2905.9 1367.96 2938.69 1367.96 2938.69 1394.11 2905.9 1394.11ZM2905.9 1365.58 2905.9 1339.43 2938.69 1339.43 2938.69 1365.58 2905.9 1365.58ZM2905.9 1337.06 2905.9 1310.91 2938.69 1310.91 2938.69 1337.06 2905.9 1337.06ZM2905.9 1308.53 2905.9 1282.38 2938.69 1282.38 2938.69 1308.53 2905.9 1308.53ZM2902.92 1308.53 2870.14 1308.53 2870.14 1282.38 2902.92 1282.38 2902.92 1308.53ZM2867.16 1308.53 2834.37 1308.53 2834.37 1282.38 2867.16 1282.38 2867.16 1308.53ZM2831.39 1308.53 2798.61 1308.53 2798.61 1282.38 2831.39 1282.38 2831.39 1308.53ZM2795.63 1308.53 2762.84 1308.53 2762.84 1282.38 2795.63 1282.38 2795.63 1308.53ZM2759.86 1308.53 2727.07 1308.53 2727.07 1282.38 2759.86 1282.38 2759.86 1308.53ZM2724.09 1308.53 2691.31 1308.53 2691.31 1282.38 2724.09 1282.38 2724.09 1308.53ZM2688.33 1308.53 2655.54 1308.53 2655.54 1282.38 2688.33 1282.38 2688.33 1308.53ZM2652.56 1308.53 2619.78 1308.53 2619.78 1282.38 2652.56 1282.38 2652.56 1308.53ZM2616.8 1308.53 2584.01 1308.53 2584.01 1282.38 2616.8 1282.38 2616.8 1308.53ZM2581.03 1308.53 2548.24 1308.53 2548.24 1282.38 2581.03 1282.38 2581.03 1308.53ZM2545.26 1308.53 2512.48 1308.53 2512.48 1282.38 2545.26 1282.38 2545.26 1308.53ZM2509.5 1308.53 2476.71 1308.53 2476.71 1282.38 2509.5 1282.38 2509.5 1308.53ZM2473.73 1308.53 2440.95 1308.53 2440.95 1282.38 2473.73 1282.38 2473.73 1308.53ZM2437.97 1308.53 2405.18 1308.53 2405.18 1282.38 2437.97 1282.38 2437.97 1308.53ZM2437.97 1310.91 2437.97 1337.06 2405.18 1337.06 2405.18 1310.91 2437.97 1310.91ZM2402.2 1337.06 2368.98 1337.06 2368.98 1310.91 2402.2 1310.91 2402.2 1337.06ZM2368.98 1339.43 2402.2 1339.43 2402.2 1365.58 2368.98 1365.58 2368.98 1339.43ZM2402.2 1367.96 2402.2 1394.11 2368.98 1394.11 2368.98 1367.96 2402.2 1367.96ZM2368.98 1396.49 2402.2 1396.49 2402.2 1422.64 2368.98 1422.64 2368.98 1396.49ZM2402.2 1425.02 2402.2 1451.17 2368.98 1451.17 2368.98 1425.02 2402.2 1425.02ZM2368.98 1453.55 2402.2 1453.55 2402.2 1479.7 2368.98 1479.7 2368.98 1453.55ZM2402.2 1482.08 2402.2 1508.23 2368.98 1508.23 2368.98 1482.08 2402.2 1482.08ZM2368.98 1510.61 2402.2 1510.61 2402.2 1536.76 2368.98 1536.76 2368.98 1510.61ZM2402.2 1539.13 2402.2 1565.29 2368.98 1565.29 2368.98 1539.13 2402.2 1539.13ZM2368.98 1567.66 2402.2 1567.66 2402.2 1593.81 2368.98 1593.81 2368.98 1567.66ZM2402.2 1596.19 2402.2 1622.34 2368.98 1622.34 2368.98 1596.19 2402.2 1596.19ZM2368.98 1624.72 2402.2 1624.72 2402.2 1650.87 2368.98 1650.87 2368.98 1624.72ZM2402.2 1653.25 2402.2 1679.4 2368.98 1679.4 2368.98 1653.25 2402.2 1653.25ZM2368.98 1681.78 2402.2 1681.78 2402.2 1707.93 2368.98 1707.93 2368.98 1681.78ZM2402.2 1710.3 2402.2 1736.46 2368.98 1736.46 2368.98 1710.3 2402.2 1710.3ZM2368.98 1738.83 2402.2 1738.83 2402.2 1764.98 2368.98 1764.98 2368.98 1738.83ZM2402.2 1767.36 2402.2 1793.51 2368.98 1793.51 2368.98 1767.36 2402.2 1767.36ZM2368.98 1795.89 2402.2 1795.89 2402.2 1822.04 2368.98 1822.04 2368.98 1795.89ZM2402.2 1824.42 2402.2 1850.57 2368.98 1850.57 2368.98 1824.42 2402.2 1824.42ZM2368.98 1852.95 2402.2 1852.95 2402.2 1879.1 2368.98 1879.1 2368.98 1852.95ZM2405.18 1852.95 2437.97 1852.95 2437.97 1879.1 2405.18 1879.1 2405.18 1852.95ZM2437.97 1881.47 2437.97 1907.62 2405.18 1907.62 2405.18 1881.47 2437.97 1881.47ZM2440.95 1881.47 2473.73 1881.47 2473.73 1907.62 2440.95 1907.62 2440.95 1881.47ZM2476.71 1881.47 2509.5 1881.47 2509.5 1907.62 2476.71 1907.62 2476.71 1881.47ZM2512.48 1881.47 2545.26 1881.47 2545.26 1907.62 2512.48 1907.62 2512.48 1881.47ZM2548.24 1881.47 2581.03 1881.47 2581.03 1907.62 2548.24 1907.62 2548.24 1881.47ZM2584.01 1881.47 2616.8 1881.47 2616.8 1907.62 2584.01 1907.62 2584.01 1881.47ZM2619.78 1881.47 2652.56 1881.47 2652.56 1907.62 2619.78 1907.62 2619.78 1881.47ZM2655.54 1881.47 2688.33 1881.47 2688.33 1907.62 2655.54 1907.62 2655.54 1881.47ZM2691.31 1881.47 2724.09 1881.47 2724.09 1907.62 2691.31 1907.62 2691.31 1881.47ZM2727.07 1881.47 2759.86 1881.47 2759.86 1907.62 2727.07 1907.62 2727.07 1881.47ZM2762.84 1881.47 2795.63 1881.47 2795.63 1907.62 2762.84 1907.62 2762.84 1881.47ZM2798.61 1881.47 2831.39 1881.47 2831.39 1907.62 2798.61 1907.62 2798.61 1881.47ZM2834.37 1881.47 2867.16 1881.47 2867.16 1907.62 2834.37 1907.62 2834.37 1881.47ZM2870.14 1881.47 2902.92 1881.47 2902.92 1907.62 2870.14 1907.62 2870.14 1881.47ZM2905.9 1881.47 2938.69 1881.47 2938.69 1907.62 2905.9 1907.62 2905.9 1881.47ZM2905.9 1879.1 2905.9 1852.95 2938.69 1852.95 2938.69 1879.1 2905.9 1879.1ZM2941.67 1852.95 2974.02 1852.95 2974.02 1879.1 2941.67 1879.1 2941.67 1852.95ZM2941.67 1850.57 2941.67 1824.42 2974.02 1824.42 2974.02 1850.57 2941.67 1850.57ZM2974.02 1822.04 2941.67 1822.04 2941.67 1795.89 2974.02 1795.89 2974.02 1822.04ZM2941.67 1793.51 2941.67 1767.36 2974.02 1767.36 2974.02 1793.51 2941.67 1793.51ZM2974.02 1764.98 2941.67 1764.98 2941.67 1738.83 2974.02 1738.83 2974.02 1764.98ZM2941.67 1736.46 2941.67 1710.3 2974.02 1710.3 2974.02 1736.46 2941.67 1736.46ZM2974.02 1707.93 2941.67 1707.93 2941.67 1681.78 2974.02 1681.78 2974.02 1707.93ZM2941.67 1679.4 2941.67 1653.25 2974.02 1653.25 2974.02 1679.4 2941.67 1679.4ZM2974.02 1650.87 2941.67 1650.87 2941.67 1624.72 2974.02 1624.72 2974.02 1650.87ZM2941.67 1622.34 2941.67 1596.19 2974.02 1596.19 2974.02 1622.34 2941.67 1622.34ZM2974.02 1593.81 2941.67 1593.81 2941.67 1567.66 2974.02 1567.66 2974.02 1593.81ZM2941.67 1565.29 2941.67 1539.13 2974.02 1539.13 2974.02 1565.29 2941.67 1565.29ZM2974.02 1536.76 2941.67 1536.76 2941.67 1510.61 2974.02 1510.61 2974.02 1536.76ZM2941.67 1508.23 2941.67 1482.08 2974.02 1482.08 2974.02 1508.23 2941.67 1508.23ZM2974.02 1479.7 2941.67 1479.7 2941.67 1453.55 2974.02 1453.55 2974.02 1479.7ZM2941.67 1451.17 2941.67 1425.02 2974.02 1425.02 2974.02 1451.17 2941.67 1451.17ZM2974.02 1422.64 2941.67 1422.64 2941.67 1396.49 2974.02 1396.49 2974.02 1422.64ZM2941.67 1394.11 2941.67 1367.96 2974.02 1367.96 2974.02 1394.11 2941.67 1394.11ZM2974.02 1365.58 2941.67 1365.58 2941.67 1339.43 2974.02 1339.43 2974.02 1365.58ZM2941.67 1337.06 2941.67 1310.91 2974.02 1310.91 2974.02 1337.06 2941.67 1337.06ZM2974.02 1308.53 2941.67 1308.53 2941.67 1282.38 2974.02 1282.38 2974.02 1308.53ZM2402.2 1282.38 2402.2 1308.53 2368.98 1308.53 2368.98 1282.38 2402.2 1282.38ZM2368.98 1881.47 2402.2 1881.47 2402.2 1907.62 2368.98 1907.62 2368.98 1881.47ZM2941.67 1907.62 2941.67 1881.47 2974.02 1881.47 2974.02 1907.62 2941.67 1907.62Z" fill="#F2F2F2" fill-rule="evenodd"/><path d="M2439 1170C2439 1177.73 2430.94 1184 2421 1184 2411.06 1184 2403 1177.73 2403 1170 2403 1162.27 2411.06 1156 2421 1156 2430.94 1156 2439 1162.27 2439 1170" fill="#FFFFFF" fill-rule="evenodd"/><path d="M2940 1170C2940 1177.73 2931.94 1184 2922 1184 2912.06 1184 2904 1177.73 2904 1170 2904 1162.27 2912.06 1156 2922 1156 2931.94 1156 2940 1162.27 2940 1170" fill="#FFFFFF" fill-rule="evenodd"/><path d="M1142 2052 1862 2052 1862 1478 1142 2052ZM1722.79 1946.23 1462.52 1946.23 1722.79 1751.33 1722.79 1946.23Z" fill="#737373" fill-rule="evenodd"/><path d="M1835 1710 1862 1710 1862 1712 1835 1712Z" fill="#D2D2D2" fill-rule="evenodd"/><path d="M1835 1722 1862 1722 1862 1724 1835 1724Z" fill="#D2D2D2" fill-rule="evenodd"/><path d="M1835 1734 1862 1734 1862 1736 1835 1736Z" fill="#D2D2D2" fill-rule="evenodd"/><path d="M1814 1746 1862 1746 1862 1748 1814 1748Z" fill="#D2D2D2" fill-rule="evenodd"/><path d="M1835 1758 1862 1758 1862 1760 1835 1760Z" fill="#D2D2D2" fill-rule="evenodd"/><path d="M1835 1770 1862 1770 1862 1772 1835 1772Z" fill="#D2D2D2" fill-rule="evenodd"/><path d="M1835 1781 1862 1781 1862 1784 1835 1784Z" fill="#D2D2D2" fill-rule="evenodd"/><path d="M1814 1793 1862 1793 1862 1796 1814 1796Z" fill="#D2D2D2" fill-rule="evenodd"/><path d="M1835 1805 1862 1805 1862 1808 1835 1808Z" fill="#D2D2D2" fill-rule="evenodd"/><path d="M1835 1817 1862 1817 1862 1819 1835 1819Z" fill="#D2D2D2" fill-rule="evenodd"/><path d="M1835 1829 1862 1829 1862 1831 1835 1831Z" fill="#D2D2D2" fill-rule="evenodd"/><path d="M1814 1841 1862 1841 1862 1843 1814 1843Z" fill="#D2D2D2" fill-rule="evenodd"/><path d="M1835 1853 1862 1853 1862 1855 1835 1855Z" fill="#D2D2D2" fill-rule="evenodd"/><path d="M1835 1865 1862 1865 1862 1867 1835 1867Z" fill="#D2D2D2" fill-rule="evenodd"/><path d="M1835 1876 1862 1876 1862 1879 1835 1879Z" fill="#D2D2D2" fill-rule="evenodd"/><path d="M1814 1888 1862 1888 1862 1891 1814 1891Z" fill="#D2D2D2" fill-rule="evenodd"/><path d="M1835 1900 1862 1900 1862 1903 1835 1903Z" fill="#D2D2D2" fill-rule="evenodd"/><path d="M1835 1912 1862 1912 1862 1914 1835 1914Z" fill="#D2D2D2" fill-rule="evenodd"/><path d="M1835 1924 1862 1924 1862 1926 1835 1926Z" fill="#D2D2D2" fill-rule="evenodd"/><path d="M1814 1936 1862 1936 1862 1938 1814 1938Z" fill="#D2D2D2" fill-rule="evenodd"/><path d="M1835 1948 1862 1948 1862 1950 1835 1950Z" fill="#D2D2D2" fill-rule="evenodd"/><path d="M1835 1960 1862 1960 1862 1962 1835 1962Z" fill="#D2D2D2" fill-rule="evenodd"/><path d="M1835 1972 1862 1972 1862 1974 1835 1974Z" fill="#D2D2D2" fill-rule="evenodd"/><path d="M1814 1983 1862 1983 1862 1986 1814 1986Z" fill="#D2D2D2" fill-rule="evenodd"/><path d="M1835 1995 1862 1995 1862 1998 1835 1998Z" fill="#D2D2D2" fill-rule="evenodd"/><path d="M1835 2007 1862 2007 1862 2010 1835 2010Z" fill="#D2D2D2" fill-rule="evenodd"/><path d="M1835 2019 1862 2019 1862 2021 1835 2021Z" fill="#D2D2D2" fill-rule="evenodd"/><path d="M1814 2031 1862 2031 1862 2033 1814 2033Z" fill="#D2D2D2" fill-rule="evenodd"/><path d="M1835 1520 1862 1520 1862 1522 1835 1522Z" fill="#D2D2D2" fill-rule="evenodd"/><path d="M1835 1532 1862 1532 1862 1534 1835 1534Z" fill="#D2D2D2" fill-rule="evenodd"/><path d="M1835 1544 1862 1544 1862 1546 1835 1546Z" fill="#D2D2D2" fill-rule="evenodd"/><path d="M1814 1556 1862 1556 1862 1558 1814 1558Z" fill="#D2D2D2" fill-rule="evenodd"/><path d="M1835 1567 1862 1567 1862 1570 1835 1570Z" fill="#D2D2D2" fill-rule="evenodd"/><path d="M1835 1579 1862 1579 1862 1582 1835 1582Z" fill="#D2D2D2" fill-rule="evenodd"/><path d="M1835 1591 1862 1591 1862 1594 1835 1594Z" fill="#D2D2D2" fill-rule="evenodd"/><path d="M1814 1603 1862 1603 1862 1606 1814 1606Z" fill="#D2D2D2" fill-rule="evenodd"/><path d="M1835 1615 1862 1615 1862 1617 1835 1617Z" fill="#D2D2D2" fill-rule="evenodd"/><path d="M1835 1627 1862 1627 1862 1629 1835 1629Z" fill="#D2D2D2" fill-rule="evenodd"/><path d="M1835 1639 1862 1639 1862 1641 1835 1641Z" fill="#D2D2D2" fill-rule="evenodd"/><path d="M1814 1651 1862 1651 1862 1653 1814 1653Z" fill="#D2D2D2" fill-rule="evenodd"/><path d="M1835 1663 1862 1663 1862 1665 1835 1665Z" fill="#D2D2D2" fill-rule="evenodd"/><path d="M1835 1674 1862 1674 1862 1677 1835 1677Z" fill="#D2D2D2" fill-rule="evenodd"/><path d="M1835 1686 1862 1686 1862 1689 1835 1689Z" fill="#D2D2D2" fill-rule="evenodd"/><path d="M1814 1698 1862 1698 1862 1701 1814 1701Z" fill="#D2D2D2" fill-rule="evenodd"/><path d="M3095.89 2093 2812.11 2093C2798.79 2093 2788 2084.39 2788 2073.77L2788 1600.24C2788 1589.61 2798.79 1581 2812.11 1581L3095.89 1581C3109.21 1581 3120 1589.61 3120 1600.24L3120 2073.77C3120 2084.39 3109.21 2093 3095.89 2093" fill="#737373" fill-rule="evenodd"/><path d="M3112.89 2080 2829.11 2080C2815.79 2080 2805 2071.41 2805 2060.8L2805 1588.2C2805 1577.59 2815.79 1569 2829.11 1569L3112.89 1569C3126.21 1569 3137 1577.59 3137 1588.2L3137 2060.8C3137 2071.41 3126.21 2080 3112.89 2080" fill="#505050" fill-rule="evenodd"/><path d="M2868 1761.5C2868 1766.75 2862.85 1771 2856.5 1771 2850.15 1771 2845 1766.75 2845 1761.5 2845 1756.25 2850.15 1752 2856.5 1752 2862.85 1752 2868 1756.25 2868 1761.5" fill="#CFCFCF" fill-rule="evenodd"/><path d="M2925 1761.5C2925 1766.75 2919.85 1771 2913.5 1771 2907.15 1771 2902 1766.75 2902 1761.5 2902 1756.25 2907.15 1752 2913.5 1752 2919.85 1752 2925 1756.25 2925 1761.5" fill="#737373" fill-rule="evenodd"/><path d="M2877 1838C2877 1845.73 2869.39 1852 2860 1852 2850.61 1852 2843 1845.73 2843 1838 2843 1830.27 2850.61 1824 2860 1824 2869.39 1824 2877 1830.27 2877 1838" fill="#737373" fill-rule="evenodd"/><path d="M2934 1838C2934 1845.73 2926.16 1852 2916.5 1852 2906.83 1852 2899 1845.73 2899 1838 2899 1830.27 2906.83 1824 2916.5 1824 2926.16 1824 2934 1830.27 2934 1838" fill="#737373" fill-rule="evenodd"/><path d="M2990 1838C2990 1845.73 2982.16 1852 2972.5 1852 2962.84 1852 2955 1845.73 2955 1838 2955 1830.27 2962.84 1824 2972.5 1824 2982.16 1824 2990 1830.27 2990 1838" fill="#737373" fill-rule="evenodd"/><path d="M3046 1838C3046 1845.73 3038.39 1852 3029 1852 3019.61 1852 3012 1845.73 3012 1838 3012 1830.27 3019.61 1824 3029 1824 3038.39 1824 3046 1830.27 3046 1838" fill="#737373" fill-rule="evenodd"/><path d="M3103 1838C3103 1845.73 3095.16 1852 3085.5 1852 3075.84 1852 3068 1845.73 3068 1838 3068 1830.27 3075.84 1824 3085.5 1824 3095.16 1824 3103 1830.27 3103 1838" fill="#737373" fill-rule="evenodd"/><path d="M2877 1881.5C2877 1888.96 2869.39 1895 2860 1895 2850.61 1895 2843 1888.96 2843 1881.5 2843 1874.05 2850.61 1868 2860 1868 2869.39 1868 2877 1874.05 2877 1881.5" fill="#CFCFCF" fill-rule="evenodd"/><path d="M2934 1881.5C2934 1888.96 2926.16 1895 2916.5 1895 2906.83 1895 2899 1888.96 2899 1881.5 2899 1874.05 2906.83 1868 2916.5 1868 2926.16 1868 2934 1874.05 2934 1881.5" fill="#737373" fill-rule="evenodd"/><path d="M2990 1881.5C2990 1888.96 2982.16 1895 2972.5 1895 2962.84 1895 2955 1888.96 2955 1881.5 2955 1874.05 2962.84 1868 2972.5 1868 2982.16 1868 2990 1874.05 2990 1881.5" fill="#737373" fill-rule="evenodd"/><path d="M3046 1881.5C3046 1888.96 3038.39 1895 3029 1895 3019.61 1895 3012 1888.96 3012 1881.5 3012 1874.05 3019.61 1868 3029 1868 3038.39 1868 3046 1874.05 3046 1881.5" fill="#737373" fill-rule="evenodd"/><path d="M3103 1881.5C3103 1888.96 3095.16 1895 3085.5 1895 3075.84 1895 3068 1888.96 3068 1881.5 3068 1874.05 3075.84 1868 3085.5 1868 3095.16 1868 3103 1874.05 3103 1881.5" fill="#CFCFCF" fill-rule="evenodd"/><path d="M2877 1925C2877 1932.73 2869.39 1939 2860 1939 2850.61 1939 2843 1932.73 2843 1925 2843 1917.27 2850.61 1911 2860 1911 2869.39 1911 2877 1917.27 2877 1925" fill="#CFCFCF" fill-rule="evenodd"/><path d="M2934 1925C2934 1932.73 2926.16 1939 2916.5 1939 2906.83 1939 2899 1932.73 2899 1925 2899 1917.27 2906.83 1911 2916.5 1911 2926.16 1911 2934 1917.27 2934 1925" fill="#737373" fill-rule="evenodd"/><path d="M2990 1925C2990 1932.73 2982.16 1939 2972.5 1939 2962.84 1939 2955 1932.73 2955 1925 2955 1917.27 2962.84 1911 2972.5 1911 2982.16 1911 2990 1917.27 2990 1925" fill="#737373" fill-rule="evenodd"/><path d="M3046 1925C3046 1932.73 3038.39 1939 3029 1939 3019.61 1939 3012 1932.73 3012 1925 3012 1917.27 3019.61 1911 3029 1911 3038.39 1911 3046 1917.27 3046 1925" fill="#737373" fill-rule="evenodd"/><path d="M3103 1925C3103 1932.73 3095.16 1939 3085.5 1939 3075.84 1939 3068 1932.73 3068 1925 3068 1917.27 3075.84 1911 3085.5 1911 3095.16 1911 3103 1917.27 3103 1925" fill="#CFCFCF" fill-rule="evenodd"/><path d="M2877 1969C2877 1976.73 2869.39 1983 2860 1983 2850.61 1983 2843 1976.73 2843 1969 2843 1961.27 2850.61 1955 2860 1955 2869.39 1955 2877 1961.27 2877 1969" fill="#CFCFCF" fill-rule="evenodd"/><path d="M2934 1969C2934 1976.73 2926.16 1983 2916.5 1983 2906.83 1983 2899 1976.73 2899 1969 2899 1961.27 2906.83 1955 2916.5 1955 2926.16 1955 2934 1961.27 2934 1969" fill="#737373" fill-rule="evenodd"/><path d="M2990 1969C2990 1976.73 2982.16 1983 2972.5 1983 2962.84 1983 2955 1976.73 2955 1969 2955 1961.27 2962.84 1955 2972.5 1955 2982.16 1955 2990 1961.27 2990 1969" fill="#737373" fill-rule="evenodd"/><path d="M3046 1969C3046 1976.73 3038.39 1983 3029 1983 3019.61 1983 3012 1976.73 3012 1969 3012 1961.27 3019.61 1955 3029 1955 3038.39 1955 3046 1961.27 3046 1969" fill="#737373" fill-rule="evenodd"/><path d="M3103 1969C3103 1976.73 3095.16 1983 3085.5 1983 3075.84 1983 3068 1976.73 3068 1969 3068 1961.27 3075.84 1955 3085.5 1955 3095.16 1955 3103 1961.27 3103 1969" fill="#CFCFCF" fill-rule="evenodd"/><path d="M2877 2012.5C2877 2019.96 2869.39 2026 2860 2026 2850.61 2026 2843 2019.96 2843 2012.5 2843 2005.05 2850.61 1999 2860 1999 2869.39 1999 2877 2005.05 2877 2012.5" fill="#CFCFCF" fill-rule="evenodd"/><path d="M2934 2012.5C2934 2019.96 2926.16 2026 2916.5 2026 2906.83 2026 2899 2019.96 2899 2012.5 2899 2005.05 2906.83 1999 2916.5 1999 2926.16 1999 2934 2005.05 2934 2012.5" fill="#737373" fill-rule="evenodd"/><path d="M2990 2012.5C2990 2019.96 2982.16 2026 2972.5 2026 2962.84 2026 2955 2019.96 2955 2012.5 2955 2005.05 2962.84 1999 2972.5 1999 2982.16 1999 2990 2005.05 2990 2012.5" fill="#CFCFCF" fill-rule="evenodd"/><path d="M3046 2012.5C3046 2019.96 3038.39 2026 3029 2026 3019.61 2026 3012 2019.96 3012 2012.5 3012 2005.05 3019.61 1999 3029 1999 3038.39 1999 3046 2005.05 3046 2012.5" fill="#BF9000" fill-rule="evenodd"/><path d="M3103 2012.5C3103 2019.96 3095.16 2026 3085.5 2026 3075.84 2026 3068 2019.96 3068 2012.5 3068 2005.05 3075.84 1999 3085.5 1999 3095.16 1999 3103 2005.05 3103 2012.5" fill="#CFCFCF" fill-rule="evenodd"/><path d="M2835 1640 3112 1640 3112 1720 2835 1720Z" fill="#CFCFCF" fill-rule="evenodd"/><path d="M2833 1607 2903 1607 2903 1619 2833 1619Z" fill="#CFCFCF" fill-rule="evenodd"/><path d="M2665.26 1900.8 2670.01 1897.01 2636.9 1870.62 2651.13 1859.27 2518.19 1753.29C2512.95 1757.47 2512.95 1764.24 2518.19 1768.42L2632.15 1859.27 2627.41 1863.05 2287.25 1591.89 2222.28 1557.75 2220.72 1559 2208.18 1549 2205 1551.53 2217.54 1561.53 2215.96 1562.79 2258.78 1614.58 2641.53 1919.71 2646.28 1915.93 2689.02 1950 2708 1934.87 2665.26 1900.8Z" fill="#D2D2D2" fill-rule="evenodd"/><path d="M2650.11 1898.79 2669.09 1879.81 2703.15 1913.87 2684.17 1932.84Z" fill="#737373" fill-rule="evenodd"/><path d="M2297.2 1598.52 2325.66 1570.06 2630.67 1875.06 2602.2 1903.53Z" fill="#BF9000" fill-rule="evenodd"/><path d="M2651 1839.99 2517.94 1734C2512.69 1738.18 2512.69 1744.95 2517.94 1749.13L2632 1839.99 2627.25 1843.78 2617.68 1836.15 2589.16 1858.87 2608.16 1874 2651 1839.99Z" fill="#737373" fill-rule="evenodd"/><path d="M2216 1544.06 2258.64 1596 2287 1573.24 2222.3 1539Z" fill="#737373" fill-rule="evenodd"/><path d="M2205.87 1533.01 2209.05 1529.83 2219.05 1539.82 2215.87 1543Z" fill="#505050" fill-rule="evenodd"/><path d="M2062 1613 2012 1613C2012.01 1621.12 2012 2096.75 2012 2096.75L2016.32 2096.75 2016.32 2110 2057.65 2110 2057.65 2096.75 2062 2096.75 2062 1613Z" fill="#737373" fill-rule="evenodd"/><path d="M2026 2082 2066 2082 2066 2098 2026 2098Z" fill="#2F2F2F" fill-rule="evenodd"/><path d="M2021 1632 2070 1632 2070 2085 2021 2085Z" fill="#E6E6E6" fill-rule="evenodd"/><path d="M2021 1602 2070 1602 2070 1632 2021 1632Z" fill="#505050" fill-rule="evenodd"/><path d="M2021 1771 2070 1771 2070 1783 2021 1783Z" fill="#737373" fill-rule="evenodd"/><path d="M2021 1790 2070 1790 2070 1792 2021 1792Z" fill="#F2F2F2" fill-rule="evenodd"/><path d="M2079.51 1632C2079.45 1632 2079.06 1632 2079.06 1632L2021 1632 2021 1642.71 2079.51 1642.71 2079.51 1771.29C2079.51 1777.2 2085.55 1782 2093 1782L2093 1642.71C2093 1636.79 2086.96 1632 2079.51 1632Z" fill="#737373" fill-rule="evenodd"/><path d="M1977.18 1152.95 1548.68 1494.1 1551.85 1496.62 1522 1520.38 1544.13 1538 1573.98 1514.24 1577.14 1516.76 2005.64 1175.61 2042 1124Z" fill="#737373" fill-rule="evenodd"/><path d="M1524.69 1513.95 1557.59 1481.05 1575.23 1498.71 1542.34 1531.6Z" fill="#BF9000" fill-rule="evenodd"/><path d="M1551.91 1489.21 1600.64 1440.48 1623.33 1463.17 1574.6 1511.9Z" fill="#F2F2F2" fill-rule="evenodd"/><path d="M1597.85 1486.49 1980.52 1103.82 2003.21 1126.5 1620.53 1509.18Z" fill="#505050" fill-rule="evenodd"/><path d="M2042 1114 2024.53 1122.11 2024 1122.4 2031.8 1129 2032.2 1128.46Z" fill="#505050" fill-rule="evenodd"/><path d="M1991.69 1154.52C1991.72 1154.5 1991.73 1154.51 1991.71 1154.53 1988.13 1157.68 1988.23 1162.59 1992.01 1165.64 1995.91 1168.79 2002.22 1168.79 2006.11 1165.64L2006.11 1165.64 2032 1128.4 2024.07 1122 1977.92 1142.89C1974.03 1146.03 1974.03 1151.13 1977.92 1154.27 1981.7 1157.33 1987.78 1157.41 1991.69 1154.52Z" fill="#FFFFFF" fill-rule="evenodd"/><path d="M1231 1065 1499 1065 1499 1279 1231 1279Z" fill="#737373" fill-rule="evenodd"/><path d="M1215.56 1100.68 1405.33 910.908 1556.59 1062.17 1366.82 1251.94Z" fill="#F2F2F2" fill-rule="evenodd"/><path d="M1321.06 1006.02 1413 1081.99 1362.59 1119.99C1362.57 1120.01 1362.55 1120 1362.54 1119.98L1321.01 1006.05C1320.99 1005.99 1321.01 1005.99 1321.06 1006.02Z" fill="#E6E6E6" fill-rule="evenodd"/><path d="M1651.22 1350.88C1656.77 1345.18 1656.14 1337.08 1649.75 1331.98L1602.42 1294.19C1596.03 1289.09 1585.88 1288.58 1578.74 1293.01L1476 1355.1 1510.47 1382.61C1510.46 1382.62 1510.44 1382.63 1510.43 1382.64 1502.56 1388.93 1502.56 1399.12 1510.43 1405.41 1518.31 1411.69 1531.08 1411.69 1538.95 1405.41 1538.96 1405.4 1538.97 1405.39 1538.98 1405.38L1571.08 1431 1651.22 1350.88Z" fill="#505050" fill-rule="evenodd"/><path d="M1538.27 1382.38 1538.27 1382.38C1533.91 1378.88 1533.91 1373.2 1538.27 1369.71L1591.94 1326.62C1596.3 1323.13 1603.37 1323.13 1607.73 1326.62 1612.09 1330.12 1612.09 1335.8 1607.73 1339.3L1554.05 1382.38C1549.7 1385.87 1542.63 1385.87 1538.27 1382.38" fill="#2F2F2F" fill-rule="evenodd"/><path d="M1437 1353.45 1431.03 1333 1411.87 1348.27 1408.71 1345.75 1397.47 1354.71 1394.19 1356.12C1369.21 1366.84 1341.88 1373.64 1313.69 1376.14L1304.12 1383.76 1296.19 1377.44 1144.88 1520.76C1136.73 1528.19 1131.91 1538.18 1134.41 1546.8L1131.35 1549.24C1125.55 1553.86 1125.55 1561.36 1131.35 1565.98L1154.63 1584.54C1160.42 1589.16 1169.81 1589.16 1175.61 1584.54L1175.89 1584.31 1178.34 1582.82C1189.35 1586.26 1202.27 1584.79 1211.7 1578.21L1391.12 1453.05 1383.21 1446.75 1392.63 1439.24 1392.67 1438.96C1395.84 1416.61 1404.35 1394.95 1417.72 1375.15L1419.61 1372.35 1430.84 1363.4 1427.68 1360.88 1437 1353.45Z" fill="#737373" fill-rule="evenodd"/><path d="M1417.68 1353 1435 1338.82 1429.08 1318 1402 1340.17Z" fill="#BF9000" fill-rule="evenodd"/><path d="M1406.87 1331 1395.64 1339.93 1392.35 1341.33C1367.37 1352.02 1340.05 1358.79 1311.86 1361.28L1283 1384.22 1362.08 1447 1390.79 1424.18 1390.83 1423.89C1394 1401.62 1402.51 1380.03 1415.88 1360.3L1417.77 1357.51 1429 1348.59 1406.87 1331Z" fill="#505050" fill-rule="evenodd"/><path d="M1132.15 1535C1126.56 1539.56 1126.61 1546.81 1132.34 1551.3L1155.65 1569.59C1161.45 1574.14 1170.86 1574.14 1176.66 1569.59L1178 1568.54C1173.88 1565.58 1134.86 1537.01 1132.15 1535Z" fill="#505050" fill-rule="evenodd"/><path d="M1356.94 1413.03C1349.07 1419.25 1336.36 1419.24 1328.52 1413 1320.68 1406.75 1320.66 1396.64 1328.46 1390.38L1294.04 1363 1137.06 1505.89C1125.76 1516.17 1126.41 1531.67 1138.55 1541.33L1165.01 1562.4C1177.14 1572.06 1196.61 1572.58 1209.52 1563.58L1389 1438.53 1356.94 1413.03Z" fill="#FFD966" fill-rule="evenodd"/><path d="M1182.25 1527.4 1182.25 1527.4C1177.92 1523.94 1177.92 1518.33 1182.25 1514.86L1289.05 1429.6C1293.38 1426.13 1300.41 1426.13 1304.75 1429.6 1309.08 1433.06 1309.08 1438.68 1304.75 1442.13L1197.96 1527.4C1193.62 1530.87 1186.59 1530.87 1182.25 1527.4" fill="#FFFFFF" fill-rule="evenodd"/><path d="M1718.08 997.521 1774.12 941.486 1844.69 1012.06 1788.66 1068.1Z" fill="#737373" fill-rule="evenodd"/><path d="M1855 1005.61 1837.33 991.561C1826.2 989.933 1813.8 984.643 1803.16 976.188 1792.52 967.735 1785.86 957.882 1783.81 949.045L1766.13 935 1709 980.394 1726.68 994.438C1737.8 996.067 1750.2 1001.36 1760.84 1009.81 1771.48 1018.27 1778.14 1028.12 1780.19 1036.96L1797.87 1051 1855 1005.61Z" fill="#BF9000" fill-rule="evenodd"/><path d="M1744.89 960.311 1763.87 941.336 1834.56 1012.03 1815.58 1031.01Z" fill="#FFD966" fill-rule="evenodd"/><path d="M1740.67 962.186 1744.89 957.969 1815.59 1028.67 1811.37 1032.89Z" fill="#2F2F2F" fill-rule="evenodd"/><path d="M1783.08 981.344C1778.97 984.468 1778.97 989.534 1783.08 992.659 1787.17 995.781 1793.82 995.781 1797.92 992.657 1802.03 989.534 1802.03 984.466 1797.92 981.344 1793.83 978.219 1787.18 978.219 1783.08 981.344" fill="#505050" fill-rule="evenodd"/><path d="M2019 1094.87 2015.01 1057C1977.18 1059.52 1949.07 1085.93 1952.24 1116L1999.9 1112.83C1998.93 1103.68 2007.48 1095.64 2019 1094.87Z" fill="#737373" fill-rule="evenodd"/><path d="M1956 1110 1997.33 1110C1997.33 1100.8 2006.59 1093.33 2018 1093.33L2018 1060C1982.57 1060 1956 1082.73 1956 1110Z" fill="#FFFFFF" fill-rule="evenodd"/><path d="M2018 1062.17 2018 1055C1980.45 1055 1950 1079.63 1950 1110L1958.87 1110C1958.87 1083.59 1985.35 1062.17 2018 1062.17" fill="#505050" fill-rule="evenodd"/><path d="M2022.71 1282C2014.59 1288.45 2001.41 1288.45 1993.29 1282L1963 1306.05C1987.88 1325.81 2027.67 1326.16 2053 1306.05L2022.71 1282Z" fill="#FFFFFF" fill-rule="evenodd"/><path d="M1965.33 1303 1959 1308.03C1985.78 1329.32 2029.21 1329.32 2056 1308.03L2049.67 1303C2026.38 1321.52 1988.62 1321.52 1965.33 1303" fill="#505050" fill-rule="evenodd"/><path d="M2100.27 848C2093.25 855.357 2080.17 856.729 2071.05 851.061L2042 881.52C2071.95 900.141 2114.93 895.633 2138 871.455L2100.27 848Z" fill="#737373" fill-rule="evenodd"/><path d="M2135 867.589 2104.71 843C2096.59 849.594 2083.41 849.594 2075.29 843L2045 867.589C2069.76 887.692 2109.15 888.578 2135 867.589Z" fill="#FFFFFF" fill-rule="evenodd"/><path d="M2047.33 865 2041 870.029C2067.78 891.324 2111.21 891.324 2138 870.029L2131.67 865C2108.38 883.519 2070.62 883.519 2047.33 865" fill="#BF9000" fill-rule="evenodd"/><path d="M1852 1092.67C1840.4 1092.67 1831 1085.2 1831 1076L1789 1076C1789 1103.79 1815.66 1126 1852 1126L1852 1092.67Z" fill="#FFFFFF" fill-rule="evenodd"/><path d="M1792 1076 1783 1076C1783 1106.37 1813.89 1131 1852 1131L1852 1123.83C1818.86 1123.83 1792 1102.41 1792 1076" fill="#BF9000" fill-rule="evenodd"/><path d="M1333.67 1621C1333.67 1630.2 1324.41 1637.67 1313 1637.67L1313 1671C1347.89 1671 1375 1649.66 1375 1621L1333.67 1621Z" fill="#FFFFFF" fill-rule="evenodd"/><path d="M1313 1668.83 1313 1676C1350.55 1676 1381 1651.37 1381 1621L1372.13 1621C1372.13 1647.41 1345.66 1668.83 1313 1668.83" fill="#BF9000" fill-rule="evenodd"/></g></svg>