<svg width="277" height="295" xmlns="http://www.w3.org/2000/svg" xmlns:xlink="http://www.w3.org/1999/xlink" overflow="hidden"><defs><clipPath id="clip0"><rect x="836" y="185" width="277" height="295"/></clipPath></defs><g clip-path="url(#clip0)" transform="translate(-836 -185)"><path d="M98.1042 92.0448 98.1042 75.0208C98.1042 66.9417 91.7562 60.5938 83.6771 60.5938 75.5979 60.5938 69.25 66.9417 69.25 75.0208L69.25 92.0448C69.25 100.124 75.5979 106.472 83.6771 106.472 91.7562 106.472 98.1042 99.8354 98.1042 92.0448Z" fill="#BF9000" transform="matrix(1 0 0 1.06498 836 185)"/><path d="M125.227 96.6615 132.729 96.6615 132.729 66.3646C132.729 58.2854 126.381 51.9375 118.302 51.9375 110.223 51.9375 103.875 58.2854 103.875 66.3646L103.875 100.99C103.875 104.452 105.029 107.626 107.338 110.223 109.646 102.144 116.859 96.6615 125.227 96.6615Z" fill="#BF9000" transform="matrix(1 0 0 1.06498 836 185)"/><path d="M158.698 134.172C146.002 135.615 137.057 147.156 138.5 159.852L132.729 160.429C131.864 152.927 134.172 145.136 138.789 139.077 140.231 137.057 141.963 135.326 143.982 133.883L125.227 133.883C115.705 133.883 107.626 126.67 106.472 117.148 102.432 114.262 99.5469 109.934 98.3927 105.318 92.0448 112.531 81.6573 113.974 73.5781 109.357 75.8865 133.595 82.2344 166.2 100.701 175.722L100.701 229.102 180.339 229.102 180.339 180.05C182.07 178.896 183.801 177.742 185.532 176.588 199.671 166.489 207.75 150.042 207.461 132.729L207.461 132.729C207.461 115.994 193.9 102.432 177.165 102.432 177.165 102.432 177.165 102.432 177.165 102.432L125.804 102.432C118.879 102.432 113.108 107.338 112.243 114.262 111.666 121.476 116.859 127.824 123.784 128.401 124.073 128.401 124.65 128.401 124.939 128.401L161.006 128.401 161.006 134.172 158.698 134.172Z" fill="#BF9000" transform="matrix(1 0 0 1.06498 836 185)"/><path d="M167.354 89.4479 167.354 60.5938C167.354 52.5146 161.006 46.1667 152.927 46.1667 144.848 46.1667 138.5 52.5146 138.5 60.5938L138.5 96.6615 167.354 96.6615 167.354 89.4479Z" fill="#BF9000" transform="matrix(1 0 0 1.06498 836 185)"/><path d="M195.343 101.567C199.671 98.9698 201.979 94.3531 201.979 89.4479L201.979 63.4792C201.979 55.4 195.631 49.0521 187.552 49.0521 179.473 49.0521 173.125 55.4 173.125 63.4792L173.125 89.4479C173.125 92.0448 173.702 94.6417 175.145 96.6615L177.165 96.6615C183.512 96.6615 189.86 98.3927 195.343 101.567Z" fill="#BF9000" transform="matrix(1 0 0 1.06498 836 185)"/></g></svg>