<svg width="269" height="153" xmlns="http://www.w3.org/2000/svg" xmlns:xlink="http://www.w3.org/1999/xlink" overflow="hidden"><defs><clipPath id="clip0"><rect x="75" y="255" width="269" height="153"/></clipPath><clipPath id="clip1"><rect x="76" y="269" width="96" height="96"/></clipPath><clipPath id="clip2"><rect x="76" y="269" width="96" height="96"/></clipPath><clipPath id="clip3"><rect x="76" y="269" width="96" height="96"/></clipPath></defs><g clip-path="url(#clip0)" transform="translate(-75 -255)"><text font-family="Calibri,Calibri_MSFontService,sans-serif" font-weight="700" font-size="72" transform="translate(201.65 345)">LS<tspan x="64" y="0">E</tspan></text><rect x="172" y="275" width="22" height="84" fill="#FF0000"/><g clip-path="url(#clip1)"><g clip-path="url(#clip2)"><g clip-path="url(#clip3)"><path d="M89 282 91 282 91 312 89 312Z"/><path d="M111.313 282 108.687 282C104.445 282.007 101.007 285.445 101 289.687L101 304.313C101.007 308.555 104.445 311.993 108.687 312L111.313 312C115.555 311.993 118.993 308.555 119 304.313L119 289.687C118.993 285.445 115.555 282.007 111.313 282ZM117 304.313C116.997 307.453 114.452 309.997 111.313 310L108.687 310C105.548 309.997 103.003 307.453 103 304.313L103 289.687C103.003 286.547 105.548 284.003 108.687 284L111.313 284C114.452 284.003 116.997 286.547 117 289.687Z"/><path d="M151.313 282 148.687 282C144.445 282.007 141.007 285.445 141 289.687L141 304.313C141.007 308.555 144.445 311.993 148.687 312L151.313 312C155.555 311.993 158.993 308.555 159 304.313L159 289.687C158.993 285.445 155.555 282.007 151.313 282ZM157 304.313C156.997 307.453 154.452 309.997 151.313 310L148.687 310C145.548 309.997 143.003 307.453 143 304.313L143 289.687C143.003 286.547 145.548 284.003 148.687 284L151.313 284C154.452 284.003 156.997 286.547 157 289.687Z"/><path d="M111.313 322 108.687 322C104.445 322.007 101.007 325.445 101 329.687L101 344.313C101.007 348.555 104.445 351.993 108.687 352L111.313 352C115.555 351.993 118.993 348.555 119 344.313L119 329.687C118.993 325.445 115.555 322.007 111.313 322ZM117 344.313C116.997 347.453 114.452 349.997 111.313 350L108.687 350C105.548 349.997 103.003 347.453 103 344.313L103 329.687C103.003 326.547 105.548 324.003 108.687 324L111.313 324C114.452 324.003 116.997 326.547 117 329.687Z"/><path d="M151.313 322 148.687 322C144.445 322.007 141.007 325.445 141 329.687L141 344.313C141.007 348.555 144.445 351.993 148.687 352L151.313 352C155.555 351.993 158.993 348.555 159 344.313L159 329.687C158.993 325.445 155.555 322.007 151.313 322ZM157 344.313C156.997 347.453 154.452 349.997 151.313 350L148.687 350C145.548 349.997 143.003 347.453 143 344.313L143 329.687C143.003 326.547 145.548 324.003 148.687 324L151.313 324C154.452 324.003 156.997 326.547 157 329.687Z"/><path d="M129 282 131 282 131 312 129 312Z"/><path d="M129 322 131 322 131 352 129 352Z"/><path d="M89 322 91 322 91 352 89 352Z"/></g></g></g></g></svg>