<svg width="721" height="245" xmlns="http://www.w3.org/2000/svg">
  <g fill-rule="nonzero" fill="none">
    <path fill="#E73736" d="M.2.7h244.1v244.1H.2z"/>
    <path fill="#FFF" d="M46.1 47.5h16.1v133.8H86v16.6H46.1V47.5zM158.2 47.5h40.6v16.4h-24.6v48.3h23v17.5h-23v51.6h24.6v16.6h-40.6zM100 197.9v-16.5h5c6.6 0 17.8-4.6 19.5-15 1.6-10.1.4-17.4-12.6-39.6l-.1-.3c-9-14.7-17.6-27.6-14.4-47.8a35.3 35.3 0 0 1 36.2-31.2h5v16.4h-5c-6.6 0-18.1 4.6-19.8 15-1.6 10-.5 16.6 12.1 38.5l.4.5c9.4 15.1 17.8 28.5 14.6 48.6A35.1 35.1 0 0 1 105 198h-5"/>
    <g fill="#000">
      <path d="M290.8 168.6h7.7c6 0 11 2 11 8.7 0 6.5-5.1 8.9-10.4 8.9H295v11.7h-4.2v-29.3zm4.2 13.9h4.1c2.6 0 6-1.3 6-5.2 0-3.7-4-5-6.6-5H295v10.2zM327 168c8.9 0 14 6.5 14 15.2 0 9-5 15.2-14 15.2s-14.1-6.3-14.1-15.2c0-8.7 5.2-15.1 14-15.1zm0 26.7c6.7 0 9.6-5.6 9.6-11.5 0-6-3.2-11.5-9.6-11.5-6.5 0-9.7 5.6-9.7 11.5s3 11.5 9.7 11.5zM346.2 168.6h4.2v25.6h12.2v3.7h-16.4zM367.2 168.6h4.2v29.3h-4.2zM384.7 172.3h-9.1v-3.7H398v3.7h-9.1v25.6h-4.2v-25.6zM402.2 168.6h4.2v29.3h-4.2zM434.2 173.4c-1.9-1.1-4-1.7-6-1.7-6.9 0-11.3 5-11.3 11.5 0 6.9 5 11.5 11 11.5 2.1 0 5-.6 6.4-1.4l.2 4c-2.2 1-5 1-6.6 1-9.3 0-15.5-5.9-15.5-15.2 0-9 6.6-15 15.5-15 2.3 0 4.5.3 6.6 1.2l-.3 4zM448.9 168.6h4.4l12.4 29.3H461l-3-7.4h-14.4l-3 7.4h-4.4l12.6-29.3zm2 3.9l-5.8 14.5h11.7l-5.9-14.5zM469.9 168.6h4.2v25.6h12.2v3.7h-16.4v-29.3zM516.7 173a13 13 0 0 0-5.5-1.3c-2.3 0-5.1.9-5.1 4 0 5.6 12.6 4.3 12.6 14 0 6.2-4.8 8.7-10.7 8.7-2 0-4-.6-6-1.2l.4-4c1.4.6 4 1.5 6.1 1.5 2.4 0 5.8-1.4 5.8-4.8 0-6.6-12.6-4.8-12.6-13.9 0-5.2 4-8 9.4-8 1.9 0 4.2.4 6.2 1.1l-.6 3.9zM544.7 173.4c-1.9-1.1-4-1.7-6-1.7-6.9 0-11.3 5-11.3 11.5 0 6.9 5 11.5 11 11.5 2.1 0 5-.6 6.4-1.4l.2 4c-2.2 1-5 1-6.6 1-9.3 0-15.5-5.9-15.5-15.2 0-9 6.6-15 15.5-15 2.3 0 4.5.3 6.6 1.2l-.3 4zM550.1 168.6h4.2v29.3h-4.2zM562 168.6h16.4v3.7h-12.2v8.5h11.1v3.7h-11.1v9.7h12.2v3.7H562zM585.1 168.6h5.7l12.9 23.6h.1v-23.6h4.2v29.3h-5.4l-13.3-24.1v24.1h-4.2v-29.3zM635.7 173.4c-1.9-1.1-4-1.7-6-1.7-6.8 0-11.3 5-11.3 11.5 0 6.9 5 11.5 11 11.5 2.1 0 5-.6 6.4-1.4l.3 4c-2.3 1-5 1-6.7 1-9.3 0-15.5-5.9-15.5-15.2 0-9 6.6-15 15.5-15 2.3 0 4.5.3 6.6 1.2l-.3 4zM641.3 168.6h16.4v3.7h-12.2v8.5h11.1v3.7h-11.1v9.7h12.2v3.7h-16.4z"/>
    </g>
    <path fill="#E73736" d="M688.1 167.2h32.4v32.4h-32.4z"/>
    <g fill="#000">
      <path d="M297.9 57.3H291v-2.8h17.1v2.8h-7v19.5h-3.2V57.3zM311.6 54.5h3.2v9.3h10.7v-9.3h3.2v22.3h-3.2V66.7h-10.7v10.1h-3.2zM335 54.5h12.5v2.8h-9.3v6.5h8.4v2.9h-8.4V74h9.3v2.8H335zM367.3 47.5h4.2v25.6h12.3v3.7h-16.5V47.5zM401.3 47c8.9 0 14 6.5 14 15.2 0 8.9-5 15.1-14 15.1S387 71.1 387 62.2c0-8.7 5.3-15.2 14.2-15.2zm0 26.6c6.7 0 9.6-5.6 9.6-11.4 0-6-3.2-11.5-9.6-11.5-6.5 0-9.7 5.5-9.7 11.5 0 5.8 2.9 11.4 9.7 11.4zM421.6 47.5h5.7l12.9 23.6h.1V47.5h4.2v29.3h-5.4l-13.2-24.1h-.1v24.1h-4.2V47.5zM452 47.5h8.6c8.7 0 15.7 5.4 15.7 14.4 0 9.9-6 15-15.7 15H452V47.4zm4.2 25.6h4.4c7.2 0 11.2-3.4 11.2-11 0-6.9-4.6-10.9-10.7-10.9h-5v22zM495.5 47c8.9 0 14 6.5 14 15.2 0 8.9-5 15.1-14 15.1s-14.1-6.2-14.1-15.1c0-8.7 5.2-15.2 14-15.2zm0 26.6c6.7 0 9.6-5.6 9.6-11.4 0-6-3.2-11.5-9.6-11.5-6.5 0-9.7 5.5-9.7 11.5 0 5.8 2.9 11.4 9.7 11.4zM515.8 47.5h5.7l12.9 23.6h.1V47.5h4.2v29.3h-5.4l-13.2-24.1h-.1v24.1h-4.2zM573.4 52a13 13 0 0 0-5.5-1.3c-2.3 0-5.1.8-5.1 4 0 5.5 12.6 4.2 12.6 13.9 0 6.3-4.8 8.7-10.7 8.7-2 0-4-.5-6-1.2l.4-3.9c1.4.6 4 1.4 6 1.4 2.5 0 5.8-1.3 5.8-4.7 0-6.6-12.6-4.8-12.6-14 0-5.1 4.2-7.9 9.4-7.9 2 0 4.3.3 6.3 1l-.6 4zM601.6 52.3c-1.8-1-3.9-1.6-6-1.6-6.8 0-11.3 4.9-11.3 11.5 0 6.9 5 11.4 11 11.4 2.2 0 5-.5 6.5-1.4l.2 4c-2.2 1-5 1.1-6.7 1.1-9.2 0-15.4-6-15.4-15.2 0-9 6.5-15 15.5-15 2.3 0 4.5.2 6.6 1.2l-.4 4zM607.6 47.5h4.2v12.3h14V47.5h4.2v29.3h-4.2V63.5h-14v13.3h-4.2zM650.6 47c8.9 0 14 6.5 14 15.2 0 8.9-5 15.1-14 15.1s-14.1-6.2-14.1-15.1c0-8.7 5.2-15.2 14-15.2zm0 26.6c6.7 0 9.6-5.6 9.6-11.4 0-6-3.2-11.5-9.6-11.5-6.5 0-9.7 5.5-9.7 11.5 0 5.8 3 11.4 9.7 11.4zM683.5 47c9 0 14.2 6.5 14.2 15.2 0 8.9-5.2 15.1-14.2 15.1s-14-6.2-14-15.1c0-8.7 5.1-15.2 14-15.2zm0 26.6c6.8 0 9.7-5.6 9.7-11.4 0-6-3.2-11.5-9.7-11.5-6.4 0-9.6 5.5-9.6 11.5 0 5.8 2.9 11.4 9.6 11.4zM703.9 47.5h4.2v25.6h12.2v3.7h-16.4z"/>
    </g>
    <g fill="#000">
      <path d="M301.6 115c6.7 0 10.7 4.9 10.7 11.5 0 6.8-4 11.6-10.7 11.6-6.9 0-10.8-4.8-10.8-11.6 0-6.6 4-11.6 10.8-11.6zm0 20.2c5.1 0 7.3-4.3 7.3-8.7 0-4.5-2.4-8.8-7.3-8.7-5 0-7.4 4.2-7.4 8.7 0 4.4 2.2 8.7 7.4 8.7zM319.6 115.3h11.9v2.8h-8.7v6.6h8.3v2.8h-8.3v10.2h-3.2zM358 108.3h16.4v3.7h-12.2v8.6h11.1v3.7h-11.1v9.7h12.2v3.7H358zM405.3 113.2c-1.8-1.1-3.9-1.7-6-1.7-6.8 0-11.3 5-11.3 11.5 0 6.9 5 11.5 11 11.5 2.2 0 5-.6 6.4-1.5l.3 4.1c-2.2 1-5 1-6.7 1-9.3 0-15.4-5.9-15.4-15.2 0-9 6.5-15 15.5-15 2.2 0 4.4.3 6.5 1.2l-.3 4zM427.2 107.8c9 0 14.1 6.5 14.1 15.2 0 9-5.1 15.2-14 15.2-9 0-14.2-6.3-14.2-15.2 0-8.7 5.2-15.2 14.1-15.2zm0 26.7c6.8 0 9.7-5.7 9.7-11.5 0-6-3.2-11.5-9.7-11.5-6.4 0-9.6 5.5-9.6 11.5 0 5.8 2.9 11.5 9.6 11.5zM450.3 108.3h5.7l13 23.7h.1v-23.7h4.2v29.4h-5.4l-13.3-24.1h-.1v24.1h-4.2v-29.4zM497.2 107.8c9 0 14.1 6.5 14.1 15.2 0 9-5.1 15.2-14 15.2-9 0-14.2-6.3-14.2-15.2 0-8.7 5.2-15.2 14.1-15.2zm0 26.7c6.8 0 9.7-5.7 9.7-11.5 0-6-3.2-11.5-9.7-11.5-6.5 0-9.7 5.5-9.7 11.5 0 5.8 3 11.5 9.7 11.5zM520.4 108.3h6.9l9.2 24.4 9-24.4h7v29.4h-4.2v-25.4h-.1l-9.7 25.4h-4.1l-9.7-25.4h-.1v25.4h-4.2v-29.4zM563.9 108.3h4.2v29.4h-4.2zM598.9 113.2c-1.9-1.1-4-1.7-6-1.7-6.8 0-11.3 5-11.3 11.5 0 6.9 5 11.5 11 11.5 2.1 0 5-.6 6.4-1.5l.3 4.1c-2.3 1-5 1-6.7 1-9.3 0-15.5-5.9-15.5-15.2 0-9 6.6-15 15.5-15 2.3 0 4.5.3 6.6 1.2l-.3 4zM621.5 112.8a13 13 0 0 0-5.5-1.3c-2.3 0-5.1.9-5.1 4 0 5.6 12.6 4.3 12.6 14 0 6.2-4.8 8.7-10.7 8.7-2 0-4-.6-6-1.2l.4-4c1.4.6 4 1.5 6 1.5 2.5 0 5.8-1.4 5.8-4.8 0-6.6-12.6-4.8-12.6-13.9 0-5.2 4.2-8 9.5-8 1.9 0 4.2.4 6.2 1l-.6 4zM655.7 115.3h3.4l9.4 22.4H665l-2.2-5.7h-11l-2.3 5.7h-3.3l9.5-22.4zm1.6 3l-4.5 11.1h9l-4.5-11zM674.1 115.3h4.3l9.9 18v-18h3.2v22.4h-4.1l-10.1-18.4v18.4h-3.2v-22.4zM699.3 115.3h6.6c6.6 0 12 4.1 12 11 0 7.5-4.6 11.4-12 11.4h-6.6v-22.4zm3.2 19.6h3.4c5.5 0 8.5-2.7 8.5-8.5 0-5.2-3.5-8.3-8.1-8.3h-3.8V135z"/>
    </g>
  </g>
</svg>