<svg width="269" height="152" xmlns="http://www.w3.org/2000/svg" xmlns:xlink="http://www.w3.org/1999/xlink" overflow="hidden"><defs><clipPath id="clip0"><rect x="555" y="262" width="269" height="152"/></clipPath><clipPath id="clip1"><rect x="556" y="275" width="96" height="96"/></clipPath><clipPath id="clip2"><rect x="556" y="275" width="96" height="96"/></clipPath><clipPath id="clip3"><rect x="556" y="275" width="96" height="96"/></clipPath></defs><g clip-path="url(#clip0)" transform="translate(-555 -262)"><text fill="#FFFFFF" font-family="Calibri,Calibri_MSFontService,sans-serif" font-weight="700" font-size="72" transform="translate(681.65 351)">LSE</text><rect x="652" y="282" width="22" height="83" fill="#FF0000"/><g clip-path="url(#clip1)"><g clip-path="url(#clip2)"><g clip-path="url(#clip3)"><path d="M569 288 571 288 571 318 569 318Z" fill="#FFFFFF"/><path d="M591.313 288 588.687 288C584.445 288.007 581.007 291.445 581 295.687L581 310.313C581.007 314.555 584.445 317.993 588.687 318L591.313 318C595.555 317.993 598.993 314.555 599 310.313L599 295.687C598.993 291.445 595.555 288.007 591.313 288ZM597 310.313C596.997 313.453 594.453 315.997 591.313 316L588.687 316C585.547 315.997 583.003 313.453 583 310.313L583 295.687C583.003 292.547 585.547 290.003 588.687 290L591.313 290C594.453 290.003 596.997 292.547 597 295.687Z" fill="#FFFFFF"/><path d="M631.313 288 628.687 288C624.445 288.007 621.007 291.445 621 295.687L621 310.313C621.007 314.555 624.445 317.993 628.687 318L631.313 318C635.555 317.993 638.993 314.555 639 310.313L639 295.687C638.993 291.445 635.555 288.007 631.313 288ZM637 310.313C636.997 313.453 634.453 315.997 631.313 316L628.687 316C625.547 315.997 623.003 313.453 623 310.313L623 295.687C623.003 292.547 625.547 290.003 628.687 290L631.313 290C634.453 290.003 636.997 292.547 637 295.687Z" fill="#FFFFFF"/><path d="M591.313 328 588.687 328C584.445 328.007 581.007 331.445 581 335.687L581 350.313C581.007 354.555 584.445 357.993 588.687 358L591.313 358C595.555 357.993 598.993 354.555 599 350.313L599 335.687C598.993 331.445 595.555 328.007 591.313 328ZM597 350.313C596.997 353.453 594.453 355.997 591.313 356L588.687 356C585.547 355.997 583.003 353.453 583 350.313L583 335.687C583.003 332.547 585.547 330.003 588.687 330L591.313 330C594.453 330.003 596.997 332.547 597 335.687Z" fill="#FFFFFF"/><path d="M631.313 328 628.687 328C624.445 328.007 621.007 331.445 621 335.687L621 350.313C621.007 354.555 624.445 357.993 628.687 358L631.313 358C635.555 357.993 638.993 354.555 639 350.313L639 335.687C638.993 331.445 635.555 328.007 631.313 328ZM637 350.313C636.997 353.453 634.453 355.997 631.313 356L628.687 356C625.547 355.997 623.003 353.453 623 350.313L623 335.687C623.003 332.547 625.547 330.003 628.687 330L631.313 330C634.453 330.003 636.997 332.547 637 335.687Z" fill="#FFFFFF"/><path d="M609 288 611 288 611 318 609 318Z" fill="#FFFFFF"/><path d="M609 328 611 328 611 358 609 358Z" fill="#FFFFFF"/><path d="M569 328 571 328 571 358 569 358Z" fill="#FFFFFF"/></g></g></g></g></svg>