<svg width="409" height="405" xmlns="http://www.w3.org/2000/svg" xmlns:xlink="http://www.w3.org/1999/xlink" overflow="hidden"><defs><clipPath id="clip0"><rect x="799" y="130" width="409" height="405"/></clipPath></defs><g clip-path="url(#clip0)" transform="translate(-799 -130)"><path d="M270 286.875 270 253.125 126.562 253.125C121.922 253.125 118.125 249.328 118.125 244.688L118.125 160.312C118.125 155.672 121.922 151.875 126.562 151.875L270 151.875 270 118.125C270 108.844 262.406 101.25 253.125 101.25L238.359 101.25C237.094 101.25 236.25 100.406 236.25 99.1406L236.25 86.4844C236.25 85.2188 237.094 84.375 238.359 84.375L248.906 84.375C251.438 84.375 253.125 82.6875 253.125 80.1562L253.125 50.625C253.125 41.3438 245.531 33.75 236.25 33.75L118.125 33.75C108.844 33.75 101.25 41.3438 101.25 50.625L101.25 80.1562C101.25 82.6875 102.938 84.375 105.469 84.375L116.016 84.375C117.281 84.375 118.125 85.2188 118.125 86.4844L118.125 99.1406C118.125 100.406 117.281 101.25 116.016 101.25L101.25 101.25C91.9688 101.25 84.375 108.844 84.375 118.125L84.375 320.625C84.375 329.906 91.9688 337.5 101.25 337.5L160.312 337.5C160.312 309.656 183.094 286.875 210.938 286.875L270 286.875Z" stroke="#00B0F0" stroke-width="0.330073" fill="#BF9000" transform="matrix(1.00988 0 0 1 799 130)"/><path d="M135 172.969 135 232.031C135 234.562 136.688 236.25 139.219 236.25L270 236.25 270 168.75 139.219 168.75C136.688 168.75 135 170.438 135 172.969Z" stroke="#00B0F0" stroke-width="0.330073" fill="#BF9000" transform="matrix(1.00988 0 0 1 799 130)"/><path d="M248.906 354.375 210.938 354.375C201.656 354.375 194.062 346.781 194.062 337.5 194.062 328.219 201.656 320.625 210.938 320.625L248.906 320.625 248.906 354.375ZM286.875 303.75 210.938 303.75C192.375 303.75 177.188 318.938 177.188 337.5 177.188 356.062 192.375 371.25 210.938 371.25L286.875 371.25C305.438 371.25 320.625 356.062 320.625 337.5 320.625 318.938 305.438 303.75 286.875 303.75Z" stroke="#00B0F0" stroke-width="0.330073" fill="#BF9000" transform="matrix(1.00988 0 0 1 799 130)"/></g></svg>