<svg width="349" height="349" xmlns="http://www.w3.org/2000/svg" xmlns:xlink="http://www.w3.org/1999/xlink" overflow="hidden"><defs><clipPath id="clip0"><rect x="477" y="150" width="349" height="349"/></clipPath></defs><g clip-path="url(#clip0)" transform="translate(-477 -150)"><path d="M811.458 324.5C811.458 316.502 804.915 309.958 796.917 309.958 794.008 309.958 791.464 310.685 789.282 312.14L727.117 347.767C727.844 351.766 727.844 355.765 727.117 360.127 724.208 373.578 711.484 382.667 697.67 382.667L633.323 382.667 633.323 368.125 698.76 368.125C706.758 368.125 713.302 361.581 713.302 353.583 713.302 345.585 706.758 339.042 698.76 339.042 698.76 339.042 612.237 339.042 611.51 339.042 605.33 339.042 599.514 340.859 594.424 343.768L491.542 393.573 542.438 444.469C566.068 420.839 596.605 411.75 629.688 411.75L697.67 411.75C700.942 411.75 703.85 410.659 706.395 408.842L806.369 335.77C809.277 332.861 811.458 328.862 811.458 324.5Z" fill="#BF9000"/><path d="M760.926 205.258C760.926 205.258 715.847 199.442 691.853 223.435 674.403 240.885 672.585 268.878 672.949 283.42 665.315 288.873 658.771 296.871 654.408 306.323 653.318 304.869 652.591 303.415 651.5 301.96 651.864 289.964 650.046 267.06 635.868 252.882 615.873 232.887 578.792 237.977 578.792 237.977 578.792 237.977 574.066 275.058 593.697 295.053 606.421 307.777 626.779 310.322 639.14 310.685 642.775 314.684 645.32 320.501 647.138 325.591 647.501 326.681 647.865 329.226 647.865 332.498L662.77 332.498C663.133 324.864 664.224 320.501 667.132 314.321 670.768 305.596 676.948 298.325 684.219 293.962 699.124 294.326 726.026 291.781 742.749 275.058 766.743 250.337 760.926 205.258 760.926 205.258Z" fill="#BF9000"/></g></svg>