<svg id="SvgjsSvg1246" width="288" height="288" xmlns="http://www.w3.org/2000/svg" version="1.1" xmlns:xlink="http://www.w3.org/1999/xlink" xmlns:svgjs="http://svgjs.com/svgjs"><rect id="SvgjsRect1338" width="288" height="288" rx="49" ry="49" fill="#191718" transform="matrix(0.7916,0,0,0.7916,30.009600000000006,30.009600000000006)"></rect><defs id="SvgjsDefs1247"></defs><g id="SvgjsG1248" transform="matrix(0.6900000000000001,0,0,0.6900000000000001,44.63935787200927,41.6856664424343)"><svg xmlns="http://www.w3.org/2000/svg" xmlns:xlink="http://www.w3.org/1999/xlink" width="288" height="288" viewBox="0 0 700 700"><defs><symbol id="l" overflow="visible"><path d="m11.359-11.766v2.9531c-0.83594-0.35156-1.6367-0.61328-2.4062-0.78125-0.77344-0.17578-1.5-0.26562-2.1875-0.26562-0.74219 0-1.293 0.09375-1.6562 0.28125-0.35547 0.17969-0.53125 0.46094-0.53125 0.84375 0 0.3125 0.13281 0.55469 0.40625 0.71875 0.26953 0.16797 0.75391 0.28906 1.4531 0.35938l0.6875 0.10938c1.9883 0.25 3.3281 0.66797 4.0156 1.25 0.6875 0.57422 1.0312 1.4805 1.0312 2.7188 0 1.293-0.48047 2.2656-1.4375 2.9219-0.94922 0.64844-2.3711 0.96875-4.2656 0.96875-0.80469 0-1.6367-0.0625-2.5-0.1875-0.85547-0.125-1.7344-0.3125-2.6406-0.5625v-2.9531c0.78125 0.375 1.5781 0.65625 2.3906 0.84375s1.6328 0.28125 2.4688 0.28125c0.75781 0 1.332-0.10156 1.7188-0.3125 0.38281-0.20703 0.57812-0.51953 0.57812-0.9375 0-0.34375-0.13672-0.59766-0.40625-0.76562-0.26172-0.17578-0.78125-0.3125-1.5625-0.40625l-0.6875-0.09375c-1.7305-0.20703-2.9453-0.60156-3.6406-1.1875-0.6875-0.59375-1.0312-1.4844-1.0312-2.6719 0-1.2891 0.4375-2.2422 1.3125-2.8594 0.88281-0.625 2.2383-0.9375 4.0625-0.9375 0.71875 0 1.4688 0.054688 2.25 0.15625 0.78906 0.10547 1.6484 0.27734 2.5781 0.51562z" fill="#ffbf66" class="color000 svgShape"></path></symbol><symbol id="a" overflow="visible"><path d="m14.891-0.89062c-0.77344 0.39844-1.5742 0.69531-2.4062 0.89062-0.83594 0.20703-1.6992 0.3125-2.5938 0.3125-2.6992 0-4.8398-0.75-6.4219-2.25-1.5742-1.5078-2.3594-3.5547-2.3594-6.1406 0-2.5938 0.78516-4.6406 2.3594-6.1406 1.582-1.5078 3.7227-2.2656 6.4219-2.2656 0.89453 0 1.7578 0.10156 2.5938 0.29688 0.83203 0.19922 1.6328 0.5 2.4062 0.90625v3.3438c-0.78125-0.51953-1.5469-0.90625-2.2969-1.1562s-1.543-0.375-2.375-0.375c-1.4922 0-2.6641 0.48047-3.5156 1.4375-0.85547 0.96094-1.2812 2.2773-1.2812 3.9531 0 1.668 0.42578 2.9805 1.2812 3.9375 0.85156 0.94922 2.0234 1.4219 3.5156 1.4219 0.83203 0 1.625-0.11719 2.375-0.35938 0.75-0.25 1.5156-0.63281 2.2969-1.1562z" fill="#ffbf66" class="color000 svgShape"></path></symbol><symbol id="c" overflow="visible"><path d="m14-6.1094v1.1094h-9.0781c0.09375 0.90625 0.42188 1.5898 0.98438 2.0469 0.5625 0.46094 1.3477 0.6875 2.3594 0.6875 0.82031 0 1.6602-0.11719 2.5156-0.35938 0.85156-0.25 1.7344-0.61719 2.6406-1.1094v3c-0.91797 0.34375-1.8398 0.60547-2.7656 0.78125-0.91797 0.17578-1.8359 0.26562-2.75 0.26562-2.1992 0-3.9062-0.55469-5.125-1.6719-1.2188-1.1133-1.8281-2.6797-1.8281-4.7031 0-1.9766 0.59766-3.5352 1.7969-4.6719 1.1953-1.1328 2.8438-1.7031 4.9375-1.7031 1.9141 0 3.4453 0.57422 4.5938 1.7188 1.1445 1.1484 1.7188 2.6836 1.7188 4.6094zm-4-1.2969c0-0.72656-0.21484-1.3164-0.64062-1.7656-0.42969-0.45703-0.99219-0.6875-1.6875-0.6875-0.75 0-1.3672 0.21484-1.8438 0.64062-0.46875 0.41797-0.76172 1.0234-0.875 1.8125z" fill="#ffbf66" class="color000 svgShape"></path></symbol><symbol id="d" overflow="visible"><path d="m7.3125-5.4688c-0.8125 0-1.4219 0.14062-1.8281 0.42188-0.40625 0.27344-0.60938 0.67188-0.60938 1.2031 0 0.49219 0.16016 0.875 0.48438 1.1562 0.33203 0.28125 0.78906 0.42188 1.375 0.42188 0.72656 0 1.3438-0.25781 1.8438-0.78125 0.5-0.53125 0.75-1.1875 0.75-1.9688v-0.45312zm5.9375-1.4688v6.9375h-3.9219v-1.7969c-0.52344 0.74219-1.1094 1.2773-1.7656 1.6094-0.64844 0.33203-1.4336 0.5-2.3594 0.5-1.2617 0-2.2891-0.36328-3.0781-1.0938-0.78125-0.73828-1.1719-1.6914-1.1719-2.8594 0-1.4258 0.48828-2.4727 1.4688-3.1406 0.97656-0.66406 2.5195-1 4.625-1h2.2812v-0.29688c0-0.61328-0.24609-1.0625-0.73438-1.3438-0.48047-0.28906-1.2344-0.4375-2.2656-0.4375-0.82422 0-1.5938 0.085937-2.3125 0.25-0.71875 0.16797-1.3867 0.41797-2 0.75v-2.9688c0.83203-0.19531 1.6641-0.34766 2.5-0.45312 0.84375-0.10156 1.6875-0.15625 2.5312-0.15625 2.1875 0 3.7656 0.43359 4.7344 1.2969 0.97656 0.86719 1.4688 2.2656 1.4688 4.2031z" fill="#ffbf66" class="color000 svgShape"></path></symbol><symbol id="e" overflow="visible"><path d="m6.1094-15.594v3.4375h4v2.7812h-4v5.1562c0 0.5625 0.10938 0.94531 0.32812 1.1406 0.22656 0.19922 0.67578 0.29688 1.3438 0.29688h2v2.7812h-3.3438c-1.5312 0-2.6211-0.31641-3.2656-0.95312-0.63672-0.64453-0.95312-1.7344-0.95312-3.2656v-5.1562h-1.9219v-2.7812h1.9219v-3.4375z" fill="#ffbf66" class="color000 svgShape"></path></symbol><symbol id="f" overflow="visible"><path d="m10.141-10.375v-6.5h3.8906v16.875h-3.8906v-1.75c-0.54297 0.71094-1.1367 1.2305-1.7812 1.5625-0.63672 0.33203-1.3828 0.5-2.2344 0.5-1.4922 0-2.7188-0.59375-3.6875-1.7812-0.96094-1.1875-1.4375-2.7188-1.4375-4.5938s0.47656-3.4062 1.4375-4.5938c0.96875-1.1875 2.1953-1.7812 3.6875-1.7812 0.84375 0 1.5859 0.16797 2.2344 0.5 0.64453 0.33594 1.2383 0.85547 1.7812 1.5625zm-2.5625 7.875c0.82031 0 1.4531-0.30078 1.8906-0.90625 0.44531-0.61328 0.67188-1.5 0.67188-2.6562s-0.22656-2.0352-0.67188-2.6406c-0.4375-0.61328-1.0703-0.92188-1.8906-0.92188-0.83594 0-1.4688 0.30859-1.9062 0.92188-0.4375 0.60547-0.65625 1.4844-0.65625 2.6406s0.21875 2.043 0.65625 2.6562c0.4375 0.60547 1.0703 0.90625 1.9062 0.90625z" fill="#ffbf66" class="color000 svgShape"></path></symbol><symbol id="g" overflow="visible"><path d="m8.3281-2.5c0.83203 0 1.4688-0.30078 1.9062-0.90625 0.4375-0.61328 0.65625-1.5 0.65625-2.6562s-0.21875-2.0352-0.65625-2.6406c-0.4375-0.61328-1.0742-0.92188-1.9062-0.92188-0.83594 0-1.4766 0.30859-1.9219 0.92188-0.4375 0.60547-0.65625 1.4844-0.65625 2.6406 0 1.1484 0.21875 2.0273 0.65625 2.6406 0.44531 0.61719 1.0859 0.92188 1.9219 0.92188zm-2.5781-7.875c0.53125-0.70703 1.1172-1.2266 1.7656-1.5625 0.65625-0.33203 1.4102-0.5 2.2656-0.5 1.4883 0 2.7109 0.59375 3.6719 1.7812 0.96875 1.1875 1.4531 2.7188 1.4531 4.5938s-0.48438 3.4062-1.4531 4.5938c-0.96094 1.1875-2.1836 1.7812-3.6719 1.7812-0.85547 0-1.6094-0.16797-2.2656-0.5-0.64844-0.33203-1.2344-0.85156-1.7656-1.5625v1.75h-3.8906v-16.875h3.8906z" fill="#ffbf66" class="color000 svgShape"></path></symbol><symbol id="h" overflow="visible"><path d="m0.26562-12.156h3.8906l3.2656 8.25 2.7812-8.25h3.875l-5.1094 13.312c-0.51172 1.3438-1.1094 2.2852-1.7969 2.8281-0.67969 0.53906-1.5781 0.8125-2.7031 0.8125h-2.25v-2.5469h1.2188c0.65625 0 1.1328-0.10938 1.4375-0.32812 0.30078-0.21094 0.53516-0.58594 0.70312-1.125l0.10938-0.32812z" fill="#ffbf66" class="color000 svgShape"></path></symbol><symbol id="i" overflow="visible"><path d="m11.875-2.9531h-6.5312l-1.0312 2.9531h-4.2031l6-16.203h4.9844l6 16.203h-4.2031zm-5.5-3h4.4375l-2.2031-6.4531z" fill="#ffbf66" class="color000 svgShape"></path></symbol><symbol id="j" overflow="visible"><path d="m13.125-10.141c0.48828-0.75 1.0703-1.3164 1.75-1.7031 0.67578-0.39453 1.4219-0.59375 2.2344-0.59375 1.3945 0 2.457 0.43359 3.1875 1.2969 0.72656 0.85547 1.0938 2.1016 1.0938 3.7344v7.4062h-3.9062v-6.3281c0.007813-0.10156 0.015625-0.20312 0.015625-0.29688 0.007812-0.10156 0.015625-0.25 0.015625-0.4375 0-0.86328-0.13281-1.4883-0.39062-1.875-0.25-0.38281-0.65625-0.57812-1.2188-0.57812-0.74219 0-1.3125 0.30859-1.7188 0.92188-0.39844 0.60547-0.60156 1.4805-0.60938 2.625v5.9688h-3.9062v-6.3281c0-1.3516-0.12109-2.2227-0.35938-2.6094-0.23047-0.38281-0.64062-0.57812-1.2344-0.57812-0.74219 0-1.3125 0.30859-1.7188 0.92188-0.40625 0.60547-0.60938 1.4766-0.60938 2.6094v5.9844h-3.9062v-12.156h3.9062v1.7812c0.47656-0.6875 1.0234-1.2031 1.6406-1.5469 0.625-0.34375 1.3047-0.51562 2.0469-0.51562 0.84375 0 1.582 0.20312 2.2188 0.60938 0.64453 0.39844 1.1328 0.96094 1.4688 1.6875z" fill="#ffbf66" class="color000 svgShape"></path></symbol><symbol id="k" overflow="visible"><path d="m14.078-7.4062v7.4062h-3.9062v-5.6406c0-1.0625-0.027344-1.7891-0.078125-2.1875-0.042969-0.39453-0.12109-0.69141-0.23438-0.89062-0.14844-0.25-0.35156-0.44141-0.60938-0.57812-0.26172-0.14453-0.55859-0.21875-0.89062-0.21875-0.8125 0-1.4531 0.3125-1.9219 0.9375-0.46094 0.625-0.6875 1.4922-0.6875 2.5938v5.9844h-3.8906v-16.875h3.8906v6.5c0.58203-0.70703 1.2031-1.2266 1.8594-1.5625 0.66406-0.33203 1.3945-0.5 2.1875-0.5 1.4062 0 2.4688 0.43359 3.1875 1.2969 0.72656 0.85547 1.0938 2.1016 1.0938 3.7344z" fill="#ffbf66" class="color000 svgShape"></path></symbol><symbol id="b" overflow="visible"><path d="m10.891-8.8438c-0.34375-0.15625-0.68359-0.26953-1.0156-0.34375-0.33594-0.082031-0.67188-0.125-1.0156-0.125-1 0-1.7734 0.32422-2.3125 0.96875-0.53125 0.63672-0.79688 1.5547-0.79688 2.75v5.5938h-3.8906v-12.156h3.8906v2c0.5-0.78906 1.0703-1.3672 1.7188-1.7344 0.64453-0.36328 1.4219-0.54688 2.3281-0.54688 0.125 0 0.26562 0.007812 0.42188 0.015625 0.15625 0.011719 0.375 0.03125 0.65625 0.0625z" fill="#ffbf66" class="color000 svgShape"></path></symbol><symbol id="m" overflow="visible"><path d="m13.312-15.688v3.4219c-0.88672-0.39453-1.7578-0.69141-2.6094-0.89062-0.84375-0.20703-1.6406-0.3125-2.3906-0.3125-1 0-1.7422 0.14062-2.2188 0.42188-0.48047 0.27344-0.71875 0.69922-0.71875 1.2812 0 0.42969 0.16016 0.76562 0.48438 1.0156 0.32031 0.24219 0.90625 0.44531 1.75 0.60938l1.7812 0.35938c1.8008 0.36719 3.082 0.91797 3.8438 1.6562 0.75781 0.74219 1.1406 1.7891 1.1406 3.1406 0 1.793-0.53125 3.125-1.5938 4-1.0547 0.86719-2.668 1.2969-4.8438 1.2969-1.0312 0-2.0703-0.10156-3.1094-0.29688-1.0312-0.1875-2.0625-0.47266-3.0938-0.85938v-3.5312c1.0312 0.55469 2.0312 0.96875 3 1.25 0.96875 0.27344 1.8984 0.40625 2.7969 0.40625 0.90625 0 1.5977-0.14844 2.0781-0.45312 0.48828-0.30078 0.73438-0.73438 0.73438-1.2969 0-0.50781-0.16797-0.89844-0.5-1.1719-0.32422-0.26953-0.97656-0.51562-1.9531-0.73438l-1.625-0.35938c-1.6172-0.35156-2.7969-0.90625-3.5469-1.6562-0.75-0.75781-1.125-1.7852-1.125-3.0781 0-1.6133 0.51953-2.8516 1.5625-3.7188 1.0391-0.86328 2.5391-1.2969 4.5-1.2969 0.88281 0 1.7969 0.070313 2.7344 0.20312 0.9375 0.125 1.9102 0.32422 2.9219 0.59375z" fill="#ffbf66" class="color000 svgShape"></path></symbol><symbol id="n" overflow="visible"><path d="m1.7344-4.7344v-7.4219h3.9062v1.2188c0 0.65625-0.007813 1.4844-0.015625 2.4844v1.9844c0 0.98047 0.019531 1.6875 0.0625 2.125 0.050781 0.42969 0.14062 0.73438 0.26562 0.92188 0.15625 0.26172 0.36328 0.46094 0.625 0.59375 0.25781 0.13672 0.55469 0.20312 0.89062 0.20312 0.80078 0 1.4297-0.30469 1.8906-0.92188 0.46875-0.625 0.70312-1.4922 0.70312-2.6094v-6h3.8906v12.156h-3.8906v-1.75c-0.58594 0.71094-1.2031 1.2305-1.8594 1.5625s-1.375 0.5-2.1562 0.5c-1.4062 0-2.4805-0.42578-3.2188-1.2812-0.73047-0.86328-1.0938-2.1172-1.0938-3.7656z" fill="#ffbf66" class="color000 svgShape"></path></symbol><symbol id="o" overflow="visible"><path d="m1.8594-12.156h3.8906v12.156h-3.8906zm0-4.7188h3.8906v3.1562h-3.8906z" fill="#ffbf66" class="color000 svgShape"></path></symbol><symbol id="p" overflow="visible"><path d="m7.6562-9.6719c-0.86719 0-1.5273 0.3125-1.9844 0.9375-0.44922 0.61719-0.67188 1.5078-0.67188 2.6719 0 1.168 0.22266 2.0586 0.67188 2.6719 0.45703 0.61719 1.1172 0.92188 1.9844 0.92188 0.84375 0 1.4883-0.30469 1.9375-0.92188 0.44531-0.61328 0.67188-1.5039 0.67188-2.6719 0-1.1641-0.22656-2.0547-0.67188-2.6719-0.44922-0.625-1.0938-0.9375-1.9375-0.9375zm0-2.7656c2.082 0 3.7109 0.5625 4.8906 1.6875 1.1758 1.125 1.7656 2.6875 1.7656 4.6875s-0.58984 3.5625-1.7656 4.6875c-1.1797 1.125-2.8086 1.6875-4.8906 1.6875-2.1055 0-3.75-0.5625-4.9375-1.6875-1.1797-1.125-1.7656-2.6875-1.7656-4.6875s0.58594-3.5625 1.7656-4.6875c1.1875-1.125 2.832-1.6875 4.9375-1.6875z" fill="#ffbf66" class="color000 svgShape"></path></symbol><symbol id="q" overflow="visible"><path d="m9.8594-16.875v2.5469h-2.1406c-0.55469 0-0.9375 0.10156-1.1562 0.29688-0.21875 0.19922-0.32812 0.54297-0.32812 1.0312v0.84375h3.3281v2.7812h-3.3281v9.375h-3.875v-9.375h-1.9375v-2.7812h1.9375v-0.84375c0-1.3203 0.36328-2.2969 1.0938-2.9219 0.73828-0.63281 1.8828-0.95312 3.4375-0.95312z" fill="#ffbf66" class="color000 svgShape"></path></symbol><symbol id="r" overflow="visible"><path d="m2.0469-16.203h4.6562l5.8906 11.109v-11.109h3.9688v16.203h-4.6719l-5.8906-11.109v11.109h-3.9531z" fill="#ffbf66" class="color000 svgShape"></path></symbol><symbol id="s" overflow="visible"><path d="m14.078-7.4062v7.4062h-3.9062v-5.6562c0-1.0508-0.027344-1.7734-0.078125-2.1719-0.042969-0.39453-0.12109-0.69141-0.23438-0.89062-0.14844-0.25-0.35156-0.44141-0.60938-0.57812-0.26172-0.14453-0.55859-0.21875-0.89062-0.21875-0.8125 0-1.4531 0.3125-1.9219 0.9375-0.46094 0.625-0.6875 1.4922-0.6875 2.5938v5.9844h-3.8906v-12.156h3.8906v1.7812c0.58203-0.70703 1.2031-1.2266 1.8594-1.5625 0.66406-0.33203 1.3945-0.5 2.1875-0.5 1.4062 0 2.4688 0.43359 3.1875 1.2969 0.72656 0.85547 1.0938 2.1016 1.0938 3.7344z" fill="#ffbf66" class="color000 svgShape"></path></symbol><symbol id="t" overflow="visible"><path d="m2.0469-16.203h6.9219c2.0625 0 3.6445 0.46094 4.75 1.375 1.1016 0.91797 1.6562 2.2188 1.6562 3.9062 0 1.7109-0.55469 3.0234-1.6562 3.9375-1.1055 0.90625-2.6875 1.3594-4.75 1.3594h-2.75v5.625h-4.1719zm4.1719 3.0312v4.5312h2.3125c0.8125 0 1.4375-0.19531 1.875-0.59375 0.4375-0.39453 0.65625-0.95703 0.65625-1.6875 0-0.71875-0.21875-1.2695-0.65625-1.6562-0.4375-0.39453-1.0625-0.59375-1.875-0.59375z" fill="#ffbf66" class="color000 svgShape"></path></symbol><symbol id="u" overflow="visible"><path d="m1.8594-12.156h3.8906v11.938c0 1.625-0.39062 2.8633-1.1719 3.7188-0.78125 0.86328-1.9141 1.2969-3.3906 1.2969h-1.9219v-2.5469h0.67188c0.73828 0 1.2422-0.16797 1.5156-0.5 0.26953-0.33594 0.40625-0.99219 0.40625-1.9688zm0-4.7188h3.8906v3.1562h-3.8906z" fill="#ffbf66" class="color000 svgShape"></path></symbol><symbol id="v" overflow="visible"><path d="m11.688-11.766v3.1562c-0.53125-0.35156-1.0625-0.61719-1.5938-0.79688-0.53125-0.17578-1.0859-0.26562-1.6562-0.26562-1.0859 0-1.9297 0.32031-2.5312 0.95312-0.60547 0.63672-0.90625 1.5234-0.90625 2.6562 0 1.1367 0.30078 2.0234 0.90625 2.6562 0.60156 0.625 1.4453 0.9375 2.5312 0.9375 0.61328 0 1.1914-0.085938 1.7344-0.26562 0.53906-0.17578 1.0469-0.44141 1.5156-0.79688v3.1719c-0.61719 0.23047-1.2344 0.39453-1.8594 0.5-0.625 0.11328-1.25 0.17188-1.875 0.17188-2.1875 0-3.9023-0.5625-5.1406-1.6875-1.2422-1.125-1.8594-2.6875-1.8594-4.6875s0.61719-3.5625 1.8594-4.6875c1.2383-1.125 2.9531-1.6875 5.1406-1.6875 0.63281 0 1.2578 0.058594 1.875 0.17188 0.625 0.10547 1.2422 0.27344 1.8594 0.5z" fill="#ffbf66" class="color000 svgShape"></path></symbol></defs><path d="M621.23 352.4c-1.957-.64453-4.2578-.85938-6.4336-.64844-1.5898-3.5469-4.3516-5.8594-7.5-7.0586l22.523-90.008c.57812-2.3047-.76562-4.6562-3.043-5.3359l-147.91-44.027v-67.562c0-2.4531-1.9922-4.4453-4.4453-4.4453h-279.95c-2.4531 0-4.4453 1.9922-4.4453 4.4453v97.762h-115.54c-2.4531 0-4.4453 1.9922-4.4453 4.4453v133.31c0 2.4531 1.9922 4.4453 4.4453 4.4453h28.754c-1.3281 3.2031-2.0898 6.6367-2.0898 10.172v30.172c0 6.7773 3.0391 13.094 8.332 17.336l13.887 11.109v109.05c0 2.4531 1.9922 4.4453 4.4453 4.4453s4.4453-1.9922 4.4453-4.4453l-.003906-111.19c0-1.3516-.61328-2.625-1.668-3.4688l-15.555-12.441c-3.1719-2.543-4.9961-6.332-4.9961-10.398v-30.172c0-4.3047 1.5625-8.457 4.4844-11.777.50391-.60547 1.0742-1.1719 1.7539-1.7461 3.5312-3.0469 7.9062-6.7578 12.465-10.52 7.543-6.2539 13.793-11.203 18.066-14.301 1.0469-.75391 2.3672-1.043 3.625-.78125.65234.13281 1.8672.55078 2.6289 1.8164.64453 1.0742 1.1719 2.3242 1.5742 3.707.003907.019531 0 .03125.003907.050781.45312 1.6133.6875 3.4297.72266 5.5508.070313 3.9766-1.3164 7.9258-3.9141 11.145l-1.7852 2.2344c-.007812.011718-.023437.027343-.03125.039062l-10.199 12.789c-1.25 1.6992-4.0352 6.2109-2.9062 11.473.52734 2.457 2.1406 5.9414 6.6289 8.4609l1.75 1.0977c6.8438 4.2539 12.754 7.9258 13.98 24.066.17969 2.332 2.125 4.1055 4.4258 4.1055.10938 0 .22656-.003907.34375-.011719 2.4492-.1875 4.2812-2.3203 4.0938-4.7695-1.5742-20.637-10.762-26.352-18.152-30.941l-1.8711-1.168c-1.457-.81641-2.3008-1.7305-2.5117-2.707-.30078-1.4141.55078-3.2188 1.2695-4.1992l4.8906-6.1289c2.3828 4.5898 6.1367 7.8594 10.973 9.3398 1.8633.5625 3.8164.83984 5.7852.83984 3.7461 0 7.4688-1.0859 10.711-2.8945 2.6133 4.2344 6.6133 7.2344 11.586 8.4688 1.6211.40625 3.2852.59375 4.9375.59375 3.4648 0 6.8359-.9375 9.7617-2.5195 2.8711 3.4961 6.9414 5.7578 11.617 6.2422.64453.066406 1.2852.097656 1.918.097656 2.4258 0 4.8047-.48828 7-1.3633l-.085937 17.973c0 10.957-4.2578 14.273-15.645 23.145l-.41797.32422c-1.082.83594-1.7148 2.1367-1.7148 3.5039v106.34c0 2.4531 1.9922 4.4453 4.4453 4.4453 2.4531 0 4.4453-1.9922 4.4453-4.4453v-104.16c11.113-8.6797 17.773-14.406 17.773-29.125l.12891-25.938c1.0234-1.875 1.7852-3.9141 2.0781-6.3164l1.0703-12.207h36.715c2.4531 0 4.4453-1.9922 4.4453-4.4453v-44.438h35.551v79.031c-.09375.003906-.20312.011718-.29688.019531l-1.0703.054687c-6.7227.39062-12.895 3.6914-16.922 9.0391l-15.176 19.965c-3.6055 4.6523-4.832 10.617-3.3789 16.32l3.5547 14.297-51.793 85.609c-1.2695 2.1016-.60156 4.832 1.5039 6.1016.71875.43359 1.5117.64453 2.2969.64453 1.5039 0 2.9688-.76562 3.8047-2.1406l52.746-87.188c.61328-1.0117.79688-2.2227.51172-3.3711l-4.0078-16.113c-.78125-3.0625-.12891-6.2383 1.8086-8.7461l15.211-20.012c2.4609-3.2695 6.2344-5.2852 10.328-5.5234l1.0352-.054688c1.3555-.070312 2.8125-.14844 4.2266-.23828.023438 0 .039063.011719.058594.011719.035156 0 .066406-.023438.10156-.023438.019531 0 .035156 0 .054687-.003906 2.457-.085937 5.0352-.20703 7.6914-.33594l.43359-.023438c7.7539-.34766 14.543-.47656 19.129-.35156.84375.019531 1.6523.39453 2.2188 1.0312.28906.32812.76172 1.0234.65625 1.9727-.09375.92578-.36328 1.9648-.79688 3.0898-.003906.007812 0 .011718-.003906.023437-.57031 1.3047-1.3008 2.5859-2.2266 3.8672-1.8516 2.5156-4.6133 4.3359-7.7617 5.125l-2.3438.58594c-.011719.003906-.027344.007812-.042969.007812l-13.25 3.3203-.55859.16016c-5.9258 1.6523-7.7422 5.0078-7.7891 14.363 0 .77734.011718 1.5586.03125 2.3438.027344 1.418.058594 2.8555-.027344 4.4258-.18359 4.9375-1.6367 10.906-10.922 21.02-1.6602 1.8086-1.5391 4.6211.26953 6.2773.85156.78125 1.9336 1.168 3.0039 1.168 1.2031 0 2.3984-.48438 3.2734-1.4414 1.6992-1.8516 3.1211-3.5781 4.4141-5.25v77.656c0 2.4531 1.9922 4.4453 4.4453 4.4453h31.105c2.4531 0 4.4453-1.9922 4.4453-4.4453v-38.273c5.7109-1.375 9.9023-4.25 13.734-9.3242l8.4844-9.9531v57.555c0 2.4531 1.9922 4.4453 4.4453 4.4453s4.4453-1.9922 4.4453-4.4453v-67.559c.16406-.15625.31641-.28906.48438-.46094l14.312-15.727c5.0469-6.3086 5.6523-13.352 1.6602-19.332-1.625-2.4336-4.2266-4.7461-6.9727-6.2539 2.4492-7.9688-1.457-14.703-6.2852-18.445-1.6914-1.3164-3.625-2.3555-5.5938-3.0391 1.1055-3.6094 1.0586-7.1445-.13281-10.496 1.2734-.58984 2.4297-1.4023 3.4453-2.3984 1.7852.75 3.7539 1.1602 5.7539 1.1602 1.1562 0 2.3164-.13281 3.4492-.41016 3.0391-.74219 5.4961-2.4727 7.3398-4.8047 1.9375.86719 4.0742 1.3359 6.2109 1.3359 1.3867 0 2.7734-.19141 4.1016-.59375 2.6914-.8125 4.918-2.3867 6.5742-4.5664l1.5078 1.8789c.38672.51953.55469 1.0078.58594 1.2266-.011719.050782-.023438.09375-.035157.14063-.125.15234-.39062.38281-.94531.70703l-1.0586.66406c-4.6875 2.9141-11.105 6.9062-12.137 20.609-.1875 2.4492 1.6484 4.582 4.0977 4.7656.10938.007813.22656.011719.33594.011719 2.3008 0 4.2539-1.7773 4.4258-4.1094.50391-6.6641 2.2539-9.4883 4.7773-11.539l1.7539 19.625c.28906 2.4961 1.1016 4.7695 2.3672 6.7891l-.03125 21.859c0 5.3281 1.707 10.191 4.4453 14.723v74.242c0 2.4531 1.9922 4.4453 4.4453 4.4453s4.4453-1.9922 4.4453-4.4453v-63.426c2.7656 2.6758 5.7734 5.25 8.8867 7.7266v55.699c0 2.4531 1.9922 4.4453 4.4453 4.4453 2.4531 0 4.4453-1.9922 4.4453-4.4453l-.007812-57.859c0-1.3672-.63281-2.668-1.7109-3.5078-10.652-8.2969-20.508-17.383-20.508-27.59l.027343-14.992c1.875.64844 3.832 1.0977 5.8438 1.0977.80859 0 1.6211-.058593 2.4297-.17188 4.1406-.58594 7.6641-2.5977 10.211-5.6641 2.7188 1.4141 5.8164 2.2578 9.0039 2.2578 1.5547 0 3.1211-.18359 4.6445-.55469 4.6289-1.1367 8.3672-3.8828 10.852-7.7695 3 1.6133 6.4219 2.5859 9.8594 2.5859 1.8594 0 3.7109-.25781 5.4688-.78906 4.4297-1.3516 7.9219-4.2852 10.191-8.4062l4.1562 5.1992c.95703 1.2852 1.4336 2.7539 1.2266 3.75-.17188.83203-.91406 1.6172-2.4023 2.4609l-1.5391.96094c-6.9453 4.3008-15.598 9.6562-17.039 29.035-.18359 2.4492 1.6523 4.5781 4.1016 4.7578 2.4609.16406 4.5781-1.6562 4.7578-4.1016 1.1094-14.863 6.5547-18.238 12.859-22.141l1.4258-.89844c4.4922-2.5391 6.0312-5.8867 6.5312-8.2461.74609-3.543-.27734-7.5156-2.8828-11.016l-9.3594-11.719c-.03125-.039062-.0625-.074219-.09375-.11719l-1.6523-2.0703c-2.3672-2.9766-3.6367-6.5898-3.5664-10.172.03125-1.8945.25781-3.5664.68359-5.125.35156-1.2852.83203-2.4297 1.4453-3.4453.58594-.99219 1.5078-1.3633 2.1719-1.5078 1.1094-.22656 2.2734.019531 3.1758.66406 3.9531 2.8672 9.7617 7.457 16.781 13.277 4.2539 3.5469 8.3711 7.0469 11.645 9.8281 3.6133 3.0938 5.6875 7.5938 5.6875 12.355v28.086c0 3.707-1.6562 7.1484-4.4258 9.3633l-15.996 11.863c-1.125.83984-1.793 2.168-1.793 3.5742v66.746c0 2.4531 1.9922 4.4453 4.4453 4.4453 2.4531 0 4.4453-1.9922 4.4453-4.4453v-64.508l14.328-10.629c5.0156-4 7.8906-9.9805 7.8906-16.406l-.003906-28.086c0-7.3594-3.207-14.32-8.8086-19.117-2.9062-2.4766-6.4844-5.5117-10.219-8.6367l-1.5586-31.695c-.85938-10.855-10.469-16.289-19.406-16.273-8.4883.125-15.039 4.6484-17.473 11.551-1.4258-.16016-3.0703-.26562-4.8789-.22266l9.168-20.484 52.059 14.285c-.45312.39062-.97266.83594-1.3828 1.1953-2.1406 1.8438-3.7695 4.0352-4.8008 6.4336-1.0547 2.3477-1.5898 4.875-1.5898 7.5117v18.84c0 4.6719 2.0234 9.0039 5.5586 11.941l12.219 12.688v131.61c0 2.4531 1.9922 4.4453 4.4453 4.4453s4.4453-1.9922 4.4453-4.4453v-133.4c0-1.1523-.44531-2.2539-1.2383-3.0781l-13.641-14.176c-.13672-.14062-.28125-.27734-.43359-.39453-1.5625-1.2461-2.457-3.1367-2.457-5.1914v-18.84c0-1.375.26953-2.6758.83984-3.9375.51953-1.2188 1.3516-2.3164 2.4922-3.3008 2.1523-1.8867 4.875-4.2109 7.7109-6.5664 4.4453-3.75 8.3828-6.8984 11.074-8.8594.38281-.28125.77734-.23438.92969-.20312.23438.050781.40625.16016.57031.44141.30469.48828.57031 1.1172.74609 1.7695.22656.875.35937 1.9453.39062 3.1875.058594 2.0547-.67187 4.1328-2.0781 5.8984l-7.5469 9.4961c-1.8828 2.6562-2.6133 5.7578-2.0078 8.5078.41016 1.8477 1.6094 4.457 4.8086 6.2734l1.1641.74219c4 2.5273 7.1602 4.5273 7.8516 13.73.1875 2.4453 2.2539 4.2578 4.7656 4.0977 2.4492-.1875 4.2812-2.3164 4.0977-4.7656-1.0273-13.656-7.3438-17.656-11.957-20.57l-1.2891-.81641c-.63281-.35937-.76172-.60937-.76172-.60937-.03125-.13672.089843-.75.42969-1.25l1.5547-1.957c1.6562 2.1758 3.8828 3.7461 6.5781 4.5508 1.3242.39453 2.7031.58203 4.0742.58203 2.1328 0 4.25-.46484 6.1484-1.3047 1.832 2.3125 4.2578 4.0234 7.2578 4.7578 1.1602.28516 2.3359.42188 3.5078.42188 1.9648 0 3.8867-.39844 5.6406-1.1406 1.4453 1.4219 3.1953 2.4883 5.2344 3.0586 1.1484.32031 2.3203.47656 3.4961.47656.32422 0 .64063-.054688.96484-.078125l.007813 6.8281c0 6.9414-.83984 9.3438-7.1367 14.273-1.0742.84375-1.7031 2.1328-1.7031 3.5v137.84c0 2.4531 1.9922 4.4453 4.4453 4.4453 2.4531 0 4.4453-1.9922 4.4453-4.4453l-.003906-135.73c6.8125-5.75 8.8438-10.535 8.8438-19.902l-.035156-11.133c1.6797-1.9023 2.7422-4.2656 3.043-6.9062l1.3867-16.02c.15234-6.6836-3.0273-11.594-8.7188-13.469zm-193.86 46.684l-6.4062-8.0117c-1.3789-1.7188-2.1055-3.8008-2.0469-5.8477.035156-1.2617.16797-2.2578.42969-3.1523.1875-.69922.46094-1.3672.75-1.8672.12109-.19922.3125-.32422.57031-.37891.15234-.03125.55078-.078125.94531.21484 2.7266 1.9648 6.7109 5.1094 11.188 8.8516l1.8398 1.5508c2.0742 1.75 4.0312 3.3984 5.7148 4.8438-1.6484-.078125-3.3008-.003906-4.8086.25-3.1719.53125-5.9297 1.7617-8.1758 3.5469zm-7.9258-35.898c.1875-3.7539 4.6289-3.9336 5.1406-3.9414.44922 0 5.2109.023437 5.5312 3.9414l.62109 12.613c-1.3594-1.0586-2.7031-2.0859-3.9297-2.9648-2.1289-1.5391-4.7812-2.1406-7.3633-1.7695zm29.75 23.867c-.86328.64062-1.6562 1.3555-2.3867 2.1445-.15625-.14062-.26172-.3125-.42188-.44922-1.75-1.5039-3.832-3.2539-6.0195-5.1016l-.35547-.30078-1.0273-20.734c-.66406-8.1797-7.8477-12.359-14.539-12.25-5.793.09375-10.527 3.0703-12.668 7.6406-3.4297-.24609-8.2031.089844-12.086 2.9844-1.4453 1.0781-3.0391 2.7852-4.1914 5.3945-1.3242-.32422-2.7344-.49609-4.1445-.50391-4.7461.058594-10.246 2.3359-12.762 8.082-2.2383-.21484-4.6172.019531-6.625.69141-4.1055 1.3867-6.8711 4.3672-8.0195 8.5469-.8125-.48047-1.6133-.97656-2.4883-1.3438-2.3281-.96094-4.7109-1.4102-7.0273-1.375l-.003906-51.641h61.434l54.43 14.941zm-76.484 15.434c.78516-2.6406.8125-5.4141.054687-8.1836 0-.03125.011719-.054687.007813-.085937l-.5625-6.3281c-.070313-3.2383 1.2148-4.0742 1.6367-4.3516 1.0625-.69141 2.5156-.82812 3.6445-.75391l1.6211 18.945c.070312 1.3906.39844 2.7188.94141 3.9648-.69922.58203-1.5039.76953-2.1758.80078-1.7422-1.6914-3.5781-3.0273-5.168-4.0078zm-173.8-260.29h271.07v177.75h-271.07zm-46.691 197.86c-3.6797-.76562-7.5469.074219-10.621 2.2852-2.8711 2.0859-6.5195 4.918-10.758 8.3203l1.3125-25.93c.5625-7.207 7.6211-9.0508 11.5-8.9688 3.8633.058594 10.488 1.9805 10.82 8.6211v16.375c-.72266-.28516-1.4648-.53906-2.2539-.70312zm12.719 46.156c-3.6875-1.125-6.0391-4.3008-7.0156-9.0469l.45312-.5625c3.8945-4.8164 5.9805-10.812 5.875-16.867-.042969-2.5703-.36328-4.8438-.89062-6.9766l-.003906-24.645c3.8633-.44141 9.4844-.33594 13.168 2.4258 2.9375 2.207 4.4336 5.875 4.5781 10.828l-2.3438 38.289c-.11719 1.0977-.64062 2.2383-1.4727 3.2031-2.7344 3.1484-8.1602 4.625-12.348 3.3516zm27.629 6.293c-2.3594-.58203-5.3359-2.1211-6.9961-6.0391 1.1016-1.8438 1.8125-3.875 2.043-6.082l2.2852-37.566c1.6797-.83203 7.207-1.2539 12.199 1 3.6445 1.6445 5.5586 4.0352 5.6914 7.1055l-2.9688 34.91c-.050781 1.4961-.60937 2.832-1.668 3.9727-2.3516 2.5469-6.707 3.6523-10.586 2.6992zm25.094 4.1055c-1.5625-.16016-4.1641-.87109-6.0117-3.4648 1.25-2.1094 1.9727-4.4297 2.0469-6.7891l2.5078-29.391c2.3164-1.0703 7.4961-2.2695 10.727-.67188.83203.41406 3.3555 1.668 3.1094 7.6875l-2.207 25.008c-.17969 1.4336-.62109 2.6797-1.3672 3.75-1.8008 2.6758-5.3125 4.2461-8.8047 3.8711zm128.86 10.297c-2.6172-.0625-5.9531-.050781-9.7148.027344l12.879-15.305c.63672-.73828 1.3359-1.2656 2.2188-1.6797 2.4023-1.1289 4.9023-.41406 6.1797.11719 2.7656 1.1406 5.1406 3.5156 6.0469 6.0273.73828 2.0625.47266 4.0234-.6875 5.6836l-7.625 10.043c-.20703-.28516-.37891-.59375-.61719-.86328-2.207-2.5039-5.3789-3.9805-8.6797-4.0508zm6.8242 24.102c1.25-1.7383 2.2227-3.4531 3.0234-5.2266l11.855-15.621c1.375.86328 2.9844 2.0469 4.3281 3.5664 2.3516 2.6289 4.4531 6.4805.035156 12.664l-20.859 24.184c-.64062.68359-1.5312.98828-2.207 1.125-2.7344.58203-6.875-.625-9.0742-3.6562-1.9922-2.75-1.4023-5.8906-.25391-8.4336l.35547-.089844c5.1523-1.2852 9.6875-4.293 12.797-8.5117zm7.9141 71.375c-2.3203 3.0625-4.4375 4.7031-6.8125 5.6445v-31.641c1.5039.78125 3.1055 1.332 4.7461 1.6484.32812 4.3945 2.5195 8.418 6.3359 11.164 1.5273 1.0977 3.1992 1.8828 4.9219 2.3945zm32.34-36.348l-13.984 15.363c-.33594.33594-.66797.65234-1.0312.91016-.027344.019532-.039063.054688-.070313.070313-2.5859 1.7422-5.7773 1.0625-7.793-.39062-.89062-.64062-2.6133-2.2539-2.6914-4.9219 1.7969-.8125 3.3828-1.9648 4.6055-3.4531l17.855-19.766c1.543.76562 3.875 2.4453 4.8555 4.918.33203.83984 1.3438 3.3906-1.7461 7.2695zm-8.0312-28.883c1.8945 2.7695 1.8125 5.7617-.24609 9.1445l-19.422 21.504c-.69141.84375-1.5898 1.3672-2.6875 1.5586-3.1562.55859-7.6289-1.7383-8.9805-5.7422-.45703-1.2891-.51953-2.668-.21875-4.0977 1.625-.70312 3.0938-1.6875 4.332-3.0156l20.441-23.719c1.2617.16797 4.7812 1.4453 6.7812 4.3672zm8.0117-33.199c-1.832.45703-3.9805-.066407-4.9648-1.1484-.39844-.45312-.59375-.93359-.63672-1.7031l-1.8359-21.465c.34375-3.0117 1.7852-3.9609 2.8672-4.4141 1.8984-.80078 4.0273-.44531 5.0273-.027344l1.4023 23.027c.125 1.2695.50391 2.4766 1.043 3.5664-.65625 1.1133-1.6133 1.8516-2.9023 2.1641zm17.188-3.9297c-2.2227.65625-4.7852-.31641-6.0469-1.7773-.35156-.36719-.41797-.67969-.42188-.71484l-1.4609-23.711c.097657-4.1445 1.6523-5.3203 2.1641-5.707 1.4609-1.1016 3.668-1.3359 5.5664-1.2734v13.883c-.28906 1.2695-.48438 2.6445-.53516 4.25-.10938 4.0664 1.2656 8.1094 3.8164 11.395-.53516 1.9453-1.5586 3.1914-3.082 3.6562zm30.723 43.699c-3.0156.42188-6.2031-.80469-7.9648-3.0742-.82031-1.043-1.3164-2.2969-1.4727-3.6094l-2.0625-23.074c-.035156-1.5898.11719-2.8984.46094-4 .023438-.070312.03125-.15234.054688-.22266.027344-.089844.050781-.18359.074219-.28516v-.003906c.72266-2.2695 2.1758-3.7852 4.4375-4.6367 2.5391-.96094 5.3633-.78516 7.0156-.40625l2.5312 29.883c.078125 2.2852.74219 4.4531 1.8633 6.4492-1.4453 2.0078-3.3867 2.7617-4.9375 2.9805zm22.988-3.7969c-3.5234.86719-7.4609-.13672-9.5352-2.3945-.95703-1.0664-1.4453-2.2266-1.5039-3.7656l-2.7188-32.152c.10547-1.0938.33594-2.168.66406-3.1523.74219-2.1094 1.9766-3.707 3.6719-4.7422 4.5-2.7344 10.391-1.1914 11.691.019532l2.1055 35.332c.17969 1.9492.83594 3.8398 1.875 5.5781-1.5234 3.4062-4.1523 4.7617-6.25 5.2773zm45.633-70.84c3.6953-.085938 9.9062 1.5898 10.402 7.9531l1.1562 23.543c-3.7227-2.9805-6.9531-5.4844-9.5078-7.3359-2.957-2.1055-6.6719-2.8789-10.199-2.1367-.57031.12109-1.0938.32812-1.625.51562l-.003906-14.578c.28125-5.7773 5.4453-7.8984 9.7773-7.9609zm-18.664 11.473v22.613c-.49609 2.0547-.80078 4.1914-.84375 6.5352-.10547 5.6445 1.8477 11.277 5.5195 15.895l.35547.44922c-.91016 4.2109-3.0156 7.0312-6.293 8.0312-3.7852 1.1484-8.6875-.17969-11.18-3.0547-.53906-.60938-1.2031-1.582-1.2969-2.6133l-2.1289-35.441c.19531-7.9688 3.668-10.344 6.2617-11.434 3.1992-1.3477 6.9609-1.2734 9.6055-.98047zm-14.73-6.3945c-3.3125 1.7773-6.7148 4.9023-8.582 10.391-2.0938-.75391-4.5859-1.2227-7.2305-1.2188l18.129-37.172 9.0938 2.4961zm90.145-23.551c-1.0859.78906-2.3906 1.7969-3.7852 2.8945l.61328-12.426c.30469-4.0234 4.9297-4.0469 5.4219-4.0625.50391.003906 4.9023.17969 5.082 3.7188v8.0977c-2.5625-.36719-5.2031.23828-7.332 1.7773zm16.016 27.195c-1.5234-.45703-2.5469-1.7109-3.0898-3.6719 2.5625-3.3164 3.9297-7.3398 3.8164-11.391-.042968-1.6211-.23438-3.0547-.52734-4.418l-.003906-13.723c1.8633-.058593 4.0039.17969 5.4375 1.2578.51172.38281 2.0664 1.5547 2.1719 5.3633l-1.4102 23.906c-.019531.20312-.089844.51562-.60938 1.0742-1.0781 1.2812-3.6055 2.25-5.7852 1.6016zm17.059 3.9141c-1.2695-.3125-2.2227-1.0469-2.8711-2.1562.5625-1.1328.9375-2.3711 1.0664-3.7266l1.3359-22.836c.51172-.21484 1.3359-.44531 2.4531-.44531 3.1836 0 4.9805 1.6406 5.3594 4.875l-1.8398 21.602c-.03125.61719-.22266 1.1172-.57031 1.4922-1.0469 1.1367-3.1133 1.6445-4.9336 1.1953zm14.648 2.4141c-.46094-.12891-.83984-.37891-1.1875-.67188.51953-1.2031.83594-2.4922.90625-3.8203l1.6289-19.09c1.0938-.0625 2.4883.070312 3.5156.74219.42188.27734 1.6992 1.1094 1.6445 4.0742l-1.3672 15.621c-.10938.97656-.57422 1.7852-1.3555 2.3945-1.0586.80078-2.5469 1.0938-3.7852.75zM350 84.43c2.4531 0 4.4453-1.9922 4.4453-4.4453v-75.539c0-2.4531-1.9922-4.4453-4.4453-4.4453s-4.4453 1.9922-4.4453 4.4453v75.543c.003907 2.4531 1.9922 4.4414 4.4453 4.4414zM230.58 104.37c.8125 1.457 2.3242 2.2812 3.8867 2.2812.73047 0 1.4727-.18359 2.1562-.55859 2.1406-1.1914 2.918-3.8984 1.7227-6.043l-22.219-39.992c-1.1914-2.1406-3.8945-2.918-6.043-1.7227-2.1406 1.1914-2.918 3.8984-1.7227 6.043zM128.89 162.89c.87891 1.0117 2.1172 1.5312 3.3594 1.5312 1.0312 0 2.0664-.35938 2.9062-1.0859 1.8516-1.6094 2.0547-4.418.44922-6.2695l-57.77-66.656c-1.6055-1.8594-4.4141-2.0547-6.2695-.44922-1.8516 1.6094-2.0547 4.418-.44922 6.2695zM463.38 106.09c.68359.37891 1.4258.55859 2.1562.55859 1.5625 0 3.0742-.82813 3.8867-2.2852l22.219-39.992c1.1953-2.1445.41797-4.8516-1.7227-6.043-2.1445-1.1953-4.8516-.41797-6.043 1.7227l-22.219 39.992c-1.1953 2.1484-.41797 4.8555 1.7227 6.0469zM567.74 164.42c1.2461 0 2.4844-.51953 3.3594-1.5312l57.77-66.656c1.6055-1.8516 1.4023-4.6602-.44922-6.2695-1.8516-1.6055-4.6602-1.4102-6.2695.44922l-57.77 66.656c-1.6055 1.8516-1.4023 4.6602.44922 6.2695.83984.72266 1.8789 1.082 2.9102 1.082z" fill="#ffbf66" class="color000 svgShape"></path><use x="70.043" y="626.656" xlink:href="#a"></use><use x="86.348" y="626.656" xlink:href="#b"></use><use x="97.305" y="626.656" xlink:href="#c"></use><use x="112.375" y="626.656" xlink:href="#d"></use><use x="127.367" y="626.656" xlink:href="#e"></use><use x="137.988" y="626.656" xlink:href="#c"></use><use x="153.059" y="626.656" xlink:href="#f"></use><use x="176.699" y="626.656" xlink:href="#g"></use><use x="192.602" y="626.656" xlink:href="#h"></use><use x="214.82" y="626.656" xlink:href="#i"></use><use x="232.016" y="626.656" xlink:href="#j"></use><use x="255.168" y="626.656" xlink:href="#c"></use><use x="270.238" y="626.656" xlink:href="#e"></use><use x="280.859" y="626.656" xlink:href="#k"></use><use x="296.676" y="626.656" xlink:href="#h"></use><use x="311.16" y="626.656" xlink:href="#l"></use><use x="324.387" y="626.656" xlink:href="#e"></use><use x="342.742" y="626.656" xlink:href="#m"></use><use x="358.746" y="626.656" xlink:href="#e"></use><use x="369.367" y="626.656" xlink:href="#n"></use><use x="385.184" y="626.656" xlink:href="#f"></use><use x="401.086" y="626.656" xlink:href="#o"></use><use x="408.703" y="626.656" xlink:href="#p"></use><use x="70.043" y="648.875" xlink:href="#q"></use><use x="79.707" y="648.875" xlink:href="#b"></use><use x="90.668" y="648.875" xlink:href="#p"></use><use x="105.93" y="648.875" xlink:href="#j"></use><use x="136.816" y="648.875" xlink:href="#e"></use><use x="147.438" y="648.875" xlink:href="#k"></use><use x="163.258" y="648.875" xlink:href="#c"></use><use x="186.063" y="648.875" xlink:href="#r"></use><use x="204.656" y="648.875" xlink:href="#p"></use><use x="219.922" y="648.875" xlink:href="#n"></use><use x="235.738" y="648.875" xlink:href="#s"></use><use x="259.293" y="648.875" xlink:href="#t"></use><use x="275.574" y="648.875" xlink:href="#b"></use><use x="286.535" y="648.875" xlink:href="#p"></use><use x="301.797" y="648.875" xlink:href="#u"></use><use x="309.414" y="648.875" xlink:href="#c"></use><use x="324.484" y="648.875" xlink:href="#v"></use><use x="337.652" y="648.875" xlink:href="#e"></use></svg></g></svg>