<svg width="1592" height="1574" xmlns="http://www.w3.org/2000/svg" xmlns:xlink="http://www.w3.org/1999/xlink" overflow="hidden"><defs><clipPath id="clip0"><rect x="1238" y="236" width="1592" height="1574"/></clipPath></defs><g clip-path="url(#clip0)" transform="translate(-1238 -236)"><path d="M2061.73 625.176 2096.99 280.992 1934.99 284.773 1963.89 487.537 1939.78 462.106 1972.35 690.782 2004.76 630.847 2014.46 783.401 1980.75 749.722 2026.09 1067.99 2042.43 827.563 2066.68 845.743 2094.79 598.027Z" fill="#EBEBEB" fill-rule="evenodd"/><path d="M1583.16 1032.22 1238.99 996.992 1242.77 1158.99 1445.51 1130.09 1420.08 1154.18 1648.77 1121.6 1588.86 1089.19 1741.42 1079.52 1707.71 1113.2 2025.99 1067.86 1785.55 1051.55 1803.73 1027.3 1556.01 999.194Z" fill="#EBEBEB" fill-rule="evenodd"/><path d="M1990.92 1511.06 1960.43 1809.99 2120.99 1809.99 2088.37 1648.73 2112.39 1674.18 2079.91 1445.39 2047.67 1505.35 2038 1352.72 2071.55 1386.42 2026.39 1067.99 2010.15 1308.58 1985.99 1290.35 1957.99 1538.22Z" fill="#EBEBEB" fill-rule="evenodd"/><path d="M1655.09 801.986 1520.81 716.411 1543.95 709.397 1379.65 612.992 1301.99 755.09 1616.86 879 1582.79 887.114 1672.38 925.827 1727.63 948.037 2025.99 1067.99 1825.84 933.597 1853.76 921.701 1653.16 773.449Z" fill="#EBEBEB" fill-rule="evenodd"/><path d="M1759.99 1438.88 1674.41 1573.19 1667.4 1550.02 1570.99 1714.34 1713.09 1791.99 1837 1477.11 1845.15 1511.17 1883.83 1421.62 1906.04 1366.34 2025.99 1067.99 1891.63 1268.13 1879.74 1240.25 1731.48 1440.8Z" fill="#EBEBEB" fill-rule="evenodd"/><path d="M1624.67 1258.41 1308.99 1399.87 1393.2 1537.99 1554.39 1411.75 1544.38 1445.26 1726.16 1302.87 1658.08 1304.8 1785.34 1220.23 1773.01 1266.17 2025.99 1067.99 1809.61 1174.02 1813.25 1143.94 1584.66 1243.41Z" fill="#EBEBEB" fill-rule="evenodd"/><path d="M2324.38 1187.95 2025.99 1067.99 2226.17 1202.39 2230.22 1184.34 2316.2 1236.25 2291.38 1248.84 2391.83 1320.35 2672.34 1522.99 2749.99 1380.9 2471.03 1268.74 2505.47 1260.77 2379.62 1210.16Z" fill="#EBEBEB" fill-rule="evenodd"/><path d="M2346.56 1092.02 2469.41 1103.76 2813.99 1138.99 2810.21 976.992 2512.25 1019.38 2538.12 995.23 2403.72 1014.36 2344.67 1022.76 2025.99 1068.11 2266.76 1084.42 2261.26 1066.73 2361.77 1068.73Z" fill="#EBEBEB" fill-rule="evenodd"/><path d="M1893.98 775.436 1845.63 662.083 1712.04 342.992 1571.99 423.762 1751.29 664.833 1717.8 653.697 1798.68 762.444 1834.2 810.184 2025.99 1067.99 1925.41 849.056 1912.54 862.323 1866.32 773.236Z" fill="#EBEBEB" fill-rule="evenodd"/><path d="M2159.12 1360.16 2207.9 1473.33 2342.64 1791.99 2482.99 1710.91 2302.53 1470.38 2336.17 1481.41 2254.75 1372.91 2219.02 1325.26 2025.99 1067.99 2127.45 1286.64 2140.32 1273.31 2186.9 1362.29Z" fill="#EBEBEB" fill-rule="evenodd"/><path d="M2206.82 802.607 2278.33 702.194 2480.99 421.649 2338.91 343.993 2226.73 622.991 2218.75 588.546 2168.18 714.363 2145.97 769.641 2025.99 1067.99 2160.38 867.854 2142.33 863.797 2194.28 777.822Z" fill="#EBEBEB" fill-rule="evenodd"/><path d="M2375.7 883.484 2587.68 771.597 2552.03 766.267 2739.99 667.067 2647.8 523.992 2378.38 765.579 2381.82 720.226 2189.49 896.516 2219.12 906.419 2025.99 1067.99 2321.05 912.299 2272.8 903.668 2407.12 818.6Z" fill="#EBEBEB" fill-rule="evenodd"/><path d="M2829.99 1244.12 2527.99 1155.99 2794.56 1258.99Z" fill="#EBEBEB" fill-rule="evenodd"/><path d="M1340.99 879.333 1647.99 955.993 1376.02 862.993Z" fill="#EBEBEB" fill-rule="evenodd"/><path d="M2462.99 856.993C2469.06 855.242 2813.15 702.992 2813.15 702.992L2829.99 733.195Z" fill="#EBEBEB" fill-rule="evenodd"/><path d="M1395.42 1636.99 1354.99 1636.99 1633.99 1375.99Z" fill="#EBEBEB" fill-rule="evenodd"/><path d="M1564.03 1633.99C1572.71 1636.47 1580.01 1642.37 1584.26 1650.32 1588.41 1658.24 1590.68 1667.01 1590.91 1675.94 1591.84 1693.13 1585.12 1711.76 1577.12 1726.99 1560.79 1716.99 1553.86 1696.05 1551.04 1685.01 1546.52 1667.82 1548.9 1633.89 1564.1 1633.99" fill="#FFC100" fill-rule="evenodd"/><path d="M1597.86 1752.63C1594.24 1743.09 1595.97 1732.34 1602.38 1724.44 1608.88 1716.72 1618.18 1711.96 1628.2 1711.23 1632.78 1710.42 1637.48 1711.69 1641.05 1714.69 1643.91 1718.04 1644.76 1722.67 1643.28 1726.83 1641.75 1730.89 1639.18 1734.46 1635.84 1737.2 1624.87 1747.06 1612.46 1754.5 1597.86 1752.73" fill="#FFC100" fill-rule="evenodd"/><path d="M1588.08 1806.99C1587.97 1805.85 1587.97 1804.69 1588.08 1803.55 1588.08 1801.03 1588.08 1797.76 1588.08 1793.86 1587.92 1783.13 1589.5 1772.45 1592.76 1762.22 1596.21 1751.98 1602.34 1742.83 1610.51 1735.71 1613.02 1733.61 1615.77 1731.81 1618.7 1730.34 1619.7 1729.82 1620.57 1729.51 1621.13 1729.27L1621.99 1728.99C1618.14 1731.1 1614.49 1733.57 1611.1 1736.37 1603.18 1743.52 1597.21 1752.56 1593.76 1762.63 1590.57 1772.76 1588.9 1783.29 1588.8 1793.9 1588.6 1797.96 1588.46 1801.27 1588.28 1803.55 1588.32 1804.7 1588.25 1805.85 1588.08 1806.99Z" fill="#263238" fill-rule="evenodd"/><path d="M1563.99 1659.99C1564.2 1660.48 1564.35 1660.99 1564.45 1661.51 1564.69 1662.61 1565.04 1664.03 1565.42 1665.82 1566.3 1669.58 1567.45 1675.03 1568.91 1681.76 1571.67 1695.25 1575.22 1713.95 1578.68 1734.65 1582.13 1755.35 1584.78 1774.22 1586.56 1787.84 1587.43 1794.74 1588.09 1800.19 1588.51 1804.02 1588.51 1805.85 1588.83 1807.3 1588.93 1808.44 1589.01 1808.95 1589.01 1809.48 1588.93 1809.99 1588.78 1809.5 1588.68 1808.99 1588.62 1808.47 1588.62 1807.34 1588.23 1805.89 1587.95 1804.09 1587.36 1800.13 1586.56 1794.68 1585.58 1787.98 1583.59 1774.18 1580.77 1755.55 1577.35 1734.85 1573.93 1714.16 1570.38 1695.46 1567.97 1681.93 1566.71 1675.28 1565.7 1669.86 1564.97 1665.93 1564.66 1664.13 1564.38 1662.68 1564.17 1661.55 1564.07 1661.03 1564.01 1660.51 1563.99 1659.99Z" fill="#263238" fill-rule="evenodd"/><path d="M1574.99 1766.82C1568.05 1746.66 1551.86 1731.1 1531.51 1725.04 1526.41 1723.56 1520.01 1723.12 1516.73 1727.31 1513.44 1731.51 1515.36 1737.63 1518.09 1742.3 1530.08 1761.68 1552.48 1771.92 1574.89 1768.26" fill="#FFC100" fill-rule="evenodd"/><path d="M1535.99 1740.99C1537.11 1741.16 1538.2 1741.42 1539.27 1741.77 1540.54 1742.11 1541.8 1742.52 1543.03 1742.99 1544.46 1743.57 1546.16 1744.08 1547.9 1744.96 1549.83 1745.81 1551.71 1746.76 1553.55 1747.8 1555.56 1748.89 1557.58 1750.24 1559.71 1751.66 1564.25 1754.88 1568.39 1758.59 1572.07 1762.71 1577.33 1768.67 1581.44 1775.5 1584.23 1782.87 1584.97 1784.81 1585.61 1786.79 1586.14 1788.8 1586.7 1790.59 1586.91 1792.18 1587.25 1793.81 1587.51 1795.06 1587.68 1796.33 1587.78 1797.6 1587.95 1798.73 1588.02 1799.86 1587.99 1800.99 1587.67 1800.99 1587.39 1796.35 1585.27 1789.14 1584.7 1787.17 1584.02 1785.23 1583.22 1783.34 1582.38 1781.15 1581.4 1779.01 1580.29 1776.94 1575.26 1767.34 1567.99 1759.03 1559.05 1752.68 1556.96 1751.26 1555.01 1749.87 1553.02 1748.79 1551.04 1747.7 1549.23 1746.72 1547.49 1745.84 1540.56 1742.45 1535.92 1741.26 1535.99 1740.99Z" fill="#263238" fill-rule="evenodd"/><path d="M1670.45 589.992C1670.45 589.992 1630.72 781.268 1632.02 860.482 1633.09 922.91 1827.26 1285.99 1827.26 1285.99L1900.99 1076.66C1900.99 1076.66 1764.09 847.961 1761.76 817.865 1759.42 787.769 1762.61 610.664 1762.61 610.664Z" fill="#A36957" fill-rule="evenodd"/><path d="M1660.99 636.774 1699.8 456.194C1699.8 456.194 1718.45 411.983 1732.31 396.412 1732.31 396.412 1745.7 361.256 1759.42 374.187 1759.42 374.187 1775.01 359.095 1780.45 380.36 1780.45 380.36 1801.29 362.456 1808.59 381.424 1808.59 381.424 1830.99 373.604 1834.19 392.159 1834.19 392.159 1847.16 386.774 1852.21 394.731 1857.27 402.689 1857.99 429.269 1857.99 429.269L1820.87 469.055C1814.02 476.214 1804.73 480.558 1794.83 481.231 1785.5 481.952 1774.56 485.279 1771.95 496.426 1767.2 516.696 1761.01 640.993 1761.01 640.993Z" fill="#A36957" fill-rule="evenodd"/><path d="M1749.99 440.988C1750.14 440.568 1750.33 440.168 1750.58 439.797 1751.25 438.706 1751.97 437.65 1752.75 436.632 1755.61 432.938 1759.11 429.761 1763.07 427.239 1769.05 423.414 1775.94 421.176 1783.05 420.738 1794.73 420.086 1806.18 424.095 1814.84 431.867L1813.46 432.037C1818.98 423.79 1827.92 418.392 1837.85 417.301L1837.2 418.219C1835.62 411.439 1836.04 404.352 1838.4 397.799 1839.05 396.008 1839.85 394.277 1840.81 392.626 1841.11 392.022 1841.5 391.47 1841.98 390.992 1842.15 390.992 1840.64 393.443 1839.19 398.071 1837.2 404.479 1837.01 411.305 1838.64 417.811L1838.85 418.628 1837.99 418.628C1828.58 419.811 1820.17 425.01 1814.98 432.854L1814.39 433.739 1813.6 433.024C1811.61 431.235 1809.44 429.65 1807.13 428.293 1799.88 423.989 1791.5 421.927 1783.05 422.372 1776.21 422.749 1769.58 424.782 1763.72 428.293 1759.76 430.657 1756.19 433.62 1753.16 437.074 1751.13 439.559 1750.13 441.09 1749.99 440.988Z" fill="#7C3B29" fill-rule="evenodd"/><path d="M1780.99 379.385C1780.6 380.908 1780.02 382.381 1779.28 383.772 1776.15 390.294 1772.05 396.331 1767.13 401.691 1764.96 404.615 1761.65 406.531 1757.99 406.982 1755.83 407.106 1753.74 406.163 1752.44 404.47 1751.28 402.691 1750.85 400.554 1751.21 398.475 1751.86 394.484 1752.84 390.552 1754.15 386.72 1755.61 382.373 1757.35 378.122 1759.36 373.993L1760.93 374.73C1758.37 380.3 1755.29 385.626 1751.72 390.638 1750.14 392.776 1748.35 394.761 1746.38 396.566 1744.7 398.253 1742.54 399.418 1740.18 399.916 1738.17 400.284 1736.1 399.756 1734.54 398.475 1733.4 397.465 1732.84 395.979 1733.03 394.49 1733.41 392.011 1735.12 391.576 1735.05 391.676 1734.18 392.387 1733.66 393.419 1733.61 394.523 1733.53 395.812 1734.09 397.061 1735.12 397.873 1736.51 398.893 1738.29 399.26 1739.98 398.877 1743.85 398.107 1747.27 394.155 1750.52 389.868 1753.91 384.858 1756.84 379.568 1759.29 374.06L1760.86 374.796C1758.91 378.858 1757.24 383.043 1755.86 387.323 1754.58 391.034 1753.6 394.842 1752.95 398.71 1752.64 400.377 1752.94 402.1 1753.81 403.566 1754.78 404.831 1756.34 405.535 1757.95 405.442 1761.23 405.073 1764.19 403.386 1766.14 400.786 1768.16 398.66 1770.06 396.424 1771.82 394.088 1774.35 390.71 1776.64 387.163 1778.67 383.471 1779.33 382.052 1780.11 380.686 1780.99 379.385Z" fill="#7C3B29" fill-rule="evenodd"/><path d="M1806.99 382.594C1806.49 383.675 1805.86 384.689 1805.11 385.612L1799.55 393.534C1797.15 396.963 1794.31 400.804 1790.81 404.988 1789.06 407.046 1787.14 409.172 1785.09 411.299 1782.99 413.713 1780.33 415.564 1777.34 416.683 1775.64 417.184 1773.82 417.075 1772.2 416.374 1770.7 415.655 1769.49 414.445 1768.77 412.945 1767.73 410.074 1767.73 406.933 1768.77 404.062 1769.56 401.593 1770.53 399.186 1771.68 396.861 1772.68 394.7 1773.64 392.676 1774.53 390.79 1776.24 387.086 1777.68 384.103 1778.71 382.079 1779.15 380.977 1779.74 379.938 1780.46 378.993 1780.26 380.188 1779.88 381.344 1779.33 382.422 1778.5 384.549 1777.27 387.601 1775.66 391.373L1773.05 397.512C1771.99 399.804 1771.09 402.164 1770.34 404.577 1769.45 407.071 1769.45 409.799 1770.34 412.293 1771.48 414.775 1774.29 416.013 1776.89 415.174 1779.53 414.104 1781.88 412.423 1783.75 410.27 1785.81 408.212 1787.69 406.154 1789.44 404.096 1792.87 400.05 1795.92 396.209 1798.42 392.985 1800.93 389.761 1802.98 387.155 1804.46 385.406 1805.17 384.356 1806.02 383.409 1806.99 382.594Z" fill="#7C3B29" fill-rule="evenodd"/><path d="M1833.99 392.304C1833.3 393.403 1832.45 394.404 1831.49 395.279L1824.1 402.89 1813.03 414.028C1810.9 416.324 1808.57 418.431 1806.07 420.324 1803.18 422.506 1799.51 423.407 1795.94 422.815 1794.06 422.438 1792.36 421.437 1791.13 419.978 1790.01 418.57 1789.3 416.883 1789.08 415.101 1788.74 411.84 1789.42 408.556 1791.03 405.692 1793.46 401.019 1796.21 396.512 1799.24 392.2 1801.82 388.534 1804.12 385.697 1805.72 383.795 1806.51 382.746 1807.44 381.804 1808.47 380.992 1808.68 380.992 1805.16 385.455 1800.32 392.927 1797.46 397.26 1794.86 401.753 1792.52 406.383 1791.13 408.968 1790.54 411.905 1790.82 414.824 1791.06 417.882 1793.3 420.416 1796.32 421.051 1799.41 421.545 1802.57 420.757 1805.06 418.871 1807.54 417.056 1809.87 415.043 1812.02 412.852L1823.37 401.99 1831.14 394.795C1832 393.87 1832.96 393.036 1833.99 392.304Z" fill="#7C3B29" fill-rule="evenodd"/><path d="M1745.99 490.993C1742.3 489 1738.9 486.526 1735.91 483.641 1732.53 481.171 1729.53 478.261 1726.99 474.993 1730.7 476.967 1734.1 479.443 1737.08 482.344 1740.46 484.804 1743.46 487.716 1745.99 490.993Z" fill="#7C3B29" fill-rule="evenodd"/><path d="M2126.79 1077.74 2281.99 1142.96 2169.04 1532.45C2264.7 1630.97 2278.87 1809.99 2278.87 1809.99L1754.99 1809.99C1754.99 1680.29 1866.47 1514.76 1866.47 1514.76L1825.87 1275.59 1900.07 1073.99 1972.35 1077.74C1977.85 1101.34 1997.75 1118.8 2021.81 1121.14 2089.04 1129.5 2126.79 1077.74 2126.79 1077.74Z" fill="#FFC100" fill-rule="evenodd"/><path d="M1962.99 1383.23C1962.6 1383.41 1962.18 1383.52 1961.75 1383.58 1960.92 1383.58 1959.68 1384.02 1958.09 1384.2 1953.51 1384.85 1948.89 1385.1 1944.27 1384.95 1913.37 1384.18 1885.09 1367.53 1869.49 1340.94 1867.15 1337.03 1865.15 1332.93 1863.51 1328.68 1862.89 1327.2 1862.58 1325.96 1862.3 1325.23 1862.15 1324.83 1862.05 1324.42 1861.99 1323.99 1862.82 1325.44 1863.52 1326.95 1864.1 1328.5 1865.94 1332.62 1868.06 1336.6 1870.46 1340.42 1886.32 1366.23 1914 1382.5 1944.33 1383.85 1948.85 1384.1 1953.37 1384.03 1957.88 1383.64 1959.57 1383.38 1961.28 1383.24 1962.99 1383.23Z" fill="#263238" fill-rule="evenodd"/><path d="M1869.66 1338.06C1868.43 1354.27 1867.95 1371.06 1876.91 1384.61 1885.86 1398.46 1900.46 1407.66 1916.81 1409.75 1933.31 1411.48 1949.44 1403.99 1958.76 1390.25 1959.41 1389.35 1959.84 1388.3 1959.99 1387.21 1959.89 1384.89 1958.23 1382.93 1955.96 1382.45 1953.71 1381.99 1951.38 1381.99 1949.13 1382.45 1916.98 1386.76 1884.22 1366.89 1869.53 1337.99" fill-rule="evenodd"/><path d="M2072 1210.18C2068.85 1204.78 2060.8 1205.4 2055.22 1208.15 2049.64 1210.9 2044.33 1215.21 2038.09 1215.03 2026.07 1214.62 2017.89 1197.66 2006.24 1200.62 2000.87 1201.96 1996.14 1207.5 1990.9 1205.78 1985.66 1204.06 1984.81 1197.49 1980.22 1195.46 1971.41 1191.5 1963.09 1207.77 1954.15 1204.13 1947.3 1201.37 1948.19 1189.71 1941.38 1186.92 1936.58 1185.03 1931.65 1188.88 1926.65 1190.36 1915.56 1193.36 1904.08 1179.73 1908.84 1169.2L1896.52 1174.92C1892.17 1169.58 1889.82 1162.88 1889.87 1155.99 1884.96 1163.06 1875.92 1165.88 1867.88 1162.87L1851.99 1207.15C1861.14 1203.13 1870.93 1210.6 1878.5 1217.17 1886.07 1223.74 1897.34 1230 1905.35 1224.05 1908.78 1221.47 1910.66 1217.17 1914.39 1215.1 1919.17 1213.05 1924.72 1214.2 1928.3 1217.99 1931.73 1221.75 1934.36 1226.17 1936 1231 1936.82 1223.05 1948.33 1222.16 1955.52 1225.49 1962.72 1228.83 1970.59 1234.23 1977.85 1231 1980.79 1229.15 1983.6 1227.09 1986.24 1224.84 1991.76 1221.4 1998.71 1221.71 2005.18 1222.19L2050.63 1225.63C2056 1226.52 2061.52 1225.94 2066.59 1223.94 2071.45 1221.23 2074.74 1214.86 2072 1210.18Z" fill="#FFFFFF" fill-rule="evenodd"/><path d="M2095.09 1151.82C2096.22 1159.9 2103.68 1165.54 2111.76 1164.41 2116.35 1163.77 2120.38 1161.01 2122.63 1156.95 2125.67 1164.74 2134.45 1168.6 2142.25 1165.57 2146.14 1164.05 2149.23 1160.99 2150.79 1157.12 2155.45 1164.66 2165.33 1167 2172.87 1162.34 2173.71 1161.82 2174.5 1161.23 2175.23 1160.56 2177.37 1158.36 2179.57 1155.26 2182.6 1155.81 2184.16 1156.37 2185.57 1157.29 2186.7 1158.5 2190.95 1161.08 2196.02 1161.94 2200.88 1160.91 2205.7 1159.89 2210.67 1159.83 2215.51 1160.74 2220.23 1162.15 2224.36 1167.07 2222.88 1171.76 2226.53 1166.25 2235.96 1168.59 2239.2 1174.34 2242.43 1180.09 2241.37 1187.22 2240.23 1193.72 2243.43 1189 2249.85 1187.76 2254.57 1190.96 2257.26 1192.78 2258.93 1195.76 2259.1 1198.99 2261.33 1195.89 2263.23 1196.31 2267.01 1196.44 2270.46 1183.22 2275.65 1167.76 2278.99 1154.54 2266.8 1158.73 2253.29 1155.62 2244.15 1146.52 2241.4 1143.69 2237.96 1140.04 2234.27 1141.42 2230.59 1142.8 2230.28 1146.93 2227.39 1148.89 2223.95 1151.44 2218.82 1149.1 2215.34 1146.38 2211.86 1143.66 2208.01 1140.32 2203.67 1141.04 2199.88 1141.69 2197.1 1145.28 2193.34 1145.79 2185.46 1146.86 2179.02 1134.5 2171.9 1138.04 2169.14 1139.42 2167.9 1142.8 2165.29 1144.48 2160.36 1147.65 2153.96 1143.31 2150.66 1138.49 2147.35 1133.67 2144.49 1127.68 2138.88 1125.99 2133.85 1132.24 2130.07 1139.41 2127.76 1147.1L2118.78 1137.32 2107.93 1149.82 2099.88 1144.62C2096.94 1144.87 2094.76 1147.46 2095.01 1150.39 2095.04 1150.77 2095.12 1151.15 2095.23 1151.51" fill="#FFFFFF" fill-rule="evenodd"/><path d="M2025.21 1483.69C2014 1489.1 2001.22 1490.31 1989.18 1487.11 1985.64 1485.82 1981.94 1485.03 1978.19 1484.78 1974.35 1484.58 1970.79 1486.8 1969.29 1490.33 1969.29 1484.27 1962.73 1480.06 1956.65 1479.37 1950.57 1478.69 1944.56 1480.68 1938.48 1481.15 1933.04 1481.99 1927.51 1480.37 1923.4 1476.74 1924.5 1480.38 1922.51 1484.25 1918.9 1485.47 1914.64 1486.81 1910.1 1484.92 1905.91 1483.24 1901.72 1481.57 1896.94 1480.13 1892.96 1482.15 1888.15 1484.61 1886.91 1490.78 1886.26 1496.15 1885.39 1490.84 1883.54 1485.73 1880.8 1481.09 1877.91 1476.35 1872.6 1473.63 1867.06 1474.03 1861.73 1474.78 1857.34 1480.88 1859.6 1485.74L1862.11 1508.14C1865.13 1516.67 1877.09 1517.32 1885.68 1514.48 1894.26 1511.63 1903.54 1506.7 1911.96 1510.13 1914.66 1511.64 1917.58 1512.74 1920.61 1513.38 1924.11 1513.06 1927.44 1511.76 1930.23 1509.65 1934.73 1507.18 1939.54 1505.3 1944.52 1504.07 1965.13 1498.55 1986.64 1499.2 2007.87 1499.89L2028.99 1500.61C2027.72 1494.85 2026.49 1489.27 2025.21 1483.69Z" fill="#FFFFFF" fill-rule="evenodd"/><path d="M1922.99 1476C1922.78 1475.6 1922.43 1475.25 1921.99 1475 1922.29 1475.35 1922.62 1475.69 1922.99 1476Z" fill="#FFFFFF" fill-rule="evenodd"/><path d="M2112.38 1177.99C2107.45 1183.83 2104.54 1191.1 2104.06 1198.72 2103.82 1199.89 2104.22 1201.09 2105.09 1201.9 2107.79 1203.54 2110.15 1196.87 2113.03 1198.24L2112.21 1216.92C2111.95 1218.52 2112.3 1220.15 2113.2 1221.5 2114.86 1223.03 2117.42 1223.03 2119.08 1221.5 2120.59 1219.92 2121.66 1217.97 2122.2 1215.86 2123.67 1220.03 2125.11 1224.24 2126.58 1228.41 2126.96 1229.47 2127.47 1230.67 2128.53 1230.94 2129.59 1231.22 2130.79 1230.33 2131.61 1229.44 2143.58 1215.98 2146.38 1196.69 2138.73 1180.39" fill="#263238" fill-rule="evenodd"/><path d="M1938 1177.2C1937.9 1185.61 1942.03 1193.52 1948.99 1198.27 1951.57 1199.71 1954.05 1201.3 1956.43 1203.05 1961.88 1207.83 1962.97 1215.79 1963.66 1222.99 1967.67 1218.33 1969.66 1212.28 1969.18 1206.16 1971.89 1210.6 1973.86 1215.44 1975.03 1220.5 1988.3 1202.74 1984.6 1177.62 1966.78 1164.4 1966.12 1163.91 1965.44 1163.44 1964.76 1162.99" fill="#263238" fill-rule="evenodd"/><path d="M1934.17 1154.61C1928.03 1159.9 1927.38 1171.77 1932.07 1176.19 1937.19 1180.36 1943.91 1181.93 1950.32 1180.45 1958.04 1179.24 1964.64 1174.16 1967.86 1166.96 1970.82 1159.51 1967.79 1151 1960.81 1147.17 1955.85 1145.43 1950.43 1145.62 1945.61 1147.72 1941.32 1149.07 1937.4 1151.42 1934.17 1154.58 1930.94 1157.82 1929.31 1162.35 1929.72 1166.93" fill="#455A64" fill-rule="evenodd"/><path d="M2123.37 1156.16C2115.09 1156.51 2106.98 1165.52 2108.1 1172.05 2109.62 1178.61 2114.1 1184.11 2120.23 1186.97 2127.25 1190.88 2135.78 1191 2142.91 1187.31 2150.02 1183.25 2152.92 1174.52 2149.66 1167.05 2146.73 1162.52 2142.2 1159.26 2136.97 1157.9 2132.64 1156.26 2127.98 1155.66 2123.37 1156.16 2118.73 1156.69 2114.57 1159.23 2112.01 1163.12" fill="#455A64" fill-rule="evenodd"/><path d="M1916.4 751.769C1906.06 756.82 1901.3 768.95 1900.44 780.53 1899.57 792.11 1901.64 803.484 1900.44 814.893 1899.02 829.772 1892.82 846.644 1902.13 858.396 1890.16 881.195 1891.48 908.658 1905.57 930.214 1890.19 949.268 1891.49 976.775 1908.61 994.3 1901.09 1003.82 1899.47 1016.7 1900.2 1028.66 1900.92 1040.62 1903.64 1052.72 1903.99 1064.78 1904.2 1075.98 1902.26 1087.39 1904.75 1098.32 1907.23 1109.24 1916.09 1120 1927.33 1119.52 1924.68 1131.34 1922.06 1144.05 1926.61 1155.32 1931.16 1166.59 1946.05 1174.36 1955.95 1167.28 1964.19 1161.37 1964.4 1149.41 1963.78 1139.31 1963.16 1129.21 1949.4 1113.78 1954.23 1104.43 1963.98 1085.43 1957.67 1059.04 1940.43 1043.78 1944.95 1031.02 1944.27 1017.01 1938.54 1004.75 1936.33 1001.18 1934.95 997.163 1934.5 992.994 1934.5 987.153 1939.16 982.686 1942.71 977.875 1953.91 962.951 1956.72 943.371 1950.16 925.918 1947.47 919.046 1943.26 912.173 1943.5 904.751 1943.74 898.566 1946.95 892.999 1949.05 887.157 1953.75 872.433 1949.84 856.334 1938.92 845.372 1952.77 827.497 1952.29 802.426 1937.74 785.1 1953.12 775.066 1956.3 750.737 1944.02 736.992" fill="#263238" fill-rule="evenodd"/><path d="M1946.99 1079.99C1939.37 1063.93 1926.24 1051.15 1909.99 1043.99 1912.59 1044.41 1915.1 1045.28 1917.41 1046.55 1923.16 1049.26 1928.41 1052.93 1932.95 1057.39 1937.5 1061.83 1941.31 1066.97 1944.24 1072.63 1945.56 1074.91 1946.49 1077.4 1946.99 1079.99Z" fill="#455A64" fill-rule="evenodd"/><path d="M1932.97 1041.04C1933.27 1041.44 1930.88 1043.74 1929.09 1047.31 1927.3 1050.89 1926.8 1053.99 1926.29 1053.99 1925.63 1051.4 1926.08 1048.66 1927.54 1046.41 1929.53 1042.67 1932.73 1040.67 1932.97 1041.04Z" fill="#455A64" fill-rule="evenodd"/><path d="M1931.99 1016.99C1928.59 1004.89 1921.19 994.314 1910.99 986.992 1922.85 992.509 1930.86 1003.95 1931.99 1016.99Z" fill="#455A64" fill-rule="evenodd"/><path d="M1940.99 943.993C1937.55 939.894 1933.7 936.104 1929.51 932.672 1924.95 929.666 1920.09 927.096 1914.99 924.993 1926.57 926.67 1936.41 933.856 1940.99 943.993Z" fill="#455A64" fill-rule="evenodd"/><path d="M1939.98 909.992C1940.3 910.43 1935.98 913.358 1931.88 918.002 1927.78 922.645 1925.49 927.188 1924.99 926.987 1927.11 919.533 1932.6 913.364 1939.98 910.161Z" fill="#455A64" fill-rule="evenodd"/><path d="M1934.99 866.993C1929.66 854.471 1919.54 844.718 1906.99 839.993 1908.99 840.024 1910.96 840.495 1912.76 841.37 1917.26 843.199 1921.38 845.875 1924.91 849.257 1928.42 852.645 1931.26 856.689 1933.27 861.173 1934.26 862.957 1934.85 864.947 1934.99 866.993Z" fill="#455A64" fill-rule="evenodd"/><path d="M1931.99 830.992C1930.03 837.061 1925.71 842.1 1920.01 844.993 1919.71 844.595 1922.84 841.908 1926.07 838.059 1927.85 835.551 1929.84 833.189 1931.99 830.992Z" fill="#455A64" fill-rule="evenodd"/><path d="M1933.99 794.993C1930.68 790.659 1926.88 786.721 1922.66 783.26 1918.07 780.274 1913.15 777.834 1907.99 775.992 1919.59 776.878 1929.67 784.243 1933.99 794.993Z" fill="#455A64" fill-rule="evenodd"/><path d="M1953.99 1126.34C1951.62 1127.04 1949.11 1127.18 1946.67 1126.76 1934.49 1125.59 1923.88 1118 1918.9 1106.89 1917.76 1104.76 1917.11 1102.4 1916.99 1099.99 1917.31 1099.99 1918 1102.61 1920.05 1106.48 1925.39 1116.74 1935.32 1123.86 1946.81 1125.65 1951.18 1126.24 1953.96 1126.07 1953.99 1126.34Z" fill="#455A64" fill-rule="evenodd"/><path d="M2156.63 774.601C2168.34 780.822 2175.46 793.675 2177.55 806.803 2179.64 819.931 2177.38 833.335 2174.12 846.257 2195.34 866.341 2201.55 897.708 2189.6 924.408 2201.86 946.815 2198.65 974.55 2181.62 993.555 2189.4 1004.84 2192.59 1018.68 2190.53 1032.25 2189.33 1039.92 2185.29 1048.34 2177.75 1049.92 2181.18 1059.99 2184.6 1070.33 2184.6 1081.02 2184.6 1091.71 2180.29 1102.98 2171.25 1108.51 2168.79 1109.62 2166.63 1111.32 2164.98 1113.46 2164.15 1115.41 2163.82 1117.54 2164.02 1119.65 2164.71 1131.49 2163.05 1143.34 2159.13 1154.53 2154.71 1165.49 2145.94 1175.15 2134.5 1178.18 2129.02 1179.91 2123.04 1178.85 2118.48 1175.32 2114.82 1171.28 2112.88 1165.97 2113.07 1160.51 2112.32 1144.58 2117.17 1128.89 2126.77 1116.18 2128.41 1114.37 2129.64 1112.22 2130.36 1109.89 2130.62 1106.1 2129.7 1102.33 2127.72 1099.1 2120.99 1082.27 2124.65 1063.05 2137.11 1049.92 2138.74 1048.64 2139.85 1046.81 2140.22 1044.76 2140.03 1043.06 2139.34 1041.46 2138.24 1040.16 2128.88 1024.93 2132.14 1005.1 2145.87 993.692 2148.03 992.008 2150.57 990.255 2150.94 987.541 2150.96 985.589 2150.43 983.667 2149.4 982.007 2140.46 963.209 2144.47 940.423 2153.99 921.933 2155.09 920.143 2155.8 918.143 2156.08 916.057 2155.84 913.132 2154.81 910.324 2153.1 907.946 2146.88 896.636 2145.24 883.356 2148.51 870.864 2149.76 867.155 2150.71 863.351 2151.35 859.488 2151.73 855.398 2142.42 849.9 2141.53 845.741 2138.68 832.579 2143.68 820.791 2143.82 807.319 2143.96 793.847 2148.27 779.825 2158.48 770.992" fill="#263238" fill-rule="evenodd"/><path d="M2188.92 964.993C2188.61 964.993 2188.2 961.518 2186.72 956.134 2182.85 941.987 2174.9 929.331 2163.88 919.794 2159.66 916.32 2156.71 914.27 2157.02 913.992 2159.84 915.177 2162.47 916.793 2164.8 918.787 2170.64 923.369 2175.66 928.942 2179.62 935.254 2183.61 941.556 2186.48 948.518 2188.1 955.821 2188.86 958.812 2189.14 961.911 2188.92 964.993Z" fill="#455A64" fill-rule="evenodd"/><path d="M2191.99 912.015C2190.9 916.179 2188.49 919.903 2185.1 922.651 2182.16 925.832 2178.29 928.047 2174 928.993 2173.76 928.523 2178.93 926.107 2183.86 921.41 2188.79 916.713 2191.41 911.612 2191.99 912.015Z" fill="#455A64" fill-rule="evenodd"/><path d="M2184.97 884.993C2184.66 884.993 2184.31 882.337 2182.75 878.388 2180.74 873.241 2177.54 868.653 2173.42 865.005 2169.25 861.413 2164.28 858.894 2158.93 857.667 2154.8 856.689 2151.99 856.723 2151.99 856.409 2154.27 855.854 2156.65 855.854 2158.93 856.409 2164.64 857.353 2169.98 859.868 2174.36 863.677 2178.74 867.486 2181.98 872.448 2183.72 878.004 2184.68 880.202 2185.11 882.596 2184.97 884.993Z" fill="#455A64" fill-rule="evenodd"/><path d="M2172.89 848.014C2173.29 848.273 2172.52 850.714 2171.18 853.488 2169.85 856.262 2168.46 858.259 2168.09 857.963 2167.72 857.667 2168.49 855.263 2169.82 852.526 2171.15 849.79 2172.52 847.755 2172.89 848.014Z" fill="#455A64" fill-rule="evenodd"/><path d="M2173.44 1035.99C2172.75 1018.5 2165.85 1001.83 2153.99 988.992 2156.2 990.351 2158.14 992.108 2159.7 994.173 2163.84 998.89 2167.17 1004.26 2169.58 1010.06 2171.96 1015.86 2173.39 1022.01 2173.82 1028.27 2174.14 1030.85 2174.02 1033.46 2173.44 1035.99Z" fill="#455A64" fill-rule="evenodd"/><path d="M2176.58 995.992C2177.46 999.187 2176.92 1002.61 2175.09 1005.38 2172.51 1010.29 2168.29 1012.39 2168.01 1011.93 2167.73 1011.48 2171.06 1008.95 2173.36 1004.54 2175.66 1000.13 2176.01 995.992 2176.58 995.992Z" fill="#455A64" fill-rule="evenodd"/><path d="M2171.99 1073.99C2169.66 1073.58 2167.44 1072.72 2165.44 1071.48 2155.35 1066.16 2147.42 1057.73 2142.93 1047.54 2141.86 1045.49 2141.2 1043.27 2140.99 1040.99 2144.22 1047.89 2148.4 1054.34 2153.43 1060.16 2158.94 1065.55 2165.19 1070.2 2171.99 1073.99Z" fill="#455A64" fill-rule="evenodd"/><path d="M2161.99 1068C2161.87 1071.84 2160.3 1075.51 2157.57 1078.37 2155.33 1081.6 2151.93 1083.95 2147.99 1084.99 2150.85 1082.6 2153.56 1080.07 2156.13 1077.41 2160.03 1072.63 2161.33 1067.86 2161.99 1068Z" fill="#455A64" fill-rule="evenodd"/><path d="M2154.75 1139.99C2153.62 1131.71 2151.37 1123.64 2148.09 1116.03 2144.32 1108.67 2139.58 1101.93 2133.99 1095.99 2136.13 1097.12 2138.04 1098.67 2139.62 1100.55 2147.86 1109.15 2153.13 1120.4 2154.58 1132.52 2155.07 1134.98 2155.12 1137.51 2154.75 1139.99Z" fill="#455A64" fill-rule="evenodd"/><path d="M2149.99 1121.16C2147.45 1122.23 2144.99 1123.49 2142.63 1124.92 2138.99 1127.62 2137.45 1131.18 2136.99 1130.99 2137.27 1127.91 2138.98 1125.15 2141.61 1123.56 2143.88 1121.49 2146.98 1120.6 2149.99 1121.16Z" fill="#455A64" fill-rule="evenodd"/><path d="M2127.13 922.993C2136.27 897.499 2145.34 871.799 2149.93 845.1 2154.52 818.4 2154.55 790.426 2145.86 764.761 2144.55 760.868 2133.1 734.685 2129 734.995 2126.06 734.995 2132.89 759.49 2131.31 761.97 2116.51 785.776 2111.82 814.749 2113.23 842.723 2114.86 869.904 2119.48 896.824 2127.03 922.993" fill="#263238" fill-rule="evenodd"/><path d="M2048.29 1145.99C2090.3 1146.36 2124.9 1113.14 2126.15 1071.22L2133.66 818.892C2137.87 751.175 2101.9 692.331 2033.99 689.992L2027.69 689.992C1964.42 691.523 1912.92 741.298 1909.35 804.379 1905.9 863.05 1903.11 927.947 1904.25 959.381 1906.63 1024.42 1972.05 1032.98 1972.05 1032.98 1972.05 1032.98 1972.05 1048.04 1971.6 1067.16 1970.65 1109.74 2004.45 1145.02 2047.1 1145.97 2047.5 1145.98 2047.9 1145.99 2048.29 1145.99Z" fill="#A36957" fill-rule="evenodd"/><path d="M1971.48 1034.21C1971.48 1034.21 2012.75 1035.63 2055.99 1006.99 2055.99 1006.99 2036.39 1055.01 1970.99 1050.72Z" fill="#7C3B29" fill-rule="evenodd"/><path d="M1934.99 851.245C1935.05 856.058 1939.01 859.942 1943.89 859.978 1948.63 860.251 1952.7 856.689 1952.98 852.02 1952.99 851.934 1952.99 851.852 1952.99 851.77 1952.9 846.967 1948.97 843.093 1944.09 843.004 1939.31 842.764 1935.24 846.389 1935 851.097 1935 851.146 1935 851.196 1934.99 851.245Z" fill="#263238" fill-rule="evenodd"/><path d="M1924.15 839.823C1925.32 840.992 1932.07 835.75 1941.81 835.549 1951.55 835.349 1958.87 840.024 1959.88 838.888 1960.39 838.354 1959.21 836.251 1956.02 834.08 1951.74 831.256 1946.68 829.834 1941.54 830.007 1936.46 830.111 1931.55 831.817 1927.5 834.882 1924.58 837.186 1923.58 839.256 1924.15 839.823Z" fill="#263238" fill-rule="evenodd"/><path d="M2028.99 852.698C2029.09 857.784 2033.24 861.887 2038.39 861.981 2043.43 862.234 2047.73 858.396 2047.99 853.411 2047.99 853.358 2047.99 853.306 2047.99 853.254 2047.9 848.171 2043.74 844.079 2038.6 844.006 2033.57 843.735 2029.28 847.538 2029 852.506 2029 852.569 2029 852.635 2028.99 852.698Z" fill="#263238" fill-rule="evenodd"/><path d="M1988.24 911.444C1988.24 910.859 1981.88 909.964 1971.57 908.897 1968.94 908.691 1966.48 908.243 1965.98 906.523 1965.69 903.894 1966.23 901.237 1967.53 898.918L1974.77 879.269C1984.83 851.328 1992 828.376 1990.88 827.998 1989.75 827.619 1980.65 849.951 1970.59 877.893 1968.2 884.775 1965.88 891.348 1963.56 897.645 1961.98 900.759 1961.58 904.32 1962.43 907.693 1963.24 909.506 1964.87 910.845 1966.83 911.306 1968.27 911.677 1969.76 911.85 1971.26 911.822 1981.77 912.132 1988.21 912.029 1988.24 911.444Z" fill="#263238" fill-rule="evenodd"/><path d="M2019.12 806.983C2020.55 809.489 2030.89 806.61 2043.53 806.068 2056.16 805.526 2066.64 807.152 2067.9 804.51 2068.48 803.257 2066.33 801.123 2061.89 799.09 2055.95 796.709 2049.54 795.679 2043.15 796.076 2036.71 796.35 2030.42 798.027 2024.71 800.987 2020.41 803.358 2018.47 805.797 2019.12 806.983Z" fill="#263238" fill-rule="evenodd"/><path d="M1921.17 821.43C1922.76 823.921 1930.72 822.844 1939.86 824.191 1949 825.537 1956.48 828.297 1958.64 826.277 1959.59 825.301 1958.64 822.911 1955.67 820.286 1951.45 816.987 1946.4 814.914 1941.07 814.295 1935.77 813.52 1930.36 814.241 1925.45 816.382 1921.88 818.132 1920.46 820.219 1921.17 821.43Z" fill="#263238" fill-rule="evenodd"/><path d="M2128.99 868.403C2130.09 867.888 2173.33 854.112 2172.99 898.601 2172.65 943.09 2128.07 933.54 2128 932.269 2127.93 930.998 2128.99 868.403 2128.99 868.403Z" fill="#A36957" fill-rule="evenodd"/><path d="M2142.04 915.327C2142.21 915.327 2142.8 915.88 2144.1 916.501 2145.94 917.31 2148.02 917.372 2149.9 916.674 2154.6 914.981 2158.61 907.52 2158.89 899.402 2159.02 895.571 2158.3 891.76 2156.79 888.244 2155.98 885.401 2153.82 883.148 2151.03 882.233 2149.2 881.705 2147.26 882.582 2146.43 884.306 2145.85 885.549 2146.12 886.448 2145.88 886.551 2145.64 886.655 2144.92 885.791 2145.3 883.926 2145.57 882.827 2146.2 881.853 2147.08 881.162 2148.29 880.226 2149.83 879.825 2151.34 880.057 2155.03 880.803 2158.08 883.415 2159.4 886.966 2161.25 890.852 2162.13 895.132 2161.98 899.436 2161.6 908.453 2156.97 916.709 2150.55 918.678 2148.13 919.369 2145.53 918.909 2143.48 917.434 2142.11 916.467 2141.87 915.327 2142.04 915.327Z" fill="#7C3B29" fill-rule="evenodd"/><path d="M1938.3 732.95C1931.2 728.852 1954.57 704.918 1972.32 697.169 1999.19 685.461 2040.03 678.676 2064.5 686.08 2093.93 695.034 2118.26 710.187 2132.68 737.564 2147.11 764.942 2152.15 796.487 2150.78 827.377 2150.37 836.813 2149.23 846.628 2143.92 854.514 2137.65 864.156 2125.87 870.148 2125.9 883.407 2126.15 888.204 2124.65 892.928 2121.69 896.699 2113.29 906.376 2103.11 897.836 2098.59 889.364 2089.13 871.801 2088.31 851.001 2087.86 831.027 2087.49 817.252 2087.25 796.59 2090.81 783.504 2092.17 778.607 2092.78 773.534 2092.63 768.455 2092.62 760.152 2090.24 752.024 2085.77 745.037 2084.57 743.546 2083.24 742.162 2081.8 740.905 2071.02 731.696 2056.21 728.893 2042.84 733.535 2017.55 741.972 1997.13 755.885 1968.24 743.419 1961.84 740.629 1958.75 735.291 1955.84 732.158 1950.82 727.646 1943.19 727.781 1938.33 732.468Z" fill="#263238" fill-rule="evenodd"/><path d="M1967.04 727.795C1951.22 716.799 1928.58 722.691 1913.8 734.954 1909.94 739.291 1907.04 744.378 1905.28 749.889 1904.28 753.606 1905.94 757.525 1909.33 759.412 1913.35 761.159 1917.85 758.624 1921.59 756.329 1928.41 752.143 1935.51 748.423 1942.84 745.196 1952.05 741.12 1962.82 737.934 1971.99 742.113" fill="#263238" fill-rule="evenodd"/><path d="M2021.05 742.557C2035.84 743.001 2051.85 735.416 2064.69 742.557 2071.81 746.418 2076.08 753.832 2081.15 760.188 2097.32 780.08 2122.52 790.382 2148.02 787.522 2158.29 786.258 2169.93 780.449 2169.99 770.267 2169.99 762.169 2162.53 756.258 2155.59 752.055 2138.99 742.423 2121.85 733.755 2104.25 726.087 2097.33 722.517 2089.95 719.93 2082.31 718.4 2073.74 717.399 2065.06 718.249 2056.85 720.894 2043.42 724.8 2030.9 731.315 2019.99 740.063" fill="#263238" fill-rule="evenodd"/><path d="M2033.99 684.992C2033.99 685.307 2029.85 687.017 2023.55 690.89 2019.89 693.165 2016.38 695.695 2013.07 698.463 2009.03 701.9 2005.28 705.658 2001.83 709.699 1998.47 713.813 1995.42 718.189 1992.72 722.785 1990.56 726.575 1988.68 730.518 1987.07 734.58 1984.33 741.559 1983.34 746.096 1982.99 745.991 1983.02 744.892 1983.18 743.803 1983.47 742.746 1984.04 739.8 1984.85 736.908 1985.87 734.091 1987.35 729.897 1989.18 725.835 1991.32 721.948 1996.59 712.407 2003.63 703.993 2012.04 697.171 2015.45 694.387 2019.09 691.913 2022.93 689.773 2025.49 688.294 2028.16 687.02 2030.91 685.97 2031.88 685.467 2032.92 685.136 2033.99 684.992Z" fill="#455A64" fill-rule="evenodd"/><path d="M2154.28 863.977C2154.28 864.148 2152.3 862.913 2150.93 859.79 2149.18 855.641 2148.6 851.08 2149.25 846.612 2149.75 842.178 2151.18 837.906 2153.44 834.086 2155.18 831.169 2156.79 829.865 2156.99 830.003 2156.25 831.615 2155.43 833.187 2154.51 834.704 2152.69 838.523 2151.5 842.632 2150.99 846.852 2150.37 851.022 2150.74 855.284 2152.07 859.275 2153.04 862.295 2154.48 863.771 2154.28 863.977Z" fill="#455A64" fill-rule="evenodd"/><path d="M2142.99 754.154C2140.59 751.349 2137.6 749.064 2134.22 747.443 2130.54 745.846 2126.46 745.299 2122.46 745.866 2120.15 746.195 2117.92 746.957 2115.91 748.115 2113.83 749.286 2112.36 751.245 2111.85 753.517 2111.8 754.117 2111.87 754.721 2112.06 755.295L2113.76 759.993 2110.5 756.134C2107.17 752.94 2103.12 750.53 2098.67 749.088 2095.24 747.454 2091.5 746.494 2087.68 746.269 2085.13 746.165 2082.6 746.746 2080.36 747.947 2078.77 748.819 2078.11 749.557 2078.01 749.457 2077.9 749.356 2078.42 748.484 2079.98 747.376 2082.25 745.89 2084.91 745.085 2087.65 745.061 2091.68 745.115 2095.65 745.994 2099.3 747.645 2104.07 749.074 2108.41 751.621 2111.92 755.06L2110.36 755.899C2110.06 755.071 2109.96 754.188 2110.05 753.316 2110.58 750.48 2112.38 748.021 2114.97 746.605 2117.19 745.323 2119.66 744.487 2122.22 744.155 2126.52 743.638 2130.89 744.36 2134.77 746.235 2137.37 747.467 2139.64 749.242 2141.43 751.436 2142.16 752.211 2142.7 753.141 2142.99 754.154Z" fill="#455A64" fill-rule="evenodd"/><path d="M2129.98 770.004C2130.15 770.004 2128.83 772.342 2125.56 774.819 2116.77 781.437 2104.76 781.733 2095.65 775.551 2093.74 774.466 2092.13 772.903 2090.99 771.016 2091.2 770.772 2092.94 772.551 2096.31 774.504 2100.69 776.995 2105.65 778.272 2110.68 778.203 2115.71 778.039 2120.6 776.507 2124.83 773.772 2128.1 771.644 2129.77 769.83 2129.98 770.004Z" fill="#455A64" fill-rule="evenodd"/><path d="M2169.99 770.993C2169.99 770.993 2169.82 771.812 2169.17 773.111 2168.17 774.959 2166.88 776.633 2165.34 778.064 2160.01 782.546 2153.41 785.245 2146.46 785.784 2139.55 786.512 2132.57 785.33 2126.28 782.368 2123.62 781.388 2121.15 779.943 2118.99 778.098 2118.99 777.825 2121.97 779.43 2126.76 781.207 2132.92 783.704 2139.61 784.654 2146.22 783.974 2152.84 783.461 2159.18 781.094 2164.52 777.141 2166.5 775.239 2168.33 773.182 2169.99 770.993Z" fill="#455A64" fill-rule="evenodd"/><path d="M2168.13 933.246C2168.34 932.854 2169.25 932.884 2169.77 933.577 2170.3 934.27 2169.77 934.994 2169.35 934.994 2168.88 934.96 2168.45 934.737 2168.2 934.391 2167.95 934.045 2167.92 933.614 2168.13 933.246Z" fill="#455A64" fill-rule="evenodd"/><path d="M1990.25 927.01 1994.81 925.902C1998.13 924.69 2001.74 924.69 2005.05 925.902 2006.14 926.476 2007.13 927.238 2007.97 928.152 2012.79 933.039 2015.33 939.826 2014.96 946.783 2014.78 952.797 2011.85 958.373 2007.07 961.811 2002.1 965.153 1995.57 964.609 1991.19 960.495 1989.25 958.165 1987.87 955.384 1987.19 952.392 1985.71 947.188 1984.97 941.786 1985.01 936.359 1984.9 933.956 1985.41 931.567 1986.49 929.434 1987.73 927.356 1988.06 926.283 1990.25 927.183" fill="#7C3B29" fill-rule="evenodd"/><path d="M1994.96 962.158C1994.96 962.158 1995.96 962.158 1997.67 962.158 2000.08 962.124 2002.44 961.456 2004.51 960.225 2007.58 958.438 2009.9 955.641 2011.09 952.325 2012.43 948.202 2012.51 943.781 2011.33 939.61 2010.42 935.396 2008.13 931.592 2004.82 928.794 2001.92 926.791 1998.35 925.977 1994.86 926.523 1988.77 927.337 1985.1 928.964 1985 928.625 1984.9 928.286 1985.82 928.049 1987.47 927.37 1989.79 926.414 1992.21 925.709 1994.69 925.268 1998.55 924.519 2002.55 925.312 2005.82 927.472 2009.59 930.5 2012.17 934.732 2013.14 939.441 2014.4 943.896 2014.26 948.63 2012.73 953.003 2011.35 956.618 2008.68 959.608 2005.23 961.412 2002.95 962.643 2000.36 963.175 1997.77 962.938 1995.82 962.734 1994.93 962.259 1994.96 962.158Z" fill="#263238" fill-rule="evenodd"/><path d="M2154.46 751.993C2155.11 753.987 2155.17 756.125 2154.63 758.154 2152.91 768.603 2143.71 776.197 2133.06 775.956 2130.95 776.133 2128.83 775.67 2126.99 774.628 2126.99 774.356 2129.36 774.935 2133.02 774.628 2137.78 774.325 2142.33 772.566 2146.04 769.591 2149.67 766.527 2152.25 762.409 2153.4 757.813 2154.19 754.375 2154.02 752.027 2154.46 751.993Z" fill="#455A64" fill-rule="evenodd"/><path d="M2150.96 750.534C2150.75 750.979 2148.73 750.237 2146.65 751.202 2144.56 752.166 2143.53 754.133 2143.22 753.984 2142.92 753.836 2142.92 753.205 2143.22 752.241 2143.79 750.954 2144.78 749.937 2145.99 749.384 2147.23 748.861 2148.59 748.861 2149.83 749.384 2150.72 749.941 2151.13 750.312 2150.96 750.534Z" fill="#455A64" fill-rule="evenodd"/><path d="M2156.98 829.993C2154.83 828.744 2152.98 827.079 2151.56 825.108 2144.05 815.863 2141.29 803.939 2144.03 792.574 2144.45 790.22 2145.39 787.977 2146.79 785.993 2147.07 785.993 2146.07 788.639 2145.32 792.778 2143.37 803.786 2145.93 815.083 2152.49 824.361 2155.18 827.89 2157.19 829.789 2156.98 829.993Z" fill="#455A64" fill-rule="evenodd"/><path d="M2164.19 927.272C2164.19 927.272 2164.64 927.585 2165.32 928.314 2166.31 929.373 2167.18 930.537 2167.92 931.787 2170.71 936.458 2172.12 941.848 2171.99 947.311 2171.92 951.099 2171.13 954.84 2169.66 958.319 2167.91 962.313 2165.22 965.807 2161.83 968.495 2153.97 974.812 2143.51 976.666 2134.01 973.426 2124.68 969.7 2117.8 961.494 2115.65 951.547 2114.71 947.276 2114.78 942.834 2115.86 938.594 2118.25 929.606 2124.54 922.219 2132.95 918.521 2134.27 917.941 2135.64 917.5 2137.05 917.201 2137.55 917.087 2138.05 917.017 2138.56 916.992 2138.56 917.201 2136.54 917.583 2133.22 919.146 2128.55 921.445 2124.54 924.924 2121.57 929.252 2117.05 935.562 2115.41 943.546 2117.09 951.165 2119.89 966.085 2134.07 975.871 2148.76 973.023 2153.2 972.162 2157.35 970.189 2160.84 967.279 2164.06 964.775 2166.63 961.507 2168.33 957.764 2169.78 954.478 2170.59 950.943 2170.72 947.345 2170.95 942.077 2169.77 936.843 2167.3 932.204 2165.52 929.078 2164.05 927.411 2164.19 927.272Z" fill="#FFC100" fill-rule="evenodd"/><path d="M2106.99 745.174C2102.33 741.145 2096.9 738.074 2091.02 736.138 2084.6 734.196 2077.88 733.353 2071.17 733.643 2062.94 734.105 2054.8 735.474 2046.88 737.723 2038.36 739.949 2030.29 742.443 2022.84 744.163 2016.2 745.761 2009.41 746.699 2002.57 746.962 1997.96 747.113 1993.35 746.715 1988.84 745.782 1987.6 745.515 1986.39 745.178 1985.2 744.77 1984.77 744.672 1984.36 744.5 1983.99 744.264 1990.08 745.505 1996.3 746.004 2002.51 745.748 2009.24 745.293 2015.92 744.23 2022.46 742.578 2029.85 740.791 2037.88 738.263 2046.51 736.037 2054.56 733.734 2062.86 732.389 2071.23 732.025 2078.12 731.796 2085 732.787 2091.53 734.958 2095.93 736.479 2100.01 738.765 2103.59 741.701 2104.55 742.497 2105.44 743.367 2106.27 744.298 2106.75 744.77 2107.02 745.141 2106.99 745.174Z" fill="#455A64" fill-rule="evenodd"/><path d="M2113.98 742.993C2103.26 725.384 2085.57 713.282 2065.43 709.768 2051.4 707.013 2037.1 706.017 2022.83 706.808L2009.78 707.295C2008.19 707.431 2006.59 707.431 2004.99 707.295 2006.55 706.888 2008.14 706.654 2009.75 706.599 2012.81 706.285 2017.25 705.867 2022.76 705.519 2037.15 704.328 2051.64 705.16 2065.8 707.992 2080.05 710.997 2093.17 717.983 2103.68 728.156 2106.81 731.281 2109.52 734.791 2111.77 738.605 2112.38 739.642 2112.94 740.711 2113.43 741.809 2113.88 742.54 2114.05 742.958 2113.98 742.993Z" fill="#455A64" fill-rule="evenodd"/><path d="M1941.99 720.992C1944.26 719.247 1946.74 717.842 1949.36 716.819 1961.81 711.264 1975.36 709.046 1988.8 710.36 1991.6 710.472 1994.36 711.024 1996.99 711.993 1987.65 711.369 1978.28 711.662 1968.98 712.864 1959.77 714.703 1950.74 717.425 1941.99 720.992Z" fill="#455A64" fill-rule="evenodd"/><path d="M1926.99 726.638C1928.73 725.45 1930.75 724.709 1932.85 724.475 1943.13 722.556 1953.63 726.452 1960.06 734.568 1961.51 736.089 1962.52 737.96 1962.99 739.993 1962.75 739.993 1961.6 738.07 1959.09 735.358 1955.81 731.863 1951.76 729.151 1947.26 727.427 1942.72 725.773 1937.84 725.196 1933.03 725.745 1929.33 725.986 1927.27 726.638 1926.99 726.638Z" fill="#455A64" fill-rule="evenodd"/><path d="M1960.99 702.992C1963.08 701.431 1965.39 700.223 1967.84 699.42 1979.61 695.018 1992.27 693.874 2004.6 696.097 2007.15 696.4 2009.65 697.122 2011.99 698.241 2003.43 697.058 1994.79 696.686 1986.17 697.133 1977.62 698.276 1969.19 700.238 1960.99 702.992Z" fill="#455A64" fill-rule="evenodd"/><path d="M2086.99 701.966C2086.99 702.252 2083.1 700.252 2076.67 697.967 2068.26 695.044 2059.44 693.279 2050.48 692.73 2041.51 692.251 2032.52 693.009 2023.8 694.984 2017.09 696.507 2013.13 698.157 2012.99 697.776 2013.81 697.215 2014.72 696.764 2015.68 696.443 2018.2 695.409 2020.8 694.539 2023.46 693.841 2041.22 689.156 2060.18 690.277 2077.15 697.015 2079.7 698.008 2082.16 699.176 2084.52 700.506 2085.41 700.884 2086.24 701.375 2086.99 701.966Z" fill="#455A64" fill-rule="evenodd"/><path d="M2121.92 839.031C2122.31 839.373 2121.08 841.393 2119.19 843.55 2117.3 845.707 2115.45 847.179 2115.06 846.974 2114.68 846.768 2115.9 844.646 2117.79 842.489 2119.68 840.332 2121.54 838.723 2121.92 839.031Z" fill="#455A64" fill-rule="evenodd"/><path d="M2127.94 840.058C2128.3 840.359 2126.83 842.836 2124.67 845.546 2122.5 848.257 2120.41 850.264 2120.05 849.963 2119.69 849.662 2121.16 847.186 2123.32 844.442 2125.48 841.698 2127.55 839.59 2127.94 840.058Z" fill="#455A64" fill-rule="evenodd"/><path d="M2020.13 839.831C2021.34 840.968 2028.28 835.754 2038.32 835.553 2048.36 835.352 2055.81 840.032 2056.88 838.895 2057.4 838.36 2056.16 836.255 2052.91 834.082 2048.5 831.271 2043.29 829.848 2038.01 830.005 2032.79 830.125 2027.74 831.83 2023.58 834.884 2020.65 837.224 2019.58 839.363 2020.13 839.831Z" fill="#263238" fill-rule="evenodd"/><path d="M2033.99 880.99C2033.99 881.542 2033.55 881.99 2032.99 881.99 2032.44 881.99 2031.99 881.542 2031.99 880.99 2031.99 880.438 2032.44 879.99 2032.99 879.99 2033.55 879.99 2033.99 880.438 2033.99 880.99Z" fill="#7C3B29" fill-rule="evenodd"/><path d="M2048.79 879.991C2048.21 879.847 2047.87 879.312 2048.03 878.795 2048.04 878.795 2048.04 878.791 2048.04 878.788 2048.08 878.31 2048.56 877.956 2049.1 877.996 2049.64 878.036 2050.03 878.457 2049.99 878.935 2049.99 878.985 2049.97 879.038 2049.96 879.089 2049.92 879.623 2049.4 880.027 2048.79 879.991 2048.79 879.991 2048.79 879.991 2048.79 879.991Z" fill="#7C3B29" fill-rule="evenodd"/><path d="M2061.99 877.991C2061.44 877.991 2060.99 877.546 2060.99 876.992 2060.97 876.461 2061.39 876.015 2061.92 875.991 2061.94 875.991 2061.97 875.991 2061.99 875.991 2062.55 875.991 2062.99 876.438 2062.99 876.992 2062.99 877.546 2062.55 877.991 2061.99 877.991Z" fill="#7C3B29" fill-rule="evenodd"/><path d="M2043.37 895.992C2042.87 895.992 2042.29 895.62 2042.08 894.795 2041.86 893.97 2042.08 893.186 2042.62 893.021 2043.16 892.856 2043.7 893.393 2043.92 894.218 2044.13 895.042 2043.88 895.868 2043.37 895.992Z" fill="#7C3B29" fill-rule="evenodd"/><path d="M2059.35 892.938C2058.84 893.111 2058.29 892.859 2058.08 892.362 2057.86 891.873 2058.07 891.297 2058.57 891.077 2058.58 891.073 2058.58 891.07 2058.59 891.066 2059.11 890.858 2059.71 891.106 2059.92 891.624 2060.13 892.143 2059.88 892.729 2059.35 892.938Z" fill="#7C3B29" fill-rule="evenodd"/><path d="M1924.99 878.992C1924.45 878.992 1923.99 878.342 1923.99 877.51 1923.99 876.679 1924.45 875.992 1924.99 875.992 1925.53 875.992 1925.99 876.679 1925.99 877.51 1925.99 878.342 1925.57 878.992 1924.99 878.992Z" fill="#7C3B29" fill-rule="evenodd"/><path d="M1936.16 878.987C1935.61 879.042 1935.1 878.698 1935.04 878.222 1935.03 878.187 1935.03 878.155 1935.03 878.119 1934.87 877.643 1935.19 877.142 1935.75 877.003 1935.76 877 1935.78 876.997 1935.79 876.994 1936.38 876.974 1936.89 877.354 1936.95 877.862 1937.11 878.341 1936.79 878.84 1936.23 878.975 1936.2 878.978 1936.19 878.984 1936.16 878.987Z" fill="#7C3B29" fill-rule="evenodd"/><path d="M1953.99 877.495C1953.99 877.771 1953.55 877.995 1952.99 877.995 1952.44 877.995 1951.99 877.771 1951.99 877.495 1951.99 877.219 1952.44 876.995 1952.99 876.995 1953.55 876.995 1953.99 877.219 1953.99 877.495Z" fill="#7C3B29" fill-rule="evenodd"/><path d="M1931.36 896.994C1930.89 896.994 1930.3 896.75 1930.08 896.18 1929.86 895.611 1930.08 895.122 1930.63 895.014 1931.18 894.905 1931.69 895.258 1931.91 895.801 1932.13 896.343 1931.88 896.886 1931.36 896.994Z" fill="#7C3B29" fill-rule="evenodd"/><path d="M1944.18 897.991C1943.65 897.991 1943.13 896.953 1943.01 895.593 1942.9 894.235 1943.24 893.076 1943.8 892.995 1944.37 892.916 1944.85 894.035 1944.97 895.433 1945.08 896.832 1944.82 897.952 1944.18 897.991Z" fill="#7C3B29" fill-rule="evenodd"/><path d="M1670.45 589.992C1670.45 589.992 1630.72 781.268 1632.02 860.482 1633.09 922.91 1827.26 1285.99 1827.26 1285.99L1900.99 1076.66C1900.99 1076.66 1764.09 847.961 1761.76 817.865 1759.42 787.769 1762.61 610.664 1762.61 610.664Z" fill="#A36957" fill-rule="evenodd"/><path d="M1660.99 636.774 1699.8 456.194C1699.8 456.194 1718.45 411.983 1732.31 396.412 1732.31 396.412 1745.7 361.256 1759.42 374.187 1759.42 374.187 1775.01 359.095 1780.45 380.36 1780.45 380.36 1801.29 362.456 1808.59 381.424 1808.59 381.424 1830.99 373.604 1834.19 392.159 1834.19 392.159 1847.16 386.774 1852.21 394.731 1857.27 402.689 1857.99 429.269 1857.99 429.269L1820.87 469.055C1814.02 476.214 1804.73 480.558 1794.83 481.231 1785.5 481.952 1774.56 485.279 1771.95 496.426 1767.2 516.696 1761.01 640.993 1761.01 640.993Z" fill="#A36957" fill-rule="evenodd"/><path d="M1749.99 440.988C1750.14 440.568 1750.33 440.168 1750.58 439.797 1751.25 438.706 1751.97 437.65 1752.75 436.632 1755.61 432.938 1759.11 429.761 1763.07 427.239 1769.05 423.414 1775.94 421.176 1783.05 420.738 1794.73 420.086 1806.18 424.095 1814.84 431.867L1813.46 432.037C1818.98 423.79 1827.92 418.392 1837.85 417.301L1837.2 418.219C1835.62 411.439 1836.04 404.352 1838.4 397.799 1839.05 396.008 1839.85 394.277 1840.81 392.626 1841.11 392.022 1841.5 391.47 1841.98 390.992 1842.15 390.992 1840.64 393.443 1839.19 398.071 1837.2 404.479 1837.01 411.305 1838.64 417.811L1838.85 418.628 1837.99 418.628C1828.58 419.811 1820.17 425.01 1814.98 432.854L1814.39 433.739 1813.6 433.024C1811.61 431.235 1809.44 429.65 1807.13 428.293 1799.88 423.989 1791.5 421.927 1783.05 422.372 1776.21 422.749 1769.58 424.782 1763.72 428.293 1759.76 430.657 1756.19 433.62 1753.16 437.074 1751.13 439.559 1750.13 441.09 1749.99 440.988Z" fill="#7C3B29" fill-rule="evenodd"/><path d="M1780.99 379.385C1780.6 380.908 1780.02 382.381 1779.28 383.772 1776.15 390.294 1772.05 396.331 1767.13 401.691 1764.96 404.615 1761.65 406.531 1757.99 406.982 1755.83 407.106 1753.74 406.163 1752.44 404.47 1751.28 402.691 1750.85 400.554 1751.21 398.475 1751.86 394.484 1752.84 390.552 1754.15 386.72 1755.61 382.373 1757.35 378.122 1759.36 373.993L1760.93 374.73C1758.37 380.3 1755.29 385.626 1751.72 390.638 1750.14 392.776 1748.35 394.761 1746.38 396.566 1744.7 398.253 1742.54 399.418 1740.18 399.916 1738.17 400.284 1736.1 399.756 1734.54 398.475 1733.4 397.465 1732.84 395.979 1733.03 394.49 1733.41 392.011 1735.12 391.576 1735.05 391.676 1734.18 392.387 1733.66 393.419 1733.61 394.523 1733.53 395.812 1734.09 397.061 1735.12 397.873 1736.51 398.893 1738.29 399.26 1739.98 398.877 1743.85 398.107 1747.27 394.155 1750.52 389.868 1753.91 384.858 1756.84 379.568 1759.29 374.06L1760.86 374.796C1758.91 378.858 1757.24 383.043 1755.86 387.323 1754.58 391.034 1753.6 394.842 1752.95 398.71 1752.64 400.377 1752.94 402.1 1753.81 403.566 1754.78 404.831 1756.34 405.535 1757.95 405.442 1761.23 405.073 1764.19 403.386 1766.14 400.786 1768.16 398.66 1770.06 396.424 1771.82 394.088 1774.35 390.71 1776.64 387.163 1778.67 383.471 1779.33 382.052 1780.11 380.686 1780.99 379.385Z" fill="#7C3B29" fill-rule="evenodd"/><path d="M1806.99 382.594C1806.49 383.675 1805.86 384.689 1805.11 385.612L1799.55 393.534C1797.15 396.963 1794.31 400.804 1790.81 404.988 1789.06 407.046 1787.14 409.172 1785.09 411.299 1782.99 413.713 1780.33 415.564 1777.34 416.683 1775.64 417.184 1773.82 417.075 1772.2 416.374 1770.7 415.655 1769.49 414.445 1768.77 412.945 1767.73 410.074 1767.73 406.933 1768.77 404.062 1769.56 401.593 1770.53 399.186 1771.68 396.861 1772.68 394.7 1773.64 392.676 1774.53 390.79 1776.24 387.086 1777.68 384.103 1778.71 382.079 1779.15 380.977 1779.74 379.938 1780.46 378.993 1780.26 380.188 1779.88 381.344 1779.33 382.422 1778.5 384.549 1777.27 387.601 1775.66 391.373L1773.05 397.512C1771.99 399.804 1771.09 402.164 1770.34 404.577 1769.45 407.071 1769.45 409.799 1770.34 412.293 1771.48 414.775 1774.29 416.013 1776.89 415.174 1779.53 414.104 1781.88 412.423 1783.75 410.27 1785.81 408.212 1787.69 406.154 1789.44 404.096 1792.87 400.05 1795.92 396.209 1798.42 392.985 1800.93 389.761 1802.98 387.155 1804.46 385.406 1805.17 384.356 1806.02 383.409 1806.99 382.594Z" fill="#7C3B29" fill-rule="evenodd"/><path d="M1833.99 392.304C1833.3 393.403 1832.45 394.404 1831.49 395.279L1824.1 402.89 1813.03 414.028C1810.9 416.324 1808.57 418.431 1806.07 420.324 1803.18 422.506 1799.51 423.407 1795.94 422.815 1794.06 422.438 1792.36 421.437 1791.13 419.978 1790.01 418.57 1789.3 416.883 1789.08 415.101 1788.74 411.84 1789.42 408.556 1791.03 405.692 1793.46 401.019 1796.21 396.512 1799.24 392.2 1801.82 388.534 1804.12 385.697 1805.72 383.795 1806.51 382.746 1807.44 381.804 1808.47 380.992 1808.68 380.992 1805.16 385.455 1800.32 392.927 1797.46 397.26 1794.86 401.753 1792.52 406.383 1791.13 408.968 1790.54 411.905 1790.82 414.824 1791.06 417.882 1793.3 420.416 1796.32 421.051 1799.41 421.545 1802.57 420.757 1805.06 418.871 1807.54 417.056 1809.87 415.043 1812.02 412.852L1823.37 401.99 1831.14 394.795C1832 393.87 1832.96 393.036 1833.99 392.304Z" fill="#7C3B29" fill-rule="evenodd"/><path d="M1745.99 490.993C1742.3 489 1738.9 486.526 1735.91 483.641 1732.53 481.171 1729.53 478.261 1726.99 474.993 1730.7 476.967 1734.1 479.443 1737.08 482.344 1740.46 484.804 1743.46 487.716 1745.99 490.993Z" fill="#7C3B29" fill-rule="evenodd"/><path d="M1834.94 1176.99C1834.63 1176.99 1833.78 1171.2 1831.52 1162.01 1825.24 1138.03 1813.51 1115.87 1797.28 1097.3 1791.05 1090.19 1786.73 1086.24 1787.01 1085.99 1788.17 1086.72 1789.25 1087.58 1790.22 1088.56 1793.05 1091.03 1795.73 1093.66 1798.27 1096.44 1815.23 1114.75 1827.13 1137.27 1832.78 1161.73 1833.67 1165.4 1834.34 1169.12 1834.81 1172.86 1835 1174.23 1835.04 1175.62 1834.94 1176.99Z" fill="#7C3B29" fill-rule="evenodd"/><path d="M1702.58 668.992C1702.44 669.888 1702.21 670.763 1701.89 671.61 1701.41 673.332 1700.4 675.743 1699.68 679.015 1697.21 688.17 1695.79 697.576 1695.45 707.05 1694.96 721.096 1696.4 735.141 1699.74 748.794 1703.83 765.515 1710.13 781.623 1718.46 796.701 1726.93 811.732 1736.71 825.99 1747.7 839.306 1757.77 851.636 1767.53 862.209 1775.83 870.923 1784.14 879.636 1791.06 886.559 1795.76 891.381L1801.19 896.961C1801.84 897.598 1802.44 898.276 1802.99 898.993 1802.26 898.473 1801.57 897.884 1800.95 897.236L1795.28 891.898C1790.4 887.214 1783.37 880.429 1774.93 871.784 1766.49 863.139 1756.59 852.703 1746.42 840.339 1735.29 827.003 1725.39 812.686 1716.87 797.563 1708.47 782.343 1702.16 766.066 1698.12 749.172 1694.8 735.365 1693.48 721.161 1694.17 706.981 1694.63 697.441 1696.24 687.994 1698.98 678.843 1699.71 676.346 1700.56 673.883 1701.54 671.472 1701.8 670.611 1702.15 669.781 1702.58 668.992Z" fill="#263238" fill-rule="evenodd"/><path d="M1706.9 762.993C1709.33 758.633 1711.5 754.128 1713.38 749.504 1717.57 738.233 1718.48 726.013 1716 714.252L1716 714.043 1717.53 714.461C1713.06 719.227 1709.71 724.929 1707.73 731.148 1706.08 736.231 1705.33 741.557 1705.5 746.896 1705.82 751.837 1706.71 756.725 1708.15 761.463 1707.4 760.33 1706.82 759.089 1706.44 757.778 1705.14 754.309 1704.35 750.665 1704.11 746.966 1703.71 741.463 1704.35 735.932 1705.99 730.661 1707.96 724.164 1711.42 718.212 1716.1 713.279L1717.29 711.992 1717.64 713.696 1717.64 713.939C1720.21 726.027 1719.1 738.602 1714.46 750.06 1713.08 753.498 1711.33 756.784 1709.27 759.864 1708.63 761.015 1707.83 762.068 1706.9 762.993Z" fill="#263238" fill-rule="evenodd"/><path d="M1709.16 799.841C1708.09 800.043 1706.98 800.043 1705.91 799.841 1702.95 799.636 1700.03 799.028 1697.24 798.033 1687.8 794.725 1680.1 787.798 1675.83 778.801L1674.99 776.992 1676.92 777.549 1676.92 777.549C1686.4 780.14 1695.2 784.73 1702.73 791.008 1705.01 792.882 1707.12 794.941 1709.06 797.163 1710.42 798.729 1711.09 799.667 1710.98 799.737 1710.88 799.806 1707.73 796.503 1701.92 792.016 1694.34 786.187 1685.69 781.868 1676.46 779.288L1676.46 779.288 1677.51 778.07C1681.64 786.633 1688.86 793.338 1697.73 796.85 1701.44 798.182 1705.27 799.184 1709.16 799.841Z" fill="#263238" fill-rule="evenodd"/><path d="M1740.56 817.407C1740.24 817.407 1741.38 812.476 1741.56 804.441 1741.83 793.924 1740.03 783.451 1736.26 773.579L1737.95 773.579 1737.01 775.268C1734.27 780.638 1732.8 786.527 1732.71 792.51 1732.59 797.379 1733.34 802.231 1734.94 806.855 1736.58 811.1 1738.68 815.169 1741.21 818.993 1740.21 818.203 1739.34 817.276 1738.63 816.235 1736.57 813.483 1734.91 810.479 1733.68 807.303 1731.88 802.555 1730.97 797.534 1730.99 792.476 1730.98 786.241 1732.48 780.089 1735.37 774.51L1736.3 772.751 1737.26 770.992 1737.98 772.889C1741.85 782.958 1743.51 793.689 1742.85 804.407 1742.68 807.617 1742.24 810.81 1741.56 813.959 1741.4 815.148 1741.06 816.31 1740.56 817.407Z" fill="#263238" fill-rule="evenodd"/><path d="M1703.31 683.993C1703.22 683.536 1703.22 683.066 1703.31 682.609 1703.57 681.268 1704.11 680.005 1704.92 678.909 1708.15 674.953 1712.97 672.688 1718.04 672.753 1721.19 672.511 1724.6 672.753 1728.3 672.546 1732.12 672.449 1735.86 671.418 1739.2 669.537 1742.82 667.448 1745.14 663.647 1745.38 659.439 1745.52 655.029 1742.09 651.346 1737.73 651.211 1737.62 651.207 1737.5 651.207 1737.39 651.207L1733.32 651.553 1736.74 649.547C1740.15 647.31 1741.93 643.236 1741.28 639.172 1740.91 636.589 1739.38 634.32 1737.15 633.017 1734.96 631.73 1732.39 631.277 1729.9 631.737 1728.68 631.924 1727.52 632.373 1726.48 633.051 1725.49 633.802 1724.55 634.635 1723.68 635.541 1722.75 636.589 1721.58 637.388 1720.26 637.858 1718.87 638.107 1717.44 637.914 1716.16 637.305 1711.79 635.576 1707.41 638.481 1704.65 641.524 1702.03 644.595 1699.98 648.105 1698.56 651.899 1696.44 657.394 1695.54 663.301 1695.93 669.191 1696.21 673.376 1696.86 675.624 1696.68 675.658 1696.45 675.15 1696.26 674.617 1696.14 674.067 1695.71 672.49 1695.41 670.882 1695.21 669.26 1694.58 663.256 1695.32 657.18 1697.4 651.519 1698.78 647.573 1700.87 643.914 1703.55 640.729 1705.1 638.909 1707.01 637.436 1709.16 636.406 1711.51 635.209 1714.23 635.033 1716.71 635.922 1717.68 636.419 1718.78 636.589 1719.85 636.406 1720.92 636.025 1721.88 635.368 1722.62 634.503 1723.56 633.518 1724.58 632.615 1725.66 631.806 1726.86 631.007 1728.21 630.464 1729.63 630.215 1732.53 629.652 1735.54 630.167 1738.1 631.668 1740.81 633.241 1742.66 635.98 1743.13 639.103 1743.93 643.931 1741.77 648.769 1737.66 651.346L1737.15 649.686C1742.43 649.53 1746.83 653.739 1746.99 659.082 1746.99 659.283 1746.99 659.48 1746.99 659.68 1746.72 664.471 1744.05 668.79 1739.91 671.128 1736.35 673.109 1732.36 674.154 1728.3 674.171 1724.57 674.171 1721.19 674.171 1718.04 674.171 1713.25 674.005 1708.62 675.963 1705.36 679.532 1704.37 680.853 1703.67 682.375 1703.31 683.993Z" fill="#263238" fill-rule="evenodd"/><path d="M1706.25 628.246C1706.25 628.246 1706.25 627.431 1706.25 626.004 1706.22 623.969 1705.49 622.006 1704.19 620.433 1702.36 617.937 1699.17 616.815 1696.16 617.614 1692.35 618.694 1689.78 622.22 1689.95 626.14L1690.29 629.537 1688.44 626.48C1686.57 624.183 1683.3 623.541 1680.68 624.951 1677.81 626.592 1675.83 629.422 1675.3 632.662 1674 639.025 1674.23 645.601 1675.98 651.855 1677.42 657.012 1679.74 661.883 1682.85 666.258 1685.85 670.219 1689.3 673.823 1693.14 676.993 1691.88 676.473 1690.72 675.749 1689.71 674.853 1686.76 672.597 1684.15 669.944 1681.95 666.972 1678.64 662.562 1676.18 657.589 1674.68 652.297 1672.76 645.781 1672.47 638.902 1673.86 632.254 1674.49 628.542 1676.81 625.315 1680.14 623.49 1683.55 621.731 1687.74 622.695 1690.02 625.766L1688.51 626.242C1688.31 621.591 1691.41 617.434 1695.95 616.255 1697.82 615.769 1699.81 615.963 1701.55 616.799 1703 617.485 1704.25 618.524 1705.18 619.822 1706.5 621.608 1707.13 623.8 1706.97 626.004 1706.95 626.806 1706.7 627.584 1706.25 628.246Z" fill="#263238" fill-rule="evenodd"/><path d="M1721.98 615.067C1722.22 615.496 1719.07 617.376 1716.71 620.969 1714.34 624.563 1713.67 628.058 1713.16 627.992 1712.63 625.166 1713.38 622.255 1715.22 620.013 1717.93 616.023 1721.85 614.639 1721.98 615.067Z" fill="#263238" fill-rule="evenodd"/><path d="M1727.98 623.485C1727.98 624.003 1724.99 624.038 1721.77 625.524 1718.54 627.009 1716.46 629.186 1716.05 628.979 1715.65 628.772 1717.33 625.524 1721.06 624.003 1724.79 622.483 1728.22 623.001 1727.98 623.485Z" fill="#263238" fill-rule="evenodd"/><path d="M1723.99 651.992C1719.82 654.255 1715.85 656.891 1712.11 659.869 1708.77 663.296 1705.72 667.02 1702.99 670.993 1704.25 666.032 1707.06 661.645 1710.98 658.522 1714.51 654.922 1719.08 652.628 1723.99 651.992Z" fill="#263238" fill-rule="evenodd"/><path d="M1726.93 608.293C1726.93 608.571 1726.21 608.745 1725.86 609.546 1725.52 610.346 1725.86 611.286 1727.01 611.251 1728.16 611.216 1728.46 610.277 1728.04 609.476 1727.62 608.676 1726.93 608.571 1726.93 608.293 1726.93 608.014 1727.97 607.631 1729.15 608.71 1729.86 609.344 1730.15 610.27 1729.91 611.147 1729.32 612.609 1727.55 613.357 1725.94 612.818 1725.09 612.532 1724.42 611.919 1724.11 611.147 1723.83 610.284 1724.06 609.347 1724.72 608.676 1725.83 607.701 1727.01 608.084 1726.93 608.293Z" fill="#263238" fill-rule="evenodd"/><path d="M1732.77 620.168C1732.77 619.983 1733.47 619.798 1734.26 620.446 1734.74 620.86 1735.01 621.459 1734.99 622.082 1734.94 622.968 1734.29 623.712 1733.4 623.904 1732.47 624.2 1731.45 623.743 1731.08 622.854 1730.83 622.138 1731.13 621.344 1731.81 620.971 1732.22 620.761 1732.71 620.761 1733.12 620.971 1733.37 621.156 1733.4 621.372 1733.31 621.434 1733.21 621.496 1732.8 621.434 1732.58 621.959 1732.35 622.483 1732.42 622.514 1732.99 622.483 1733.21 622.431 1733.4 622.283 1733.5 622.082 1733.59 621.823 1733.59 621.539 1733.5 621.279 1733.12 620.662 1732.74 620.384 1732.77 620.168Z" fill="#263238" fill-rule="evenodd"/><path d="M1686.99 730.993C1686.64 730.993 1686.64 726.263 1684.68 718.928 1682.12 709.358 1677.22 700.566 1670.44 693.323L1671.95 693.015 1671.61 694.077C1670.21 699.404 1670.55 705.032 1672.57 710.153 1674.23 714.376 1676.66 718.256 1679.73 721.601 1684.99 727.325 1689.22 729.965 1688.98 730.239 1687.9 729.824 1686.9 729.245 1685.99 728.525 1683.41 726.736 1681 724.703 1678.8 722.458 1675.48 719.085 1672.83 715.106 1671.02 710.736 1668.78 705.3 1668.38 699.281 1669.89 693.598L1670.27 692.432 1670.71 690.992 1671.75 692.089C1678.75 699.527 1683.64 708.7 1685.89 718.654 1686.59 721.612 1687 724.631 1687.13 727.668 1687.25 728.775 1687.2 729.9 1686.99 730.993Z" fill="#263238" fill-rule="evenodd"/><path d="M1752.72 855.313C1751.39 855.856 1750 856.205 1748.58 856.356 1744.75 856.974 1740.87 857.143 1737.01 856.859 1724.08 855.971 1711.79 850.598 1702.09 841.584L1700.99 840.506 1702.36 840.003 1702.81 840.003C1709.55 837.365 1716.79 836.442 1723.93 837.308 1729.74 837.973 1735.38 839.762 1740.57 842.591 1744.07 844.506 1747.29 846.925 1750.15 849.779 1751.25 850.756 1752.21 851.895 1752.99 853.157 1749.05 849.523 1744.69 846.408 1740.02 843.885 1734.91 841.304 1729.4 839.701 1723.76 839.141 1716.87 838.393 1709.91 839.327 1703.42 841.872L1703.01 841.872 1703.29 840.291C1712.74 849.031 1724.57 854.415 1737.11 855.673 1742.31 855.993 1747.53 855.87 1752.72 855.313Z" fill="#263238" fill-rule="evenodd"/><path d="M1749.3 868.622C1749.3 868.866 1748.63 869.39 1748.49 870.683 1748.23 871.809 1748.9 872.941 1749.98 873.217 1751.07 873.489 1752.16 872.797 1752.42 871.672 1752.59 870.949 1752.38 870.187 1751.86 869.67 1751.12 868.657 1750.14 868.622 1750.14 868.342 1750.14 868.063 1751.29 867.538 1752.74 868.796 1753.61 869.523 1754.07 870.648 1753.98 871.802 1753.67 873.86 1751.81 875.268 1749.83 874.947 1748.95 874.803 1748.15 874.332 1747.59 873.619 1746.98 872.658 1746.83 871.459 1747.18 870.369 1747.99 868.552 1749.3 868.377 1749.3 868.622Z" fill="#263238" fill-rule="evenodd"/><path d="M1695.09 815.158C1695.09 815.158 1695.09 814.751 1695.66 814.492 1696.39 814.147 1697.22 814.147 1697.95 814.492 1699.1 815.043 1699.88 816.202 1699.99 817.528 1699.97 819.286 1698.7 820.748 1697.03 820.933 1695.4 821.24 1693.79 820.315 1693.16 818.712 1692.76 817.409 1693.09 815.987 1694 815.01 1695.52 813.418 1697.03 814.122 1696.86 814.307 1696.68 814.492 1695.76 814.603 1695.02 815.862 1694.62 816.494 1694.52 817.287 1694.74 818.009 1695.12 818.753 1695.93 819.134 1696.72 818.934 1697.67 818.749 1698.3 818.12 1698.3 817.416 1698.28 816.669 1697.91 815.976 1697.31 815.566 1696.19 814.899 1695.23 815.602 1695.09 815.158Z" fill="#263238" fill-rule="evenodd"/><path d="M1730.11 750.22C1730.11 750.001 1730.73 749.751 1731.44 750.47 1731.86 750.904 1732.06 751.516 1731.98 752.126 1731.81 753.319 1730.76 754.147 1729.62 753.969 1729.18 753.9 1728.77 753.682 1728.45 753.344 1728.07 752.872 1727.91 752.235 1728.04 751.626 1728.24 750.626 1728.96 750.439 1729.01 750.657 1729.07 750.876 1729.01 751.22 1729.01 751.688 1729.01 752.157 1729.46 752.5 1729.99 752.344 1730.53 752.188 1730.64 751.782 1730.47 751.251 1730.29 750.72 1730.08 750.407 1730.11 750.22Z" fill="#263238" fill-rule="evenodd"/><path d="M2282.02 1142.99C2282.02 1142.99 2323.83 1174.33 2334.13 1226.5 2344.44 1278.68 2363.61 1477.9 2363.61 1477.9L2387.99 1514.96C2387.99 1514.96 2354.81 1606.53 2338.6 1608.83 2322.39 1611.14 2272.48 1587.93 2257.43 1554.22 2242.39 1520.5 2218.99 1367.29 2218.99 1367.29Z" fill="#A36957" fill-rule="evenodd"/><path d="M2322.99 1491.99C2322.99 1492.3 2318.81 1493.51 2312.7 1497.2 2296.64 1506.91 2287.3 1524.82 2288.5 1543.61 2288.91 1550.68 2290.39 1554.92 2290.08 1554.99 2289.52 1554.1 2289.11 1553.12 2288.88 1552.1 2288.07 1549.35 2287.52 1546.53 2287.23 1543.68 2285.31 1524.27 2295.07 1505.57 2312.05 1496.1 2314.52 1494.68 2317.13 1493.52 2319.84 1492.65 2320.84 1492.26 2321.91 1492.04 2322.99 1491.99Z" fill="#7C3B29" fill-rule="evenodd"/><path d="M1862.17 1514.99C1862.17 1514.99 1739.36 1711.75 1754.24 1809.99L2286.99 1809.99C2286.99 1809.99 2256.06 1609.97 2168.96 1532.67Z" fill="#263238" fill-rule="evenodd"/><path d="M2029.99 1688.92C2029.38 1689.02 2028.75 1689.02 2028.13 1688.92 2026.91 1688.92 2025.12 1688.92 2022.8 1688.54 2019.96 1688.25 2017.16 1687.67 2014.45 1686.79 2010.76 1685.64 2007.5 1683.46 2005.08 1680.5 2002.42 1676.72 2001.01 1672.23 2001.04 1667.64 2000.83 1662.76 2001.33 1657.71 2001.54 1652.35 2002.13 1641.59 2002.76 1629.84 2003.43 1617.5 2004.87 1592.75 2006.24 1570.37 2007.33 1554.18 2007.89 1546.28 2008.34 1539.78 2008.69 1535 2008.9 1532.91 2009.04 1531.19 2009.19 1529.78 2009.19 1529.17 2009.28 1528.57 2009.47 1527.99 2009.54 1528.6 2009.54 1529.21 2009.47 1529.81 2009.47 1531.22 2009.47 1532.94 2009.47 1535.04 2009.26 1539.85 2008.97 1546.35 2008.66 1554.25 2007.89 1570.44 2006.73 1592.85 2005.15 1617.6 2004.45 1629.94 2003.75 1641.66 2003.11 1652.42 2002.83 1657.78 2002.31 1662.9 2002.45 1667.58 2002.35 1671.89 2003.57 1676.12 2005.96 1679.74 2008.19 1682.55 2011.2 1684.68 2014.62 1685.86 2017.25 1686.77 2019.95 1687.44 2022.69 1687.85 2027.43 1688.61 2030.03 1688.78 2029.99 1688.92Z" fill="#455A64" fill-rule="evenodd"/><path d="M2034.8 1540.64C2035.87 1540.12 2037.06 1539.91 2038.24 1540.02 2041.42 1540.06 2044.5 1541.11 2047.04 1543.03 2048.83 1544.34 2050.31 1546.02 2051.38 1547.97 2052.59 1550.26 2053.14 1552.84 2052.96 1555.43 2052.71 1563.72 2045.8 1570.24 2037.55 1569.99 2033.52 1569.86 2029.72 1568.11 2027 1565.14 2025.17 1563.3 2023.9 1560.99 2023.32 1558.47 2022.2 1553.08 2024.02 1547.5 2028.1 1543.82 2028.91 1543 2029.91 1542.39 2031.02 1542.06 2031.02 1542.06 2030.06 1542.78 2028.58 1544.3 2026.54 1546.47 2025.17 1549.18 2024.62 1552.11 2023.69 1556.39 2024.98 1560.86 2028.06 1563.96 2033.15 1569.37 2041.64 1569.61 2047.02 1564.5 2049.55 1562.1 2051.05 1558.81 2051.21 1555.32 2051.54 1550.97 2049.65 1546.74 2046.19 1544.1 2043.9 1542.18 2041.1 1540.98 2038.14 1540.64 2036.04 1540.44 2034.84 1540.64 2034.8 1540.64Z" fill="#455A64" fill-rule="evenodd"/><path d="M1923.99 1525C1923.51 1526.68 1922.86 1528.3 1922.04 1529.85 1921.23 1531.73 1920.3 1533.57 1919.27 1535.35 1918.01 1537.7 1916.62 1539.98 1915.12 1542.18 1913.38 1544.97 1911.49 1547.66 1909.43 1550.24 1907.35 1553.11 1904.74 1555.91 1902.1 1558.88 1896.11 1565.2 1889.51 1570.92 1882.41 1575.96 1875.24 1580.86 1867.61 1585.03 1859.63 1588.43 1855.89 1589.87 1852.36 1591.3 1848.94 1592.26 1845.8 1593.27 1842.61 1594.11 1839.38 1594.79 1836.44 1595.54 1833.73 1595.84 1831.37 1596.22 1829.33 1596.56 1827.29 1596.77 1825.23 1596.87 1823.49 1597.03 1821.74 1597.03 1819.99 1596.87 1819.99 1596.46 1827.46 1596.22 1839.11 1593.45 1841.99 1592.74 1845.17 1591.92 1848.49 1590.76 1851.82 1589.59 1855.34 1588.26 1858.98 1586.83 1874.8 1580.08 1889.1 1570.24 1901.04 1557.89 1903.68 1554.99 1906.28 1552.26 1908.41 1549.45 1910.53 1546.65 1912.52 1544.09 1914.23 1541.63 1920.91 1531.73 1923.79 1524.82 1923.99 1525Z" fill="#455A64" fill-rule="evenodd"/><path d="M1948.99 1553.99C1947.66 1543.69 1947.66 1533.29 1948.99 1522.99 1950.33 1533.29 1950.33 1543.69 1948.99 1553.99Z" fill="#455A64" fill-rule="evenodd"/><path d="M1965.99 1548.99C1964.66 1540.36 1964.66 1531.62 1965.99 1522.99 1967.33 1531.62 1967.33 1540.36 1965.99 1548.99Z" fill="#455A64" fill-rule="evenodd"/><path d="M2081.44 1552.99C2080.53 1549.8 2080.12 1546.45 2080.24 1543.09 2079.82 1539.73 2079.94 1536.31 2080.59 1532.99 2081.46 1536.18 2081.86 1539.52 2081.76 1542.86 2082.16 1546.23 2082.05 1549.66 2081.44 1552.99Z" fill="#455A64" fill-rule="evenodd"/><path d="M2099.99 1549.99C2098.66 1543.71 2098.66 1537.27 2099.99 1530.99 2101.33 1537.27 2101.33 1543.71 2099.99 1549.99Z" fill="#455A64" fill-rule="evenodd"/><path d="M2232.99 1620.87C2231.08 1621.03 2229.16 1621.03 2227.25 1620.87 2225 1620.84 2222.76 1620.64 2220.54 1620.26 2217.57 1619.93 2214.63 1619.45 2211.71 1618.82L2206.63 1617.69C2204.86 1617.28 2203.17 1616.63 2201.2 1616.11 2197.42 1615.09 2193.55 1613.48 2189.47 1611.9 2180.7 1608.16 2172.36 1603.5 2164.59 1598.03 2156.9 1592.44 2149.81 1586.08 2143.45 1579.05 2140.71 1575.95 2138.13 1572.72 2135.73 1569.36 2134.59 1567.75 2133.45 1566.27 2132.48 1564.77L2129.82 1560.31C2128.27 1557.79 2126.86 1555.18 2125.59 1552.5 2124.56 1550.52 2123.65 1548.47 2122.9 1546.37 2122.13 1544.63 2121.49 1542.83 2120.99 1540.99 2121.41 1540.99 2124.04 1548.56 2130.89 1559.7L2133.66 1563.98C2134.63 1565.48 2135.8 1566.92 2136.91 1568.46 2139.12 1571.62 2141.89 1574.67 2144.69 1577.95 2157.31 1591.87 2172.8 1602.94 2190.12 1610.39 2194.14 1612 2197.94 1613.61 2201.65 1614.67 2203.48 1615.26 2205.11 1615.91 2206.97 1616.35L2211.99 1617.59C2224.79 1620.4 2233.03 1620.43 2232.99 1620.87Z" fill="#455A64" fill-rule="evenodd"/><path d="M1790.71 1809.99C1790.48 1809.29 1790.31 1808.57 1790.22 1807.83 1789.95 1806.22 1789.61 1804.13 1789.16 1801.56 1788.71 1798.99 1788.19 1795.49 1787.82 1791.59 1787.44 1787.68 1786.85 1783.26 1786.65 1778.32 1786.44 1773.39 1785.99 1768.04 1785.99 1762.18 1785.99 1756.32 1785.99 1750.18 1786.3 1743.64 1787.64 1715.28 1792.89 1687.25 1801.89 1660.32 1804.05 1654.15 1806.05 1648.25 1808.32 1642.9 1810.59 1637.56 1812.66 1632.62 1814.75 1628.06 1816.85 1623.51 1818.88 1619.63 1820.67 1616.14 1822.46 1612.64 1824.11 1609.69 1825.52 1607.33 1826.93 1604.96 1827.93 1603.25 1828.76 1601.84 1829.11 1601.19 1829.53 1600.57 1829.99 1599.99 1829.77 1600.7 1829.46 1601.38 1829.06 1602.01 1828.31 1603.49 1827.34 1605.44 1826.11 1607.64 1824.87 1609.83 1823.22 1613.05 1821.57 1616.58 1819.91 1620.11 1817.78 1624.05 1815.89 1628.61 1814 1633.17 1811.73 1638.04 1809.7 1643.45 1807.67 1648.87 1805.57 1654.7 1803.47 1660.83 1794.67 1687.68 1789.46 1715.57 1787.95 1743.77 1787.71 1750.25 1787.37 1756.42 1787.51 1762.21 1787.64 1768.01 1787.51 1773.39 1787.89 1778.29 1788.26 1783.19 1788.54 1787.65 1788.81 1791.52 1789.09 1795.39 1789.5 1798.78 1789.85 1801.49 1790.19 1804.2 1790.4 1806.19 1790.57 1807.8 1790.71 1808.52 1790.76 1809.26 1790.71 1809.99Z" fill="#455A64" fill-rule="evenodd"/><path d="M2256.89 1809.99C2256.69 1809.34 2256.58 1808.67 2256.54 1807.99 2256.54 1806.48 2256.16 1804.55 2255.88 1802.2 2255.4 1797.21 2254.53 1789.97 2253.32 1781.04 2250.12 1757.77 2245.35 1734.75 2239.04 1712.11 2232.6 1689.54 2224.77 1667.39 2215.6 1645.77 2212.14 1637.47 2209.16 1630.81 2207.04 1626.23 2206.11 1624.06 2205.31 1622.3 2204.69 1620.89 2204.36 1620.29 2204.13 1619.65 2203.99 1618.99 2204.42 1619.53 2204.77 1620.12 2205.03 1620.75 2205.73 1622.09 2206.59 1623.82 2207.7 1625.92 2209.99 1630.4 2213.11 1637.02 2216.78 1645.29 2226.33 1666.82 2234.34 1688.99 2240.77 1711.63 2247.14 1734.3 2251.77 1757.41 2254.63 1780.77 2255.67 1789.73 2256.37 1797 2256.64 1802.07 2256.64 1804.36 2256.75 1806.29 2256.95 1807.86 2257.02 1808.57 2257 1809.29 2256.89 1809.99Z" fill="#455A64" fill-rule="evenodd"/><path d="M2330.99 1482.99 2330.99 1199.69 1710.99 1193.99 1710.99 1475.41Z" fill="#FFC715" fill-rule="evenodd"/><path d="M1710.65 1193.99 1722.4 1193.99 1756.75 1194.2 1885.28 1195.16 2331.17 1198.84 2331.99 1198.84 2331.99 1199.66C2331.99 1287.27 2331.99 1382.82 2331.99 1482.1L2331.99 1483.99 2331.07 1483.99 1710.65 1476.16 1709.99 1476.16 1709.99 1475.51C1709.99 1388.48 1710.27 1318.04 1710.34 1269.45 1710.34 1245.16 1710.34 1226.34 1710.51 1213.5 1710.51 1207.15 1710.51 1202.3 1710.51 1199.01 1710.51 1195.71 1710.51 1194.1 1710.51 1194.1 1710.51 1194.1 1710.51 1195.81 1710.51 1199.14 1710.51 1202.48 1710.51 1207.35 1710.51 1213.77 1710.51 1226.62 1710.51 1245.51 1710.51 1269.86 1710.51 1318.46 1710.71 1388.76 1710.89 1475.61L1710.23 1474.96 2330.62 1482.31 2329.73 1483.2 2329.73 1482.24C2329.73 1382.95 2329.73 1287.41 2329.73 1199.8L2330.55 1200.66 1885.25 1196.16 1756.55 1194.75 1722.19 1194.3 1713.33 1194.3Z" fill="#263238" fill-rule="evenodd"/><path d="M1750.99 1348.97C1750.59 1349.25 1748.05 1346.39 1745.27 1342.53 1743.37 1340.35 1741.92 1337.79 1740.99 1335.02 1741.39 1334.71 1743.94 1337.6 1746.68 1341.46 1748.59 1343.64 1750.06 1346.2 1750.99 1348.97Z" fill="#263238" fill-rule="evenodd"/><path d="M1821.93 1326.01C1822.35 1326.33 1820.68 1329.55 1818.22 1333.09 1815.75 1336.63 1813.43 1339.25 1813.05 1338.97 1812.67 1338.69 1814.3 1335.43 1816.76 1331.89 1819.22 1328.35 1821.44 1325.73 1821.93 1326.01Z" fill="#263238" fill-rule="evenodd"/><path d="M1832.94 1336.02C1833.35 1336.34 1831.23 1339.04 1828.2 1342.05 1825.18 1345.07 1822.44 1347.28 1822.04 1346.96 1821.64 1346.64 1823.79 1343.98 1826.78 1340.96 1829.77 1337.94 1832.54 1335.73 1832.94 1336.02Z" fill="#263238" fill-rule="evenodd"/><path d="M1789.92 282.992C1790.44 282.992 1788.05 292.812 1786.24 304.906 1784.44 317 1783.81 326.993 1783.29 326.993 1782.65 319.533 1783.04 312.022 1784.44 304.665 1785.26 297.227 1787.11 289.935 1789.92 282.992Z" fill="#263238" fill-rule="evenodd"/><path d="M1797.31 259.014C1798 259.014 1798.2 260.489 1797.75 262.088 1797.31 263.687 1796.42 265.162 1795.68 264.978 1794.94 264.793 1794.8 263.502 1795.24 261.904 1795.68 260.305 1796.47 258.798 1797.31 259.014Z" fill="#263238" fill-rule="evenodd"/><path d="M1893.99 323.992C1889.47 329.349 1884.49 334.291 1879.1 338.763 1874.12 343.636 1868.73 348.063 1862.99 351.992 1867.54 346.657 1872.52 341.716 1877.89 337.223 1882.88 332.368 1888.27 327.943 1893.99 323.992Z" fill="#263238" fill-rule="evenodd"/><path d="M1993.99 362.009C1992.63 362.498 1991.21 362.828 1989.77 362.992L1978.15 365.059C1968.35 366.788 1954.81 369.195 1939.92 372.077 1925.04 374.958 1911.57 377.806 1901.84 379.908L1890.29 382.315C1888.89 382.701 1887.45 382.928 1885.99 382.993 1887.32 382.416 1888.7 381.962 1890.12 381.637 1892.8 380.891 1896.72 379.874 1901.53 378.688 1911.22 376.281 1924.63 373.264 1939.58 370.348 1954.53 367.433 1968.08 365.229 1977.94 363.839 1982.89 363.127 1986.88 362.619 1989.66 362.314 1991.09 362.053 1992.54 361.951 1993.99 362.009Z" fill="#263238" fill-rule="evenodd"/><path d="M1933.98 441.993C1931.72 441.603 1929.52 440.884 1927.45 439.857 1922.34 437.726 1917.39 435.21 1912.63 432.33 1907.88 429.495 1903.33 426.312 1899.03 422.808 1897.13 421.474 1895.43 419.858 1893.99 418.011 1894.33 417.591 1902.53 424.173 1913.61 430.755 1924.7 437.336 1934.36 441.467 1933.98 441.993Z" fill="#263238" fill-rule="evenodd"/><path d="M1959.99 552.988C1959.64 553.33 1941.9 535.913 1920.37 514.125 1898.85 492.336 1881.65 474.339 1882 473.998 1882.34 473.656 1900.12 491.073 1921.65 512.861 1943.17 534.649 1960.37 552.647 1959.99 552.988Z" fill="#263238" fill-rule="evenodd"/><path d="M1698.99 365.993C1691.06 362.273 1683.39 358.016 1676.03 353.252 1668.37 349.006 1661.01 344.242 1653.99 338.992 1661.92 342.716 1669.59 346.961 1676.96 351.698 1684.62 355.944 1691.99 360.72 1698.99 365.993Z" fill="#263238" fill-rule="evenodd"/><path d="M1673.99 395.171C1672.66 395.562 1671.3 395.786 1669.93 395.841 1667.33 396.154 1663.5 396.468 1658.82 396.781 1649.39 397.451 1636.36 397.943 1622.01 397.988 1607.66 398.033 1594.67 397.451 1585.2 396.825 1580.49 396.512 1576.69 396.199 1574.06 395.886 1572.69 395.884 1571.32 395.658 1569.99 395.215 1571.36 395.007 1572.73 395.007 1574.09 395.215L1585.24 395.215C1594.63 395.215 1607.66 395.708 1622.01 395.708 1636.36 395.708 1649.35 395.394 1658.75 395.171L1669.89 395.171C1671.25 394.93 1672.63 394.93 1673.99 395.171Z" fill="#263238" fill-rule="evenodd"/><path d="M1677.99 437.993C1671.21 441.599 1664.14 444.702 1656.84 447.275 1649.77 450.364 1642.47 452.945 1634.99 454.993 1641.82 451.308 1648.95 448.149 1656.32 445.548 1663.32 442.5 1670.57 439.973 1677.99 437.993Z" fill="#263238" fill-rule="evenodd"/><path d="M1739.97 343.993C1739.52 343.993 1730.65 321.023 1720.15 292.319 1709.65 263.616 1701.53 240.165 1702.01 239.993 1702.5 239.822 1711.34 262.963 1721.84 291.702 1732.34 320.44 1740.46 343.821 1739.97 343.993Z" fill="#263238" fill-rule="evenodd"/><path d="M1898.99 236.992C1898.12 238.474 1897.11 239.874 1895.99 241.175 1893.77 244.089 1890.87 247.826 1887.38 252.317 1880.12 261.745 1870.1 274.842 1859.73 289.618 1849.36 304.395 1840.17 318.04 1833.67 327.982L1826 339.776C1825.13 341.27 1824.12 342.682 1822.99 343.993 1823.66 342.412 1824.46 340.887 1825.38 339.433 1827.04 336.519 1829.49 332.371 1832.6 327.331 1838.82 317.046 1847.77 303.332 1858.28 288.59 1868.79 273.848 1879.02 260.786 1886.38 251.563 1890.15 246.935 1893.29 243.266 1895.43 240.764 1896.49 239.396 1897.69 238.133 1898.99 236.992Z" fill="#263238" fill-rule="evenodd"/><path d="M2245.03 1398.78 2302.17 1366.99 2358.69 1366.99C2358.69 1366.99 2382.21 1383.89 2382.86 1392.02L2396.99 1480.56 2386.22 1523.86 2360.02 1533.99 2333.1 1516.44 2321 1471.14C2321 1471.14 2294.79 1462.35 2289.41 1460.32 2284.03 1458.28 2271.23 1452.87 2275.28 1446.11L2241.67 1442.67C2241.67 1442.67 2227.54 1437.25 2238.96 1425.77 2238.96 1425.77 2232.1 1415.64 2234.5 1409.54 2236.9 1403.43 2243.01 1408.19 2243.01 1408.19 2243.01 1408.19 2241.64 1400.64 2245.03 1398.78Z" fill="#A36957" fill-rule="evenodd"/><path d="M2343.99 1462.99C2343.69 1462.99 2342.04 1458.67 2338.24 1452.19 2336.1 1448.41 2333.08 1445.18 2329.45 1442.74 2324.8 1440.12 2319.36 1439.2 2314.08 1440.14L2284.45 1444.26C2280.65 1444.76 2277.61 1445.1 2275.42 1445.34 2274.28 1445.51 2273.13 1445.51 2271.99 1445.34 2273.02 1444.93 2274.1 1444.66 2275.21 1444.53 2277.33 1444.09 2280.38 1443.55 2284.18 1442.91 2291.74 1441.63 2302.14 1439.84 2313.81 1438.28 2316.72 1437.9 2319.67 1437.9 2322.57 1438.28 2325.31 1438.7 2327.93 1439.7 2330.24 1441.22 2334.03 1443.82 2337.12 1447.3 2339.24 1451.35 2340.68 1454 2341.93 1456.75 2342.97 1459.58 2343.48 1460.66 2343.83 1461.81 2343.99 1462.99Z" fill="#7C3B29" fill-rule="evenodd"/><path d="M2340.91 1426.83C2340.65 1425.46 2340.27 1424.11 2339.78 1422.8 2338.1 1419.37 2335.23 1416.61 2331.67 1415.01 2326.23 1412.89 2320.3 1412.18 2314.49 1412.96 2307.82 1413.52 2300.5 1414.38 2292.87 1415.63 2277.58 1418.11 2263.94 1421.31 2254.08 1423.56L2242.32 1426.23C2240.91 1426.64 2239.46 1426.9 2237.99 1426.99 2239.33 1426.4 2240.72 1425.92 2242.15 1425.57 2244.87 1424.78 2248.85 1423.69 2253.73 1422.27 2263.56 1419.69 2277.2 1416.29 2292.56 1413.78 2300.26 1412.56 2307.61 1411.74 2314.35 1411.24 2320.43 1410.51 2326.6 1411.4 2332.18 1413.82 2335.93 1415.62 2338.84 1418.69 2340.36 1422.44 2340.73 1423.5 2340.93 1424.61 2340.98 1425.74 2341.01 1426.46 2340.98 1426.83 2340.91 1426.83Z" fill="#7C3B29" fill-rule="evenodd"/><path d="M2346.99 1396.78C2346.99 1396.78 2345.89 1395.52 2343.53 1393.74 2340.21 1391.29 2336.36 1389.67 2332.3 1388.99 2326.26 1388.08 2320.09 1388.37 2314.15 1389.86 2307.22 1391.33 2299.91 1393.36 2292.05 1395.14 2276.36 1398.95 2262.12 1402.12 2251.8 1404.57L2239.53 1407.26C2238.04 1407.63 2236.52 1407.87 2234.99 1407.99 2236.39 1407.35 2237.85 1406.87 2239.36 1406.56L2251.48 1403.35C2261.88 1400.69 2275.94 1397.16 2291.63 1393.39 2299.5 1391.54 2306.91 1389.62 2313.84 1388.22 2319.98 1386.77 2326.34 1386.6 2332.55 1387.73 2336.76 1388.55 2340.7 1390.43 2343.98 1393.22 2344.85 1393.97 2345.64 1394.81 2346.34 1395.73 2346.61 1396.05 2346.83 1396.4 2346.99 1396.78Z" fill="#7C3B29" fill-rule="evenodd"/><path d="M2367.99 1515.6C2367.3 1516.3 2366.46 1516.84 2365.53 1517.19 2363.09 1518.27 2360.46 1518.88 2357.79 1518.98 2353.79 1519.1 2349.83 1518.31 2346.19 1516.67 2341.77 1514.6 2337.88 1511.57 2334.8 1507.79 2329.46 1500.88 2325.74 1492.87 2323.9 1484.35 2322.92 1480.97 2322.28 1477.5 2321.99 1473.99 2323.28 1477.3 2324.34 1480.69 2325.15 1484.14 2327.26 1492.35 2331.01 1500.04 2336.19 1506.76 2339.09 1510.35 2342.74 1513.27 2346.89 1515.32 2350.28 1516.92 2353.99 1517.78 2357.75 1517.84 2361.27 1517.71 2364.74 1516.94 2367.99 1515.6Z" fill="#7C3B29" fill-rule="evenodd"/><rect x="1732" y="1310" width="117" height="71.9999" fill="#FFC715"/></g></svg>