<svg width="4431" height="2170" xmlns="http://www.w3.org/2000/svg" xmlns:xlink="http://www.w3.org/1999/xlink" overflow="hidden"><defs><clipPath id="clip0"><rect x="0" y="0" width="4431" height="2170"/></clipPath><clipPath id="clip1"><rect x="628" y="132" width="315" height="706"/></clipPath><clipPath id="clip2"><rect x="628" y="132" width="315" height="706"/></clipPath><clipPath id="clip3"><rect x="628" y="132" width="315" height="706"/></clipPath></defs><g clip-path="url(#clip0)"><rect x="0" y="0" width="4431" height="2032" fill="#D9CE36"/><g clip-path="url(#clip1)"><g clip-path="url(#clip2)"><g clip-path="url(#clip3)"><path d="M151.249 539.29 7.92422 448.629 7.875 444.691 7.875 440.754 26.1351 409.008C36.1265 391.535 48.4804 370.125 53.5008 361.364L62.6062 345.466 84.3609 356.54C102.867 365.941 149.084 389.222 150.265 389.714 150.462 389.812 150.609 302.154 150.609 194.955L150.609 0 155.679 0C158.829 0 165.326 0.639843 172.807 1.72266 184.767 3.39609 207.654 6.64453 247.57 12.2555 259.087 13.8797 276.462 16.3406 286.207 17.7187 295.952 19.0476 304.664 20.2781 305.55 20.4258L307.125 20.7211 307.125 325.336 307.125 630 300.874 629.951 294.574 629.901 151.249 539.29Z" fill="#FFFFFF" transform="matrix(1 0 0 -1.11839 628 836.794)"/></g></g></g><path d="M2353.16 193.864 3673.16 193.864 3673.16 406.864 2353.16 406.864Z" fill-rule="evenodd"/><path d="M1341.16 573.864 3981.16 573.864 3981.16 780.864 1341.16 780.864Z" fill-rule="evenodd"/><text font-family="Nunito,Nunito_MSFontService,sans-serif" font-weight="400" font-size="128" transform="matrix(1 0 0 1 1648.16 349)">¿CÓMO HA <tspan fill="#D9CE36" font-family="Courier New,Courier New_MSFontService,sans-serif" font-size="183" x="705" y="0">EVOLUCIONADO</tspan><tspan font-size="128" x="552" y="172">EL SISTEMA DE </tspan><tspan fill="#D9CE36" font-family="Courier New,Courier New_MSFontService,sans-serif" font-size="183" x="-307" y="374">ACCESO A LA INFORMACIÓN?</tspan><tspan font-weight="700" font-size="110" x="-249.099" y="691">El derecho de acceso a la información en México </tspan><tspan fill="#308C83" font-style="oblique" font-weight="700" font-size="110" x="2210.9" y="691">ha </tspan><tspan fill="#308C83" font-style="oblique" font-weight="700" font-size="110" x="-249.099" y="823">logrado</tspan><tspan fill="#308C83" font-style="oblique" font-weight="700" font-size="110" x="168.901" y="823">permear</tspan><tspan font-weight="700" font-size="110" x="621.901" y="823">las </tspan><tspan font-weight="700" font-size="110" x="792.901" y="823">relaciones</tspan><tspan font-weight="700" font-size="110" x="1331.9" y="823">Estado</tspan><tspan font-weight="700" font-size="110" x="1678.9" y="823">-</tspan><tspan font-weight="700" font-size="110" x="1726.9" y="823">Sociedad</tspan><tspan font-style="oblique" font-size="110" x="2190.9" y="823">.</tspan><tspan font-weight="700" font-size="110" x="-249.099" y="1190">La sociedad mexicana </tspan><tspan fill="#308C83" font-style="oblique" font-weight="700" font-size="110" x="887.901" y="1190">utiliza intensivamente,</tspan><tspan font-weight="700" font-size="110" x="2050.9" y="1190">las </tspan><tspan font-weight="700" font-size="110" x="-249.099" y="1322">solicitudes de acceso a la información para satisfacer </tspan><tspan fill="#308C83" font-style="oblique" font-weight="700" font-size="110" x="-249.099" y="1454">diversas necesidades.</tspan></text></g></svg>