<svg width="4837" height="2666" xmlns="http://www.w3.org/2000/svg" xmlns:xlink="http://www.w3.org/1999/xlink" overflow="hidden"><defs><clipPath id="clip0"><rect x="-421" y="-23" width="4837" height="2666"/></clipPath></defs><g clip-path="url(#clip0)" transform="translate(421 23)"><rect x="-16.0002" y="0" width="4432" height="2571" fill="#308C83"/><path d="M1852.82 597.823 2952.82 597.823 2952.82 829.823 1852.82 829.823Z" fill-rule="evenodd"/><path d="M2072.82 817.823 2952.82 817.823 2952.82 1049.82 2072.82 1049.82Z" fill-rule="evenodd"/><text fill="#B4D9D9" font-family="Nunito,Nunito_MSFontService,sans-serif" font-weight="400" font-size="165" transform="matrix(1 0 0 1 1511.82 559)">¿QUÉ HA PASADO  <tspan font-size="165" x="-313" y="213">CON LA </tspan><tspan font-family="Courier New,Courier New_MSFontService,sans-serif" font-size="183" x="341" y="213">BUROCRACIA</tspan><tspan font-family="Courier New,Courier New_MSFontService,sans-serif" font-size="183" x="561" y="433">DEDICADA</tspan><tspan font-size="165" x="621" y="638">AL TEMA ? </tspan><tspan fill="#000000" font-weight="700" font-size="110" x="-1134.86" y="899">La burocracia </tspan><tspan fill="#000000" font-weight="700" font-size="110" x="-421.857" y="899">dedicada </tspan><tspan fill="#000000" font-weight="700" font-size="110" x="65.1427" y="899">al tema de </tspan><tspan fill="#000000" font-weight="700" font-size="110" x="621.143" y="899">transparencia</tspan><tspan fill="#D9CE36" font-weight="700" font-size="110" x="-1134.86" y="1031">se ha profesionalizado</tspan><tspan fill="#000000" font-weight="700" font-size="110" x="-4.8573" y="1031">, lo cual ha </tspan><tspan fill="#D9CE36" font-weight="700" font-size="110" x="565.143" y="1031">mejorado su </tspan><tspan fill="#D9CE36" font-weight="700" font-size="110" x="-1134.86" y="1163">desempeño.</tspan><tspan fill="#000000" font-weight="700" font-size="110" x="-1134.86" y="1559">La proporción de solicitudes de acceso a la </tspan><tspan fill="#000000" font-weight="700" font-size="110" x="-1134.86" y="1691">información que reciben </tspan><tspan fill="#D9CE36" font-weight="700" font-size="110" x="116.143" y="1691">respuesta</tspan><tspan fill="#000000" font-weight="700" font-size="110" x="641.143" y="1691">dentro del </tspan><tspan fill="#D9CE36" font-weight="700" font-size="110" x="1188.14" y="1691">plazo </tspan><tspan fill="#D9CE36" font-weight="700" font-size="110" x="-1134.86" y="1823">legal</tspan><tspan fill="#000000" font-weight="700" font-size="110" x="-864.857" y="1823">ha mantenido una </tspan><tspan fill="#D9CE36" font-weight="700" font-size="110" x="76.1427" y="1823">tendencia creciente.</tspan><tspan fill="#FFFFFF" font-weight="700" font-size="912" x="1597.49" y="503">2</tspan></text></g></svg>