<svg width="4432" height="1978" xmlns="http://www.w3.org/2000/svg" xmlns:xlink="http://www.w3.org/1999/xlink" overflow="hidden"><defs><clipPath id="clip0"><rect x="-16" y="0" width="4432" height="1978"/></clipPath><clipPath id="clip1"><rect x="955" y="132" width="444" height="666"/></clipPath><clipPath id="clip2"><rect x="955" y="132" width="444" height="666"/></clipPath><clipPath id="clip3"><rect x="955" y="132" width="444" height="666"/></clipPath></defs><g clip-path="url(#clip0)" transform="translate(16 0)"><rect x="-16.0002" y="0" width="4432" height="1858" fill="#D9CE36"/><text font-family="Nunito,Nunito_MSFontService,sans-serif" font-weight="700" font-size="110" transform="matrix(1 0 0 1 1431.44 1482)">El <tspan fill="#308C83" font-size="110" x="123" y="0">conocimiento especializado </tspan><tspan font-size="110" x="1537" y="0">de la burocracia también </tspan><tspan font-size="110" x="0" y="132">ha sido </tspan><tspan font-size="110" x="394" y="132">utilizadopara</tspan><tspan font-size="110" x="1084" y="132">el desarrollo de malas prácticas.</tspan><tspan font-size="110" x="0" y="-415">Los datos muestra una proporción importante </tspan><tspan font-size="110" x="0" y="-283">de</tspan><tspan fill="#308C83" font-size="110" x="124" y="-283">"inexistencias</tspan><tspan fill="#308C83" font-size="110" x="853" y="-283">" disfrazadas de "entrega " </tspan></text><g clip-path="url(#clip1)"><g clip-path="url(#clip2)"><g clip-path="url(#clip3)"><path d="M207.915 620.06C206.461 619.963 201.856 619.672 197.737 619.382 148.206 615.892 104.539 600.771 67.8994 574.455 45.0724 558.025 24.1355 537.282 5.04035 512.177L-0.0484649 505.489 0.0969298 501.273 0.242325 497.056 57.6248 458.624C89.1755 437.493 115.201 420.191 115.395 420.191 115.637 420.191 117.964 423.39 120.629 427.364 126.833 436.475 130.855 441.467 136.962 447.574 150.677 461.192 166.768 470.207 183.876 473.793 191.873 475.441 205.055 475.926 211.792 474.762 228.658 471.854 244.263 461.192 251.242 447.864 257.543 435.7 257.882 418.01 252.018 405.312 249.691 400.272 247.947 397.752 244.215 394.02 235.733 385.587 222.502 380.207 206.024 378.511 203.068 378.22 187.802 378.026 168.852 378.026L136.671 378.026 136.671 316.718 136.671 255.41 168.076 255.41C208.884 255.41 220.952 254.78 235.83 251.775 251.436 248.625 263.746 242.325 270.192 234.182 272.809 230.935 276.783 222.987 277.898 218.771 279.158 214.118 280.127 206.17 280.127 200.645 280.127 178.739 270.483 163.666 249.837 153.391 235.976 146.461 221 143.456 203.601 144.086 180.241 144.91 160.661 153.149 138.125 171.711 131.001 177.575 119.369 189.74 112.196 198.803L105.46 207.333 103.473 205.588C102.358 204.57 78.6586 181.55 50.7428 154.409L0 105.023 0 101.195 0 97.3176 5.28268 91.4533C28.5943 65.4276 54.9592 45.3147 85.5406 30.2421 128.093 9.30526 176.703-0.969298 227.785 0.145395 283.423 1.40548 328.447 15.4603 366.637 43.5215 382.388 55.1046 398.042 70.6619 409.092 85.7829 431.58 116.461 443.018 155.088 441.855 196.041 441.661 201.663 441.322 208.302 441.031 210.822 437.396 242.712 426.443 268.738 406.281 293.067 397.945 303.148 382.243 317.397 371.047 325.006 368.77 326.605 366.879 328.059 366.879 328.301 366.879 328.544 368.382 330.288 370.175 332.179 372.017 334.117 375.555 338.188 378.075 341.242 408.22 377.542 419.852 409.674 417.768 450.578 416.992 465.554 415.635 475.15 412.63 487.557 404.052 522.597 384.86 552.403 355.733 575.715 324.376 600.868 290.79 614.39 247.85 619.139 241.501 619.866 214.263 620.496 207.915 620.06Z" fill="#FFFFFF" transform="matrix(1 0 0 -1.07338 956 797.935)"/></g></g></g><path d="M2927.68 276.244 3587.68 276.244 3587.68 508.244 2927.68 508.244Z" fill-rule="evenodd"/><path d="M1526.68 521.244 2516.68 521.244 2516.68 728.244 1526.68 728.244Z" fill-rule="evenodd"/><text font-family="Nunito,Nunito_MSFontService,sans-serif" font-weight="400" font-size="165" transform="matrix(1 0 0 1 1526.68 450)">DESARROLLO DE <tspan fill="#D9CE36" font-family="Courier New,Courier New_MSFontService,sans-serif" font-size="183" x="1401" y="0">MALAS </tspan><tspan fill="#D9CE36" font-family="Courier New,Courier New_MSFontService,sans-serif" font-size="183" x="0" y="220">PRÁCTICAS</tspan></text></g></svg>