<svg width="4432" height="3081" xmlns="http://www.w3.org/2000/svg" xmlns:xlink="http://www.w3.org/1999/xlink" overflow="hidden"><defs><clipPath id="clip0"><rect x="5" y="7" width="4432" height="3081"/></clipPath><clipPath id="clip1"><rect x="3085" y="276" width="361" height="560"/></clipPath><clipPath id="clip2"><rect x="3085" y="276" width="361" height="560"/></clipPath><clipPath id="clip3"><rect x="3085" y="276" width="361" height="560"/></clipPath></defs><g clip-path="url(#clip0)" transform="translate(-5 -7)"><rect x="5.00016" y="6.99987" width="4432" height="2876" fill="#308C83"/><text fill="#B4D9D9" font-family="Nunito,Nunito_MSFontService,sans-serif" font-weight="700" font-size="165" transform="matrix(1 0 0 1 1389.26 528)">¿QUÉ HAN <tspan font-size="165" x="0" y="198">APRENDIDO LOS </tspan><tspan font-size="165" x="0" y="419">USUARIOS </tspan><tspan font-family="Amasis MT Pro Light,Amasis MT Pro Light_MSFontService,sans-serif" font-size="183" x="909" y="419">?</tspan></text><rect x="1017" y="552" width="1374" height="220" fill="#262626"/><text fill="#B4D9D9" font-family="Bodoni MT,Bodoni MT_MSFontService,sans-serif" font-weight="700" font-size="165" transform="matrix(1 0 0 1 1233.19 714)">APRENDIDO</text><rect x="1304" y="764" width="1001" height="220" fill="#262626"/><text fill="#B4D9D9" font-family="Bodoni MT,Bodoni MT_MSFontService,sans-serif" font-weight="700" font-size="165" transform="matrix(1 0 0 1 1413.82 926)">USUARIOS</text><g clip-path="url(#clip1)"><g clip-path="url(#clip2)"><g clip-path="url(#clip3)"><path d="M142.889 468.037C141.556 464.741 133.111 444.296 124.148 422.592 115.185 400.889 90.5555 341.333 69.4444 290.185 25.1481 182.963 19.1481 168.407 8.11111 141.704L0 122.111 0 117.556 0 112.963 90.7407 112.963 181.481 112.963 181.481 56.4815 181.481 0 185.481 0C189.63 0 188.481-0.148148 249.815 9.07407 291.407 15.3333 297.815 16.2963 298 16.2963 298.074 16.2963 298.148 38.037 298.148 64.6296L298.148 112.963 320.185 112.963C332.296 112.963 342.222 113.111 342.222 113.259 342.222 113.444 346.222 135.518 351.111 162.37 359.222 206.815 360 211.518 360 215.185L360 219.259 329.074 219.259 298.148 219.259 298.148 346.667 298.148 474.074 221.778 474.074 145.37 474.074 142.889 468.037ZM188.889 272.037 188.889 219.259 167.037 219.259C155.037 219.259 145.185 219.37 145.185 219.518 145.185 219.852 188.63 324.815 188.778 324.815 188.852 324.815 188.889 301.074 188.889 272.037Z" fill="#FFFFFF" transform="matrix(1 0 0 -1.18102 3085 835.945)"/></g></g></g><text font-family="Nunito,Nunito_MSFontService,sans-serif" font-weight="700" font-size="110" transform="matrix(1 0 0 1 406.607 1392)">Los usuarios del sistema de acceso a la <tspan font-size="110" x="0" y="132">información </tspan><tspan fill="#D9CE36" font-size="110" x="632" y="132">se</tspan><tspan fill="#D9CE36" font-size="110" x="773" y="132">han sofisticado, </tspan><tspan font-size="110" x="1597" y="132">desarrollando </tspan><tspan fill="#D9CE36" font-size="110" x="0" y="264">solicitudes</tspan><tspan font-size="110" x="566" y="264">más </tspan><tspan fill="#D9CE36" font-size="110" x="805" y="264">complejas y específicas.</tspan><tspan font-size="110" x="0" y="660">La experiencia y sofisticación que muestran </tspan><tspan font-size="110" x="0" y="792">las solicitudes  </tspan><tspan fill="#D9CE36" font-size="110" x="767" y="792">tiene efectos sobre las </tspan><tspan fill="#D9CE36" font-size="110" x="0" y="924">respuestas que reciben los solicitantes.</tspan></text></g></svg>